<svg width="80" height="48" viewBox="0 0 80 48" fill="none" xmlns="http://www.w3.org/2000/svg">
<mask id="path-1-inside-1_574_663" fill="white">
<path fill-rule="evenodd" clip-rule="evenodd" d="M20 0L0 23.9999L20 48H76C78.2091 48 80 46.2091 80 44V4C80 1.79086 78.2091 0 76 0H20Z"/>
</mask>
<path fill-rule="evenodd" clip-rule="evenodd" d="M20 0L0 23.9999L20 48H76C78.2091 48 80 46.2091 80 44V4C80 1.79086 78.2091 0 76 0H20Z" fill="#2CCC9C"/>
<path d="M0 23.9999L-1.53644 22.7196L-2.60342 23.9999L-1.53644 25.2803L0 23.9999ZM20 0V-2H19.0633L18.4636 -1.28037L20 0ZM20 48L18.4636 49.2804L19.0632 50H20V48ZM1.53644 25.2803L21.5364 1.28037L18.4636 -1.28037L-1.53644 22.7196L1.53644 25.2803ZM21.5364 46.7196L1.53644 22.7196L-1.53644 25.2803L18.4636 49.2804L21.5364 46.7196ZM76 46H20V50H76V46ZM78 44C78 45.1046 77.1046 46 76 46V50C79.3137 50 82 47.3137 82 44H78ZM78 4V44H82V4H78ZM76 2C77.1046 2 78 2.89543 78 4H82C82 0.686291 79.3137 -2 76 -2V2ZM20 2H76V-2H20V2Z" fill="white" mask="url(#path-1-inside-1_574_663)"/>
<path d="M60 13.7193L57.2807 11L46.5 21.7807L35.7193 11L33 13.7193L43.7807 24.5L33 35.2807L35.7193 38L46.5 27.2193L57.2807 38L60 35.2807L49.2193 24.5L60 13.7193Z" fill="white" stroke="white" stroke-width="0.5"/>
</svg>
