<svg width="20" height="26" viewBox="0 0 20 26" fill="none" xmlns="http://www.w3.org/2000/svg">
<path d="M6.70953 25.3307C3.16574 25.3095 0.234375 17.8075 0.234375 13.9869C0.234375 7.74599 4.74894 6.37968 6.48882 6.37968C7.27291 6.37968 8.11015 6.699 8.84862 6.98157C9.36502 7.17867 9.8991 7.38215 10.1961 7.38215C10.3739 7.38215 10.7929 7.20906 11.1628 7.05719C11.9517 6.7315 12.9333 6.32672 14.0764 6.32672C14.0785 6.32672 14.0812 6.32672 14.0832 6.32672C14.9368 6.32672 17.5249 6.52098 19.0808 8.94417L19.4453 9.51216L18.9207 9.92263C18.1714 10.509 16.8041 11.5786 16.8041 13.6973C16.8041 16.2067 18.3526 17.1717 19.0965 17.6359C19.4249 17.8408 19.7648 18.052 19.7648 18.514C19.7648 18.8157 17.4431 25.2933 14.0717 25.2933C13.2467 25.2933 12.6635 25.0361 12.1492 24.8094C11.6287 24.5798 11.1798 24.382 10.4379 24.382C10.0619 24.382 9.58634 24.5663 9.08292 24.7621C8.39496 25.0283 7.61626 25.3307 6.73269 25.3307H6.70953Z" fill="white"/>
<path d="M14.4343 0.637817C14.5221 3.92101 12.2579 6.19874 9.99645 6.05589C9.6238 3.43579 12.2577 0.637817 14.4343 0.637817Z" fill="white"/>
</svg>
