<svg width="28" height="26" viewBox="0 0 28 26" fill="none" xmlns="http://www.w3.org/2000/svg">
<g clip-path="url(#clip0_863_3428)">
<path d="M14 0C6.26783 0 0 5.00837 0 11.1867C0 15.2084 2.65596 18.7323 6.64135 20.7043C6.34834 21.8097 5.581 24.7076 5.42724 25.3278C5.23794 26.0975 5.70647 26.0872 6.01326 25.8798C6.25405 25.7178 9.84997 23.2473 11.4013 22.1807C12.2434 22.3068 13.1115 22.3735 14 22.3735C21.7322 22.3735 28 17.3644 28 11.1867C28 5.00911 21.7322 0 14 0Z" fill="#391B1B"/>
<path d="M8.36785 7.89227H4.27439C3.88927 7.89227 3.57812 8.2075 3.57812 8.59603C3.57812 8.98456 3.88999 9.29978 4.27439 9.29978H5.60527V14.2568C5.60527 14.4372 5.6778 14.6146 5.80545 14.7429C5.93019 14.8704 6.10499 14.9437 6.28413 14.9437H6.43281C6.61123 14.9437 6.7853 14.8704 6.91077 14.7429C7.03842 14.6146 7.11094 14.4379 7.11094 14.2568V9.29978H8.36785C8.75297 9.29978 9.06484 8.98456 9.06484 8.59603C9.06484 8.2075 8.75297 7.89227 8.36785 7.89227V7.89227Z" fill="#FAE300"/>
<path d="M18.2068 13.6198H16.303V8.5572C16.303 8.13495 15.965 7.79333 15.548 7.79333C15.1309 7.79333 14.793 8.13495 14.793 8.5572V14.0142C14.793 14.0567 14.798 14.0963 14.8046 14.1366C14.7973 14.1762 14.793 14.2173 14.793 14.2583C14.793 14.6117 15.0751 14.8976 15.4247 14.8976H18.2068C18.5571 14.8976 18.8386 14.6117 18.8386 14.2583C18.8386 13.905 18.5564 13.6198 18.2068 13.6198V13.6198Z" fill="#FAE300"/>
<path d="M24.2908 13.8522L22.1694 11.0357L24.0863 9.09748C24.3459 8.83577 24.3459 8.40985 24.0863 8.14741C23.8266 7.88497 23.4059 7.88497 23.1456 8.14741L20.7725 10.546V8.5572C20.7725 8.13495 20.4345 7.79333 20.0175 7.79333C19.6004 7.79333 19.2617 8.13495 19.2617 8.5572V14.1821C19.2617 14.6043 19.5997 14.946 20.0175 14.946C20.4352 14.946 20.7725 14.6051 20.7725 14.1821V12.4469L21.204 12.0115L23.2108 14.6733C23.4342 14.9745 23.8585 15.0369 24.1566 14.8089C24.4547 14.5823 24.5149 14.1542 24.2908 13.8522V13.8522Z" fill="#FAE300"/>
<path d="M14.227 14.0347L12.1868 8.39299C12.1868 8.39299 12.1817 8.38859 12.1803 8.38639C12.0497 8.04258 11.6733 7.7926 11.2244 7.7926C10.7261 7.7926 10.3142 8.10049 10.2322 8.50295C10.2184 8.53301 10.2046 8.56306 10.193 8.59532L8.18693 14.0347C8.06291 14.3918 8.24858 14.7817 8.60034 14.9071C8.95282 15.0325 9.33939 14.8448 9.46342 14.4885L9.81082 13.4871H12.6031L12.9498 14.4885C13.0738 14.8448 13.4604 15.0325 13.8129 14.9071C14.1654 14.7817 14.351 14.3918 14.227 14.0347ZM10.254 12.2079L11.1925 9.5014C11.2034 9.5014 11.2121 9.50433 11.2229 9.50433L12.1607 12.2079H10.2547H10.254Z" fill="#FAE300"/>
</g>
<defs>
<clipPath id="clip0_863_3428">
<rect width="28" height="26" fill="white"/>
</clipPath>
</defs>
</svg>
