<svg width="142" height="142" viewBox="0 0 142 142" fill="none" xmlns="http://www.w3.org/2000/svg">
<rect width="142" height="142" rx="71" fill="#02EAA4" fill-opacity="0.1"/>
<path d="M62.71 81.94V45.03C62.71 41.26 59.65 38.2 55.88 38.2H40.03C36.26 38.2 33.2 41.26 33.2 45.03V65.53C33.2 67.79 31.37 69.63 29.1 69.63C26.84 69.63 25 67.79 25 65.53V45.03C25 36.73 31.73 30 40.03 30H55.88C64.18 30 70.91 36.73 70.91 45.03V81.94C70.91 84.2 69.08 86.04 66.81 86.04C64.55 86.04 62.71 84.2 62.71 81.94Z" fill="white" stroke="#020202" stroke-width="2" stroke-linecap="round" stroke-linejoin="round"/>
<path d="M90.5389 67.45H44.3489C41.3279 67.45 38.8789 69.899 38.8789 72.92V107.08C38.8789 110.101 41.3279 112.55 44.3489 112.55H90.5389C93.5599 112.55 96.0089 110.101 96.0089 107.08V72.92C96.0089 69.899 93.5599 67.45 90.5389 67.45Z" fill="#10CF96" stroke="#020202" stroke-width="2" stroke-linecap="round" stroke-linejoin="round"/>
<path d="M70.9984 96.42C70.9984 98.38 69.4084 99.97 67.4484 99.97C65.4884 99.97 63.8984 98.38 63.8984 96.42V83.85C63.8984 81.89 65.4884 80.3 67.4484 80.3C69.4084 80.3 70.9984 81.89 70.9984 83.85V96.42Z" fill="white" stroke="#020202" stroke-width="2" stroke-linecap="round" stroke-linejoin="round"/>
<path d="M115.999 41.19H78.2891V88.14H115.999V41.19Z" fill="white" stroke="#020202" stroke-width="2"/>
<path d="M86.1172 51.86H108.167" stroke="#020202" stroke-width="2"/>
<path d="M86.1172 60.4H108.167" stroke="#020202" stroke-width="2"/>
<path d="M86.1172 68.93H108.167" stroke="#020202" stroke-width="2"/>
<path d="M86.1172 77.47H108.167" stroke="#020202" stroke-width="2"/>
</svg>
