<svg width="49" height="50" viewBox="0 0 49 50" fill="none" xmlns="http://www.w3.org/2000/svg">
<path d="M22.9297 24.0832C24.3747 22.6383 26.7172 22.6383 28.1622 24.0832L35.9068 31.8279L46.4319 42.353C47.8769 43.7979 47.8769 46.1405 46.4319 47.5854C44.987 49.0304 42.6444 49.0304 41.194 47.5854L30.6744 37.0658L22.9297 29.3211C21.4848 27.8762 21.4848 25.5336 22.9297 24.0887V24.0832Z" fill="#10CF96" stroke="#020202" stroke-linecap="round" stroke-linejoin="round"/>
<path d="M5.84937 30.3884C12.3133 36.8469 22.7836 36.8469 29.2421 30.3884C35.7006 23.93 35.7006 13.4541 29.2421 6.99569C22.7836 0.537243 12.3078 0.537243 5.84937 6.99569C-0.609084 13.4541 -0.609084 23.93 5.84937 30.3884Z" fill="#10CF96" stroke="#020202" stroke-linecap="round" stroke-linejoin="round"/>
<path d="M9.21957 27.006C13.8116 31.5981 21.2608 31.5981 25.8528 27.006C30.4449 22.4139 30.4449 14.9648 25.8528 10.3728C21.2608 5.78069 13.8116 5.78069 9.21957 10.3728C4.6275 14.9648 4.6275 22.4139 9.21957 27.006Z" fill="white" stroke="#020202"/>
<path d="M16.4609 10.953C14.7533 10.953 13.0511 11.6043 11.7485 12.907C10.4458 14.2096 9.7945 15.9118 9.7945 17.6194" stroke="#020202" stroke-linecap="round" stroke-linejoin="round"/>
<path d="M20.3822 9.34368C20.3822 13.9905 24.1478 17.7561 28.7946 17.7561C33.4414 17.7561 37.207 13.9905 37.207 9.34368C37.207 4.69688 33.4414 0.931274 28.7946 0.931274C24.1478 0.931274 20.3822 4.69688 20.3822 9.34368V9.34368Z" fill="#FFF9B3" stroke="#020202" stroke-linecap="round" stroke-linejoin="round"/>
<path d="M4.96788 22.6658H22.3398V43.028H4.96788V22.6658Z" fill="white" stroke="#020202"/>
<path d="M16.6523 28.0553H10.6647" stroke="#020202"/>
<path d="M16.6523 33.4449H10.6647" stroke="#020202"/>
<path d="M27.2031 45.3822V49.4872" stroke="#020202"/>
<path d="M29.2539 47.4346H25.149" stroke="#020202"/>
<path d="M23.3359 47.4346H15.126" stroke="#020202"/>
<path d="M39.7562 26.0262C38.6983 26.0262 37.8406 25.1686 37.8406 24.1106C37.8406 23.0526 38.6983 22.1949 39.7562 22.1949C40.8142 22.1949 41.6719 23.0526 41.6719 24.1106C41.6719 25.1686 40.8142 26.0262 39.7562 26.0262Z" fill="white" stroke="#020202"/>
<path d="M33.375 6.02954H32.0554L30.7454 11.3367L29.2977 6.02954H28.0774L26.6393 11.3271L25.2813 6.02954H24.061L26.034 13.1816H27.2447L28.6924 7.67583L30.2009 13.1816H31.4308L33.375 6.02954Z" fill="#020202"/>
<path d="M26.0354 13.342H27.2461C27.3197 13.342 27.3838 13.2939 27.3998 13.2235L28.697 8.29421L30.0486 13.2235C30.0678 13.2939 30.1319 13.342 30.2023 13.342H31.4322C31.5059 13.342 31.5668 13.2939 31.586 13.2235L33.5301 6.07141C33.5429 6.02337 33.5301 5.97212 33.5045 5.93369C33.4757 5.89525 33.4276 5.86963 33.3764 5.86963H32.0568C31.9831 5.86963 31.9191 5.92088 31.8999 5.99134L30.7372 10.6996L29.4529 5.98814C29.4336 5.91767 29.3696 5.86963 29.2991 5.86963H28.0788C28.0052 5.86963 27.9443 5.91767 27.9251 5.98814L26.6471 10.6996L25.4364 5.99134C25.4172 5.92088 25.3532 5.86963 25.2827 5.86963H24.0624C24.0112 5.86963 23.9663 5.89205 23.9343 5.93369C23.9055 5.97212 23.8926 6.02657 23.9087 6.07461L25.8816 13.2267C25.9009 13.2971 25.9649 13.3452 26.0354 13.3452V13.342ZM27.1212 13.0217H26.1571L24.2738 6.18992H25.161L26.4902 11.3658C26.5094 11.4362 26.5703 11.4843 26.6439 11.4875C26.7176 11.4875 26.7784 11.4394 26.7977 11.369L28.2005 6.18992H29.1742L30.5899 11.3786C30.6091 11.4491 30.6603 11.5003 30.7468 11.4971C30.8205 11.4971 30.8813 11.4459 30.9006 11.3754L32.1817 6.18992H33.165L31.3073 13.0217H30.3208L28.8475 7.63442C28.8283 7.56396 28.7642 7.51591 28.6938 7.51591C28.6201 7.51591 28.556 7.56396 28.54 7.63442L27.1244 13.0217H27.1212Z" fill="#020202"/>
<path d="M23.0859 10.0619V9.18109C23.0859 9.14749 23.1132 9.12024 23.1468 9.12024H25.0941C25.1278 9.12024 25.155 9.14749 25.155 9.18109V10.0619C25.155 10.0955 25.1278 10.1227 25.0941 10.1227H23.1468C23.1132 10.1227 23.0859 10.0955 23.0859 10.0619Z" fill="#020202"/>
<path d="M23.1441 10.283H25.0915C25.2132 10.283 25.3125 10.1837 25.3125 10.062V9.18438C25.3125 9.06267 25.2132 8.96338 25.0915 8.96338H23.1441C23.0224 8.96338 22.9231 9.06267 22.9231 9.18438V10.062C22.9231 10.1837 23.0224 10.283 23.1441 10.283ZM24.9922 9.96268H23.2434V9.28046H24.9922V9.96268V9.96268Z" fill="#020202"/>
<path d="M32.25 10.0621V9.18134C32.25 9.14773 32.2772 9.12048 32.3109 9.12048H34.2582C34.2918 9.12048 34.3191 9.14773 34.3191 9.18134V10.0621C34.3191 10.0957 34.2918 10.123 34.2582 10.123H32.3109C32.2772 10.123 32.25 10.0957 32.25 10.0621Z" fill="#020202"/>
<path d="M32.3082 10.2833H34.2556C34.3773 10.2833 34.4766 10.184 34.4766 10.0623V9.18474C34.4766 9.06303 34.3773 8.96375 34.2556 8.96375H32.3082C32.1865 8.96375 32.0872 9.06303 32.0872 9.18474V10.0623C32.0872 10.184 32.1865 10.2833 32.3082 10.2833ZM34.1563 9.96305H32.4075V9.28083H34.1563V9.96305V9.96305Z" fill="#020202"/>
</svg>
