<svg width="142" height="142" viewBox="0 0 142 142" fill="none" xmlns="http://www.w3.org/2000/svg">
<rect width="142" height="142" rx="71" fill="white"/>
<path d="M86.8047 101.665V110.152" stroke="#020202" stroke-width="2"/>
<path d="M82.5078 105.909H91.1047" stroke="#020202" stroke-width="2"/>
<path d="M94.8984 105.909H108.653" stroke="#020202" stroke-width="2"/>
<path d="M37.2969 38.8569V47.3445" stroke="#020202" stroke-width="2"/>
<path d="M33 43.1007H41.5969" stroke="#020202" stroke-width="2"/>
<path d="M52.75 45.9299V29H63.0548H73.3596H83.6644H93.9692L96.938 31.931L99.9067 34.8621L102.876 37.7931L105.844 40.7242V54.723V68.7218V82.7319V96.7308H92.5707H79.2972H66.0236H52.75V79.8009V45.9299Z" fill="white" stroke="#020202" stroke-width="2" stroke-linecap="round" stroke-linejoin="round"/>
<path d="M105.652 41.5854H93.6523V29.5854" fill="white"/>
<path d="M105.652 41.5854H93.6523V29.5854" stroke="#020202" stroke-width="2" stroke-linecap="round" stroke-linejoin="round"/>
<path d="M39.6809 57.1335H64.5889C66.7782 57.1335 68.5549 58.8876 68.5549 61.0491V109.779C68.5549 111.941 66.7782 113.695 64.5889 113.695H39.6809C37.4915 113.695 35.7148 111.941 35.7148 109.779V61.0378C35.7148 58.8763 37.4915 57.1222 39.6809 57.1222V57.1335Z" fill="#30F38A" stroke="#020202" stroke-width="2" stroke-linecap="round" stroke-linejoin="round"/>
<path d="M49.5273 61.2302H54.7313" stroke="#020202" stroke-width="2" stroke-linecap="round" stroke-linejoin="round"/>
<path d="M79.4219 60.0758H93.1769" stroke="#020202" stroke-width="2"/>
<path d="M79.4219 73.6559H93.1769" stroke="#020202" stroke-width="2"/>
<path d="M63.3658 98.0321C63.3658 100.669 61.1993 102.808 58.5286 102.808C55.8578 102.808 53.6914 100.669 53.6914 98.0321C53.6914 95.3953 55.8578 93.2565 58.5286 93.2565C61.1993 93.2565 63.3658 95.3953 63.3658 98.0321Z" fill="white" stroke="#020202" stroke-width="2"/>
</svg>
