<svg width="56" height="56" viewBox="0 0 56 56" fill="none" xmlns="http://www.w3.org/2000/svg">
<path d="M30.342 14.5275V16.8311H54.6518V14.5275C54.6518 11.2342 52.013 8.5632 48.7574 8.5632H25.9712C25.7132 8.5632 25.4622 8.58693 25.2129 8.62121C28.1054 9.0009 30.3412 11.4979 30.3412 14.5283L30.342 14.5275Z" fill="#45FA98" stroke="#020202" stroke-width="1.2"/>
<path d="M49.6334 8.5632H23.2772C20.0217 8.5632 17.3828 11.2342 17.3828 14.5275L17.4792 45.784C17.4792 49.0773 14.8395 51.7474 11.584 51.7474H37.9402C41.1957 51.7474 43.8354 49.0773 43.8354 45.784L43.7382 14.5275C43.7382 11.2342 46.3779 8.5632 49.6334 8.5632Z" fill="white" stroke="#020202" stroke-width="1.2"/>
<path d="M30.3673 45.7849V43.4805H6.05664V45.7849C6.05664 49.0782 8.69634 51.7483 11.9519 51.7483H34.7355C34.9944 51.7483 35.2463 51.7255 35.4947 51.6921C32.6022 51.3115 30.3673 48.8145 30.3673 45.7849Z" fill="white" stroke="#020202" stroke-width="1.2"/>
<path d="M24.1777 20.6422H36.9554" stroke="#020202" stroke-width="1.2"/>
<path d="M24.1777 24.7469H36.9554" stroke="#020202" stroke-width="1.2"/>
<path d="M24.1777 28.6949H36.9554" stroke="#020202" stroke-width="1.2"/>
<path d="M15.8958 3.06901C15.8958 4.21148 14.9693 5.13801 13.8268 5.13801C12.6843 5.13801 11.7578 4.21148 11.7578 3.06901C11.7578 1.92653 12.6843 1 13.8268 1C14.9693 1 15.8958 1.92653 15.8958 3.06901Z" fill="#F7E538" stroke="#020202" stroke-width="1.2"/>
<path d="M7.62082 6.37942C5.21698 6.87851 4.8095 7.28598 4.31041 9.68983C3.80891 7.28598 3.40385 6.87851 1 6.37942C3.40385 5.87791 3.81132 5.47285 4.31041 3.06901C4.81192 5.47285 5.21698 5.87791 7.62082 6.37942Z" fill="white" stroke="#020202" stroke-width="1.2" stroke-linecap="round" stroke-linejoin="round"/>
<path d="M10.3672 9.83095V15.7059" stroke="#020202" stroke-width="1.2"/>
<path d="M7.42773 12.7684H13.3026" stroke="#020202" stroke-width="1.2"/>
<path d="M46.5306 44.4875L44.7246 46.2934L46.6064 48.1752L48.4123 46.3692L46.5306 44.4875Z" fill="white" stroke="#231F20" stroke-width="1.2" stroke-miterlimit="10"/>
<path d="M45.4189 34.6823C48.3857 37.6486 48.3857 42.4555 45.4189 45.4218C42.4521 48.3881 37.6446 48.3881 34.6778 45.4218C31.7142 42.4555 31.7142 37.6486 34.6778 34.6823C37.6446 31.716 42.4521 31.716 45.4189 34.6823Z" fill="white" stroke="#020202" stroke-width="1.2" stroke-miterlimit="10"/>
<path d="M37.9096 44.9661C37.2873 44.71 36.7062 44.329 36.2008 43.8168C34.1857 41.7744 34.1857 38.461 36.2008 36.4185C36.8009 35.8135 37.5084 35.3845 38.2633 35.138" stroke="#020202" stroke-width="1.2" stroke-miterlimit="10"/>
<path d="M48.9846 45.8001L46.0059 48.7788L52.0212 54.7942L54.9999 51.8155L48.9846 45.8001Z" fill="#FCE435" stroke="#231F20" stroke-width="1.2" stroke-miterlimit="10"/>
</svg>
