<svg width="91" height="96" viewBox="0 0 91 96" fill="none" xmlns="http://www.w3.org/2000/svg">
<g opacity="0.7">
<path d="M45.1202 22.3919V26.4914H88.3826V22.3919C88.3826 16.5311 83.6864 11.7777 77.8928 11.7777H37.3417C36.8826 11.7777 36.4358 11.8199 35.9922 11.8809C41.1397 12.5566 45.1186 17.0003 45.1186 22.3934L45.1202 22.3919Z" fill="#45FA98" stroke="#020202" stroke-width="2.4"/>
<path d="M79.4503 11.7777H32.5459C26.7523 11.7777 22.0561 16.5311 22.0561 22.3919L22.2277 78.017C22.2277 83.8778 17.53 88.6296 11.7363 88.6296H58.6407C64.4343 88.6296 69.132 83.8778 69.132 78.017L68.9589 22.3919C68.9589 16.5311 73.6566 11.7777 79.4503 11.7777Z" fill="white" stroke="#020202" stroke-width="2.4"/>
<path d="M45.1644 78.0187V73.9175H1.90039V78.0187C1.90039 83.8795 6.59809 88.6313 12.3918 88.6313H52.9382C53.3989 88.6313 53.8471 88.5906 54.2892 88.5312C49.1417 87.8539 45.1644 83.4102 45.1644 78.0187Z" fill="white" stroke="#020202" stroke-width="2.4"/>
<path d="M34.1465 33.2737H56.886" stroke="#020202" stroke-width="2.4"/>
<path d="M34.1465 40.5786H56.886" stroke="#020202" stroke-width="2.4"/>
<path d="M34.1465 47.6045H56.886" stroke="#020202" stroke-width="2.4"/>
<path d="M21.7567 4.44185C21.7567 5.7902 20.6633 6.8837 19.3149 6.8837C17.9665 6.8837 16.873 5.7902 16.873 4.44185C16.873 3.0935 17.9665 2 19.3149 2C20.6633 2 21.7567 3.0935 21.7567 4.44185Z" fill="#F7E538" stroke="#020202" stroke-width="2.4"/>
<g clip-path="url(#clip0_1427_2494)">
<path d="M11.2288 12.3042C7.73769 13.0291 7.14591 13.6208 6.42107 17.112C5.69272 13.6208 5.10444 13.0291 1.61328 12.3042C5.10444 11.5759 5.69622 10.9876 6.42107 7.49644C7.14941 10.9876 7.73769 11.5759 11.2288 12.3042Z" fill="white" stroke="#020202" stroke-width="2" stroke-linecap="round" stroke-linejoin="round"/>
</g>
<path d="M11.8438 17.2615V24.4889" stroke="#020202" stroke-width="2.4"/>
<path d="M8.22852 20.8752H15.4559" stroke="#020202" stroke-width="2.4"/>
<path d="M73.9288 75.7096L70.7148 78.9235L74.0637 82.2723L77.2776 79.0584L73.9288 75.7096Z" fill="white" stroke="#231F20" stroke-width="2.4" stroke-miterlimit="10"/>
<path d="M71.9517 58.2601C77.2314 63.539 77.2314 72.0933 71.9517 77.3723C66.6719 82.6512 58.1162 82.6512 52.8365 77.3723C47.5623 72.0933 47.5623 63.539 52.8365 58.2601C58.1162 52.9811 66.6719 52.9811 71.9517 58.2601Z" fill="white" stroke="#020202" stroke-width="2.4" stroke-miterlimit="10"/>
<path d="M58.5861 76.5614C57.4787 76.1056 56.4445 75.4276 55.5451 74.5161C51.9589 70.8813 51.9589 64.9847 55.5451 61.3498C56.6131 60.2731 57.8722 59.5096 59.2156 59.071" stroke="#020202" stroke-width="2.4" stroke-miterlimit="10"/>
<path d="M78.2951 78.0456L72.9941 83.3466L83.6992 94.0517L89.0002 88.7507L78.2951 78.0456Z" fill="#FCE435" stroke="#231F20" stroke-width="2.4" stroke-miterlimit="10"/>
</g>
<defs>
<clipPath id="clip0_1427_2494">
<rect width="10.8411" height="10.8411" fill="white" transform="translate(1 6.88364)"/>
</clipPath>
</defs>
</svg>
