<svg width="132" height="143" viewBox="0 0 132 143" fill="none" xmlns="http://www.w3.org/2000/svg">
<path d="M128 130.465C128 137.092 106.003 142.465 69 142.465C31.9969 142.465 8 137.092 8 130.465C8 123.837 31.9969 118.465 69 118.465C106.003 118.465 128 123.837 128 130.465Z" fill="#F4F4F4"/>
<path d="M125 130.465C125 137.092 103.003 142.465 66 142.465C28.9969 142.465 5 137.092 5 130.465C5 123.837 28.9969 118.465 66 118.465C103.003 118.465 125 123.837 125 130.465Z" fill="#F4F4F4"/>
<path d="M118.363 27.4006V42.1849" stroke="#020202" stroke-width="2"/>
<path d="M110.969 34.7927H125.753" stroke="#020202" stroke-width="2"/>
<path d="M130.377 50.8337C130.377 53.2837 128.391 55.2585 125.952 55.2585C123.513 55.2585 121.527 53.2837 121.527 50.8337C121.527 48.3838 123.513 46.409 125.952 46.409C128.391 46.409 130.377 48.3943 130.377 50.8337Z" fill="white" stroke="#020202" stroke-width="2"/>
<path d="M36.6372 1H93.5388C98.5389 1 102.606 5.07081 102.606 10.0759V122.924C102.606 127.929 98.5389 132 93.5388 132H36.6372C31.6371 132 27.5703 127.929 27.5703 122.924V10.0592C27.5703 5.05413 31.6371 1 36.6206 1H36.6372Z" fill="white" stroke="#020202" stroke-width="2"/>
<path d="M59.1406 12.6619H71.0409" stroke="#020202" stroke-width="2"/>
<path fill-rule="evenodd" clip-rule="evenodd" d="M5.14062 33.7368C2.93149 33.7368 1.14062 35.5276 1.14062 37.7368V55.5699C1.14062 57.779 2.93149 59.5699 5.14063 59.5699H61.7498L73.6728 71.4929V59.5699H77.6207C79.8298 59.5699 81.6207 57.779 81.6207 55.5699V37.7368C81.6207 35.5276 79.8298 33.7368 77.6207 33.7368H5.14062Z" fill="#FFE84A"/>
<path d="M61.7498 59.5699L62.4569 58.8628L62.164 58.5699H61.7498V59.5699ZM73.6728 71.4929L72.9657 72.2L74.6728 73.9071V71.4929H73.6728ZM73.6728 59.5699V58.5699H72.6728V59.5699H73.6728ZM2.14062 37.7368C2.14062 36.0799 3.48377 34.7368 5.14062 34.7368V32.7368C2.3792 32.7368 0.140625 34.9753 0.140625 37.7368H2.14062ZM2.14062 55.5699V37.7368H0.140625V55.5699H2.14062ZM5.14063 58.5699C3.48377 58.5699 2.14062 57.2267 2.14062 55.5699H0.140625C0.140625 58.3313 2.37921 60.5699 5.14063 60.5699V58.5699ZM61.7498 58.5699H5.14063V60.5699H61.7498V58.5699ZM61.0427 60.277L72.9657 72.2L74.3799 70.7858L62.4569 58.8628L61.0427 60.277ZM74.6728 71.4929V59.5699H72.6728V71.4929H74.6728ZM77.6207 58.5699H73.6728V60.5699H77.6207V58.5699ZM80.6207 55.5699C80.6207 57.2267 79.2775 58.5699 77.6207 58.5699V60.5699C80.3821 60.5699 82.6207 58.3313 82.6207 55.5699H80.6207ZM80.6207 37.7368V55.5699H82.6207V37.7368H80.6207ZM77.6207 34.7368C79.2775 34.7368 80.6207 36.0799 80.6207 37.7368H82.6207C82.6207 34.9753 80.3821 32.7368 77.6207 32.7368V34.7368ZM5.14062 34.7368H77.6207V32.7368H5.14062V34.7368Z" fill="black"/>
<path d="M37.0689 42.6791L30.9258 48.8221L32.7194 50.6157L38.8625 44.4727L37.0689 42.6791Z" fill="black"/>
<path d="M32.7308 42.6819L30.9375 44.4758L37.0817 50.6178L38.8749 48.8239L32.7308 42.6819Z" fill="black"/>
<path d="M71.315 42.6792L65.1719 48.8223L66.9655 50.6159L73.1086 44.4728L71.315 42.6792Z" fill="black"/>
<path d="M66.9769 42.682L65.1836 44.4759L71.3277 50.6179L73.121 48.824L66.9769 42.682Z" fill="black"/>
<path d="M25.6548 42.679L19.5117 48.8221L21.3053 50.6157L27.4484 44.4726L25.6548 42.679Z" fill="black"/>
<path d="M21.305 42.6833L19.5117 44.4772L25.6559 50.6192L27.4492 48.8253L21.305 42.6833Z" fill="black"/>
<path d="M59.897 42.679L53.7539 48.8221L55.5475 50.6157L61.6906 44.4726L59.897 42.679Z" fill="black"/>
<path d="M55.5472 42.6833L53.7539 44.4772L59.8981 50.6192L61.6913 48.8253L55.5472 42.6833Z" fill="black"/>
<path d="M14.2429 42.6924L8.09766 48.8334L9.89063 50.6276L16.0359 44.4867L14.2429 42.6924Z" fill="black"/>
<path d="M9.90235 42.691L8.10938 44.4852L14.2546 50.6262L16.0476 48.8319L9.90235 42.691Z" fill="black"/>
<path d="M48.4851 42.6924L42.3398 48.8334L44.1328 50.6276L50.278 44.4867L48.4851 42.6924Z" fill="black"/>
<path d="M44.1445 42.6909L42.3516 44.4852L48.4968 50.6261L50.2898 48.8319L44.1445 42.6909Z" fill="black"/>
<path d="M87.6219 73.7339C87.6219 70.1793 90.5114 67.2819 94.0659 67.2819C97.6204 67.2819 100.51 70.1714 100.51 73.7339V89.2186H106.819V73.7339C106.819 66.6882 101.112 60.9803 94.0659 60.9803C87.0202 60.9803 81.3203 66.6882 81.3203 73.7339V89.2186H87.6298V73.7339H87.6219Z" fill="white" stroke="#020202" stroke-width="2"/>
<path d="M78.1007 84.3024H110.044C112.3 84.3024 114.137 86.1391 114.137 88.3953V116.238C114.137 118.494 112.3 120.331 110.044 120.331H78.1007C75.8444 120.331 74.0078 118.494 74.0078 116.238V88.4032C74.0078 86.1391 75.8444 84.3103 78.1007 84.3103V84.3024Z" fill="#30F38A" stroke="#020202" stroke-width="2" stroke-linecap="round" stroke-linejoin="round"/>
<path d="M98.5431 96.9848C98.5431 94.5148 96.5402 92.5198 94.0782 92.5198C91.6162 92.5198 89.6133 94.5227 89.6133 96.9848C89.6133 98.861 90.7691 100.46 92.3999 101.125L89.922 107.569H98.2423L95.7565 101.125C97.3873 100.46 98.5431 98.861 98.5431 96.9848V96.9848Z" fill="white" stroke="#020202" stroke-width="2"/>
</svg>
