<svg width="39" height="37" viewBox="0 0 39 37" fill="none" xmlns="http://www.w3.org/2000/svg">
<g clip-path="url(#clip0_527_1498)">
<path d="M8.94922 35.26L19.0392 25.17L29.1292 35.26" stroke="#020202" stroke-width="2.5" stroke-linecap="round" stroke-linejoin="round"/>
<path d="M3.65738 3.65671C6.86764 0.446443 12.0861 0.446443 15.2964 3.65671L3.65738 15.2957C0.447115 12.0854 0.447115 6.86697 3.65738 3.65671Z" fill="#30F38A" stroke="#020202" stroke-width="2.5" stroke-linecap="round" stroke-linejoin="round"/>
<path d="M34.4109 15.2962L22.779 3.66425C25.9893 0.453981 31.2077 0.453981 34.418 3.66425C37.6282 6.87451 37.6282 12.093 34.418 15.3032L34.4109 15.2962Z" fill="#30F38A" stroke="#020202" stroke-width="2.5" stroke-linecap="round" stroke-linejoin="round"/>
<path d="M19.0393 34.3C27.4672 34.3 34.2993 27.4679 34.2993 19.04C34.2993 10.6122 27.4672 3.78003 19.0393 3.78003C10.6114 3.78003 3.7793 10.6122 3.7793 19.04C3.7793 27.4679 10.6114 34.3 19.0393 34.3Z" fill="white" stroke="#020202" stroke-width="2.5" stroke-linecap="round" stroke-linejoin="round"/>
<path d="M13.6992 19.04H19.0392V11.1" stroke="#020202" stroke-width="2.5" stroke-linecap="round" stroke-linejoin="round"/>
</g>
<defs>
<clipPath id="clip0_527_1498">
<rect width="38.08" height="36.51" fill="white"/>
</clipPath>
</defs>
</svg>
