<svg width="216" height="192" viewBox="0 0 216 192" fill="none" xmlns="http://www.w3.org/2000/svg">
<ellipse cx="108" cy="163.224" rx="108" ry="24.2243" fill="#F4F4F4"/>
<path d="M90.4082 2.73944H160.253C165.335 2.73944 169.458 6.88143 169.458 11.9877V152.399C169.458 157.505 165.335 161.647 160.253 161.647H90.4082C85.3258 161.647 81.2031 157.505 81.2031 152.399V11.9877C81.2031 6.88143 85.3258 2.73944 90.4082 2.73944Z" fill="white" stroke="#020202" stroke-width="2.5"/>
<path d="M116.496 20.3594H134.165" stroke="#020202" stroke-width="2.5"/>
<path d="M100.439 43.8306H35V70.129H100.439V43.8306Z" fill="white" stroke="#020202" stroke-width="2.5"/>
<path d="M201.306 87.6613H135.867V113.96H201.306V87.6613Z" fill="#FFE84A" stroke="#020202" stroke-width="2.5"/>
<path d="M198.82 42.428V58.8645" stroke="#020202" stroke-width="2.5"/>
<path d="M190.641 50.6463H207" stroke="#020202" stroke-width="2.5"/>
<path d="M116.16 153.245V168.882H102.444H63.716H50V153.245C50 137.071 64.7072 123.759 83.0916 123.759C101.395 123.759 116.053 136.954 116.182 153.031C116.167 153.1 116.16 153.172 116.16 153.245Z" fill="#00D695" stroke="#020202" stroke-width="2" stroke-linecap="round" stroke-linejoin="round"/>
<path d="M107.749 107.719C107.749 114.547 104.985 120.731 100.529 125.199C96.0723 129.667 89.905 132.438 83.0972 132.438C76.2895 132.438 70.1222 129.667 65.6659 125.199C61.2095 120.731 58.4453 114.547 58.4453 107.719C58.4453 100.891 61.2095 94.7062 65.6659 90.2383C70.1222 85.7704 76.2895 83 83.0972 83C89.905 83 96.0723 85.7704 100.529 90.2383C104.985 94.7062 107.749 100.891 107.749 107.719Z" fill="white" stroke="#020202" stroke-width="2" stroke-linecap="round" stroke-linejoin="round"/>
<path d="M74.1094 102.475V106.432" stroke="#020202" stroke-width="3" stroke-linecap="round" stroke-linejoin="round"/>
<path d="M92.0859 102.475V106.432" stroke="#020202" stroke-width="3" stroke-linecap="round" stroke-linejoin="round"/>
<path d="M90.2298 116.729C88.3992 118.564 85.8792 119.684 83.0739 119.684C80.2924 119.684 77.7486 118.54 75.918 116.729" fill="white"/>
<path d="M90.2298 116.729C88.3992 118.564 85.8792 119.684 83.0739 119.684C80.2924 119.684 77.7486 118.54 75.918 116.729" stroke="#020202" stroke-width="2" stroke-linecap="round" stroke-linejoin="round"/>
</svg>
