<svg width="216" height="184" viewBox="0 0 216 184" fill="none" xmlns="http://www.w3.org/2000/svg">
<ellipse cx="108" cy="159.224" rx="108" ry="24.2243" fill="#F4F4F4"/>
<path d="M151.355 62.9841H150.355V63.9841V78.9175L131.181 63.2105L130.904 62.9841H130.547H88.1193C85.3119 62.9841 83.0469 60.7028 83.0469 57.9064V6.0777C83.0469 3.26578 85.3275 1 88.1193 1H168.386C171.193 1 173.458 3.28133 173.458 6.0777V57.9064C173.458 60.7183 171.177 62.9841 168.386 62.9841H151.355Z" fill="white" stroke="#020202" stroke-width="2"/>
<path d="M111.379 23.8555H145.123" stroke="#020202" stroke-width="2"/>
<path d="M111.379 40.7424H145.123" stroke="#020202" stroke-width="2"/>
<path d="M75.2408 103.074C97.5647 103.074 115.482 119.221 115.482 138.896V157.99H98.6601H51.8018H35V138.896C35 119.221 52.917 103.074 75.2408 103.074Z" fill="#00D695" stroke="#020202" stroke-width="2" stroke-linecap="round" stroke-linejoin="round"/>
<path d="M54.0144 105.169L54.0131 105.168C48.5751 99.7251 45.207 92.2158 45.207 83.9C45.207 75.5842 48.5751 68.0749 54.0131 62.632C59.4515 57.189 66.9539 53.8186 75.2415 53.8186C83.5298 53.8186 91.0518 57.1895 96.4896 62.632C101.927 68.0737 105.276 75.5826 105.276 83.9C105.276 92.1958 101.908 99.725 96.4896 105.168C91.0516 110.611 83.5492 113.981 75.2415 113.981C66.9335 113.981 59.4319 110.611 54.0144 105.169Z" fill="white" stroke="#020202" stroke-width="2" stroke-linecap="round" stroke-linejoin="round"/>
<path d="M64.3633 77.5847V82.336" stroke="#020202" stroke-width="3" stroke-linecap="round" stroke-linejoin="round"/>
<path d="M86.1016 77.5847V82.336" stroke="#020202" stroke-width="3" stroke-linecap="round" stroke-linejoin="round"/>
<path d="M83.8852 94.7884C81.6698 97.0057 78.6238 98.3717 75.2414 98.3717C71.8789 98.3717 68.813 97.0057 66.5977 94.7884" fill="white"/>
<path d="M83.8852 94.7884C81.6698 97.0057 78.6238 98.3717 75.2414 98.3717C71.8789 98.3717 68.813 97.0057 66.5977 94.7884" stroke="#020202" stroke-width="2" stroke-linecap="round" stroke-linejoin="round"/>
<path d="M166.054 144.172H139.311C139.5 144.051 139.692 143.924 139.886 143.791C142.291 142.137 145.058 139.445 146.283 135.363L146.435 134.854L146.1 134.443C142.363 129.864 140.134 124.047 140.134 117.694C140.134 103.416 151.433 91.7798 165.568 91.2536V91.2548H166.568C181.166 91.2548 193.003 103.1 193.003 117.713C193.003 132.326 181.166 144.172 166.568 144.172H166.567H166.566H166.565H166.565H166.564H166.563H166.562H166.561H166.56H166.559H166.558H166.557H166.556H166.555H166.554H166.553H166.552H166.552H166.551H166.55H166.549H166.548H166.547H166.546H166.545H166.544H166.543H166.542H166.541H166.54H166.539H166.538H166.537H166.537H166.536H166.535H166.534H166.533H166.532H166.531H166.53H166.529H166.528H166.527H166.526H166.525H166.524H166.523H166.522H166.521H166.52H166.519H166.519H166.518H166.517H166.516H166.515H166.514H166.513H166.512H166.511H166.51H166.509H166.508H166.507H166.506H166.505H166.504H166.503H166.502H166.501H166.5H166.499H166.498H166.498H166.497H166.496H166.495H166.494H166.493H166.492H166.491H166.49H166.489H166.488H166.487H166.486H166.485H166.484H166.483H166.482H166.481H166.48H166.479H166.478H166.477H166.476H166.475H166.474H166.473H166.472H166.472H166.471H166.47H166.469H166.468H166.467H166.466H166.465H166.464H166.463H166.462H166.461H166.46H166.459H166.458H166.457H166.456H166.455H166.454H166.453H166.452H166.451H166.45H166.449H166.448H166.447H166.446H166.445H166.444H166.443H166.442H166.441H166.44H166.439H166.438H166.437H166.436H166.435H166.434H166.433H166.432H166.431H166.431H166.43H166.429H166.428H166.427H166.426H166.425H166.424H166.423H166.422H166.421H166.42H166.419H166.418H166.417H166.416H166.415H166.414H166.413H166.412H166.411H166.41H166.409H166.408H166.407H166.406H166.405H166.404H166.403H166.402H166.401H166.4H166.399H166.398H166.397H166.396H166.395H166.394H166.393H166.392H166.391H166.39H166.389H166.388H166.387H166.386H166.385H166.384H166.383H166.382H166.381H166.38H166.379H166.378H166.377H166.376H166.375H166.374H166.373H166.372H166.371H166.37H166.369H166.368H166.367H166.366H166.365H166.364H166.363H166.362H166.361H166.36H166.359H166.358H166.357H166.356H166.355H166.354H166.353H166.352H166.351H166.35H166.349H166.348H166.347H166.346H166.345H166.344H166.343H166.342H166.341H166.34H166.339H166.338H166.337H166.336H166.335H166.334H166.333H166.332H166.331H166.33H166.329H166.328H166.327H166.326H166.325H166.324H166.323H166.322H166.321H166.32H166.319H166.318H166.317H166.316H166.315H166.313H166.312H166.311H166.31H166.309H166.308H166.307H166.306H166.305H166.304H166.303H166.302H166.301H166.3H166.299H166.298H166.297H166.296H166.295H166.294H166.293H166.292H166.291H166.29H166.289H166.288H166.287H166.286H166.285H166.284H166.283H166.282H166.281H166.28H166.279H166.278H166.277H166.276H166.275H166.274H166.273H166.272H166.271H166.27H166.269H166.268H166.267H166.266H166.265H166.263H166.262H166.261H166.26H166.259H166.258H166.257H166.256H166.255H166.254H166.253H166.252H166.251H166.25H166.249H166.248H166.247H166.246H166.245H166.244H166.243H166.242H166.241H166.24H166.239H166.238H166.237H166.236H166.235H166.234H166.233H166.232H166.231H166.23H166.229H166.228H166.226H166.225H166.224H166.223H166.222H166.221H166.22H166.219H166.218H166.217H166.216H166.215H166.214H166.213H166.212H166.211H166.21H166.209H166.208H166.207H166.206H166.205H166.204H166.203H166.202H166.201H166.2H166.199H166.198H166.197H166.195H166.194H166.193H166.192H166.191H166.19H166.189H166.188H166.187H166.186H166.185H166.184H166.183H166.182H166.181H166.18H166.179H166.178H166.177H166.176H166.175H166.174H166.173H166.172H166.171H166.17H166.169H166.168H166.166H166.165H166.164H166.163H166.162H166.161H166.16H166.159H166.158H166.157H166.156H166.155H166.154H166.153H166.152H166.151H166.15H166.149H166.148H166.147H166.146H166.145H166.144H166.143H166.142H166.14H166.139H166.138H166.137H166.136H166.135H166.134H166.133H166.132H166.131H166.13H166.129H166.128H166.127H166.126H166.125H166.124H166.123H166.122H166.121H166.12H166.119H166.118H166.117H166.116H166.114H166.113H166.112H166.111H166.11H166.109H166.108H166.107H166.106H166.105H166.104H166.103H166.102H166.101H166.1H166.099H166.098H166.097H166.096H166.095H166.094H166.093H166.092H166.091H166.089H166.088H166.087H166.086H166.085H166.084H166.083H166.082H166.081H166.08H166.079H166.078H166.077H166.076H166.075H166.074H166.073H166.072H166.071H166.07H166.069H166.068H166.067H166.065H166.064H166.063H166.062H166.061H166.06H166.059H166.058H166.057H166.056H166.055H166.054Z" fill="#FFE84A" stroke="#020202" stroke-width="2"/>
<path d="M155.312 108.923H179.147" stroke="#020202" stroke-width="2"/>
<path d="M155.312 119H179.147" stroke="#020202" stroke-width="2"/>
<path d="M155.312 129.057H179.147" stroke="#020202" stroke-width="2"/>
<path d="M51.0312 22.0143V36.8621" stroke="#020202" stroke-width="2"/>
<path d="M43.6172 29.4382H58.452" stroke="#020202" stroke-width="2"/>
<path d="M128.164 81.3857V96.2335" stroke="#020202" stroke-width="2"/>
<path d="M120.75 88.8097H135.585" stroke="#020202" stroke-width="2"/>
</svg>
