<svg width="224" height="218" viewBox="0 0 224 218" fill="none" xmlns="http://www.w3.org/2000/svg">
<ellipse cx="116" cy="193.224" rx="108" ry="24.2243" fill="#F4F4F4"/>
<path d="M40.875 59.2009C40.875 48.2359 52.1129 39 66.501 39H159.723V191.652H40.875V59.2009Z" fill="white" stroke="#020202" stroke-width="2"/>
<path d="M174.978 173.589L174.258 174.218L189.798 192H145V59.2486C145 53.565 146.677 48.4645 149.342 44.8093C152.006 41.1535 155.606 39 159.491 39C163.377 39 166.984 41.154 169.656 44.8103C172.327 48.4657 174.011 53.566 174.011 59.2486V170.897V173.56V173.589H174.978Z" fill="#DCDCDC" stroke="#020202" stroke-width="2"/>
<path d="M174 171.666V143H208V171.666C208 183.071 200.248 192 191 192C181.752 192 174 183.071 174 171.666Z" fill="#00D695" stroke="#020202" stroke-width="2"/>
<path d="M73.3726 73.3539H52.3867V92.005H73.3726V73.3539Z" fill="#37C69B"/>
<path d="M73.3726 106.445H52.3867V125.096H73.3726V106.445Z" fill="#EFEFEF"/>
<path d="M73.3726 143.145H52.3867V161.796H73.3726V143.145Z" fill="#EFEFEF"/>
<path d="M119.381 76.2189H84.6523V79.0839H119.381V76.2189Z" fill="#020202"/>
<path d="M119.381 87.1918H84.6523V90.0568H119.381V87.1918Z" fill="#020202"/>
<path d="M102.031 112.031H84.6523V114.896H102.031V112.031Z" fill="#020202"/>
<path d="M119.383 112.031H107.301V114.896H119.383V112.031Z" fill="#020202"/>
<path d="M102.031 153.631H84.6523V156.496H102.031V153.631Z" fill="#020202"/>
<path d="M119.383 153.631H107.301V156.496H119.383V153.631Z" fill="#020202"/>
<path d="M119.381 101.488H84.6523V104.353H119.381V101.488Z" fill="#020202"/>
<path d="M119.381 123.004H84.6523V125.869H119.381V123.004Z" fill="#020202"/>
<path d="M119.381 142.515H84.6523V145.38H119.381V142.515Z" fill="#020202"/>
<path d="M119.381 164.604H84.6523V167.469H119.381V164.604Z" fill="#020202"/>
<path d="M60.7265 124.437C60.7265 140.932 47.3452 154.321 30.8633 154.321C14.3813 154.321 1 140.932 1 124.437C1 107.942 14.3813 94.5521 30.8633 94.5521C47.3453 94.5521 60.7265 107.942 60.7265 124.437Z" fill="#FFE84A" stroke="#020202" stroke-width="2"/>
<path d="M28.8235 137.705L29.5587 138.414L30.2521 137.664L47.8883 118.583L48.5683 117.847L47.8313 117.169L43.1646 112.871L42.4307 112.196L41.7532 112.928L29.2187 126.476L19.5035 117.127L18.7804 116.431L18.0871 117.156L13.7067 121.74L13.0191 122.46L13.7354 123.151L28.8235 137.705Z" fill="white" stroke="#020202" stroke-width="2"/>
<g style="mix-blend-mode:multiply">
<path d="M175 68L77.292 170.925C77.292 170.925 66.7822 183.216 70.9973 192H116.493L173.876 134.734L175 68Z" fill="#EBEBEC"/>
</g>
<path d="M84.3301 186.186C83.9848 185.841 83.9645 185.264 84.3378 184.871L90.686 178.518C91.0398 178.164 91.6087 178.164 91.9625 178.518C92.3076 178.863 92.3281 179.439 91.9554 179.833L85.5796 186.185L85.455 186.309C85.1053 186.534 84.6368 186.493 84.3301 186.186Z" fill="#00BC84" stroke="#020202" stroke-width="2"/>
<path d="M187.186 82.9709C190.546 86.3335 190.546 91.8032 187.186 95.1658L177.615 104.743L165.429 92.5493L175.001 82.9709C178.361 79.6086 183.826 79.6086 187.186 82.9709Z" fill="#FFEAB7" stroke="#020202" stroke-width="2"/>
<path d="M110.51 172.266L98.1364 159.884L165.68 92.2938L178.054 104.676L110.51 172.266Z" fill="#FAFAFA" stroke="#020202" stroke-width="2"/>
<path d="M150.288 141.833C150.091 142.03 149.343 142.194 148.582 141.432C147.81 140.66 147.963 139.941 148.181 139.723L183.711 104.169C183.908 103.972 184.656 103.808 185.417 104.57C186.178 105.331 186.015 106.081 185.818 106.279L186.525 106.986L185.818 106.279L150.288 141.833Z" fill="white" stroke="#020202" stroke-width="2"/>
<path d="M180.274 104.001L181.572 105.233L174.107 112.728L172.844 111.437L180.274 104.001Z" fill="white" stroke="#020202" stroke-width="2"/>
<path d="M92.9789 164.938L100.273 157.448L112.604 170.109L105.261 177.649C105.261 177.649 105.26 177.649 105.26 177.65C101.843 181.131 95.2353 183.008 89.3293 181.443C88.854 178.501 88.891 175.34 89.455 172.461C90.0603 169.372 91.254 166.696 92.9763 164.941L92.9789 164.938Z" fill="#DCDCDC" stroke="#020202" stroke-width="2"/>
<path d="M100.186 158L105.5 163.5C105.5 163.5 93.3935 167.212 89.4998 178.5C89.4998 178.5 89 169.5 93.6874 164.561L100.186 158Z" fill="white"/>
<path d="M198.334 25V38.3333" stroke="#020202" stroke-width="2"/>
<path d="M191.668 31.6667H205.001" stroke="#020202" stroke-width="2"/>
<path d="M191.822 16.8223C190.513 18.1314 189.68 19.8539 188.998 22.1638C188.314 19.854 187.482 18.1315 186.174 16.8225C184.866 15.5134 183.144 14.6809 180.835 13.9985C183.145 13.3149 184.868 12.4828 186.177 11.1746C187.486 9.86619 188.319 8.14484 189.001 5.8356C189.685 8.14477 190.517 9.86607 191.825 11.1743C193.133 12.4825 194.854 13.3147 197.163 13.9983C194.853 14.6807 193.131 15.5131 191.822 16.8223Z" fill="white" stroke="#020202" stroke-width="2" stroke-linecap="round" stroke-linejoin="round"/>
</svg>
