<svg width="216" height="181" viewBox="0 0 216 181" fill="none" xmlns="http://www.w3.org/2000/svg">
<ellipse cx="108" cy="156.224" rx="108" ry="24.2243" fill="#F4F4F4"/>
<path d="M196.29 131.043C196.29 135.49 192.675 139.1 188.211 139.1C183.747 139.1 180.133 135.49 180.133 131.043C180.133 126.596 183.747 122.987 188.211 122.987C192.675 122.987 196.29 126.596 196.29 131.043Z" fill="#FFE84A" stroke="#020202" stroke-width="2"/>
<path d="M24.6055 16.4696V31.6424" stroke="#020202" stroke-width="2"/>
<path d="M17 24.056H32.2103" stroke="#020202" stroke-width="2"/>
<path d="M58.9395 38.0786L58.9401 38.078C71.3048 25.7438 88.4739 18.0964 107.331 18.0964C145.132 18.0964 175.753 48.645 175.753 86.3465V86.3477C175.774 105.12 168.116 122.217 155.792 134.524C155.744 134.558 155.699 134.595 155.658 134.637C143.336 146.928 126.167 154.575 107.353 154.575H107.331C69.5307 154.575 38.9102 124.026 38.9102 86.3249C38.9102 67.516 46.5755 50.3908 58.9395 38.0786ZM155.723 134.593C155.723 134.593 155.723 134.593 155.723 134.593L155.723 134.593ZM155.916 134.45L155.917 134.45L155.916 134.45ZM155.024 86.3465L155.024 86.3449C154.98 60.0713 133.666 38.8133 107.333 38.7691L107.331 39.7691V38.7691C98.3269 38.7691 89.9597 41.2416 82.8104 45.5251C82.5459 45.6835 82.3693 45.9551 82.3318 46.261C82.2942 46.567 82.3998 46.8732 82.6181 47.0909L146.688 111.002C146.905 111.22 147.211 111.325 147.517 111.287C147.822 111.249 148.093 111.073 148.251 110.809C152.545 103.656 155.024 95.3092 155.024 86.3465ZM107.33 133.946H107.331C116.313 133.946 124.681 131.495 131.853 127.189C132.117 127.031 132.294 126.759 132.331 126.453C132.369 126.147 132.263 125.841 132.045 125.624L67.9753 61.7123C67.7574 61.495 67.4517 61.39 67.1463 61.4278C66.841 61.4655 66.57 61.6418 66.4116 61.9056C62.1182 69.0584 59.6389 77.4055 59.6389 86.3681L59.6389 86.3698C59.6832 112.643 80.9973 133.901 107.33 133.946Z" fill="#00D695" stroke="#020202" stroke-width="2" stroke-linecap="round" stroke-linejoin="round"/>
<path d="M137.301 1H195.34V74.2371H137.301V1Z" fill="white" stroke="#020202" stroke-width="2"/>
<path d="M152.465 17.6583H178.617" stroke="#020202" stroke-width="2"/>
<path d="M152.465 33.7821H178.617" stroke="#020202" stroke-width="2"/>
<path d="M152.465 49.9059H178.617" stroke="#020202" stroke-width="2"/>
</svg>
