<svg width="146" height="154" viewBox="0 0 146 154" fill="none" xmlns="http://www.w3.org/2000/svg">
<path d="M72.2748 34.4038V41.1194H143.143V34.4038C143.143 24.8033 135.45 17.0167 125.96 17.0167H59.5329C58.7808 17.0167 58.049 17.0859 57.3223 17.1858C65.7544 18.2927 72.2723 25.5719 72.2723 34.4064L72.2748 34.4038Z" fill="#45FA98" stroke="#020202" stroke-width="2"/>
<path d="M128.514 17.0167H51.6801C42.1895 17.0167 34.4967 24.8033 34.4967 34.4038L34.7777 125.524C34.7777 135.124 27.0824 142.908 17.5918 142.908H94.4259C103.917 142.908 111.612 135.124 111.612 125.524L111.328 34.4038C111.328 24.8033 119.024 17.0167 128.514 17.0167Z" fill="white" stroke="#020202" stroke-width="2"/>
<path d="M72.3474 125.526V118.808H1.47656V125.526C1.47656 135.127 9.17188 142.911 18.6625 142.911H85.0818C85.8364 142.911 86.5707 142.844 87.2949 142.747C78.8627 141.637 72.3474 134.358 72.3474 125.526Z" fill="white" stroke="#020202" stroke-width="2"/>
<path d="M54.2949 52.2297H91.5445" stroke="#020202" stroke-width="2"/>
<path d="M54.2949 64.196H91.5445" stroke="#020202" stroke-width="2"/>
<path d="M54.2949 75.705H91.5445" stroke="#020202" stroke-width="2"/>
<path d="M34 5C34 7.20874 32.2087 9 30 9C27.7913 9 26 7.20874 26 5C26 2.79126 27.7913 1 30 1C32.2087 1 34 2.79126 34 5Z" fill="#F7E538" stroke="#020202" stroke-width="2"/>
<g clip-path="url(#clip0_537_620)">
<path d="M16.7552 17.8795C11.0363 19.0669 10.0669 20.0363 8.87955 25.7551C7.68645 20.0363 6.72278 19.0669 1.00391 17.8795C6.72278 16.6864 7.69218 15.7227 8.87955 10.0038C10.0727 15.7227 11.0363 16.6864 16.7552 17.8795Z" fill="white" stroke="#020202" stroke-width="2" stroke-linecap="round" stroke-linejoin="round"/>
</g>
<path d="M17.7578 26V37.8393" stroke="#020202" stroke-width="2"/>
<path d="M11.8379 31.9196H23.6772" stroke="#020202" stroke-width="2"/>
<path d="M119.47 121.744L114.205 127.008L119.691 132.494L124.956 127.229L119.47 121.744Z" fill="white" stroke="#231F20" stroke-width="2" stroke-miterlimit="10"/>
<path d="M116.228 93.1596C124.877 101.807 124.877 115.82 116.228 124.467C107.579 133.115 93.564 133.115 84.9152 124.467C76.2757 115.82 76.2757 101.807 84.9152 93.1596C93.564 84.5122 107.579 84.5122 116.228 93.1596Z" fill="white" stroke="#020202" stroke-width="2" stroke-miterlimit="10"/>
<path d="M94.3326 123.139C92.5187 122.392 90.8245 121.282 89.3512 119.789C83.4767 113.835 83.4767 104.175 89.3512 98.2211C91.1007 96.4572 93.1632 95.2066 95.3639 94.488" stroke="#020202" stroke-width="2" stroke-miterlimit="10"/>
<path d="M126.619 125.57L117.936 134.254L135.472 151.79L144.155 143.107L126.619 125.57Z" fill="#FCE435" stroke="#231F20" stroke-width="2" stroke-miterlimit="10"/>
<defs>
<clipPath id="clip0_537_620">
<rect width="17.7589" height="17.7589" fill="white" transform="translate(0 9)"/>
</clipPath>
</defs>
</svg>
