<svg width="216" height="172" viewBox="0 0 216 172" fill="none" xmlns="http://www.w3.org/2000/svg">
<ellipse cx="108" cy="147.224" rx="108" ry="24.2243" fill="#F4F4F4"/>
<path d="M55.7188 114.887L71.2453 99.3838H102.007V157H55.7188V114.887Z" fill="white" stroke="#020202" stroke-width="2" stroke-linecap="round" stroke-linejoin="round"/>
<path d="M71.2453 114.887H55.7188L71.2453 99.3838V114.887Z" fill="white" stroke="#020202" stroke-width="2" stroke-linecap="round" stroke-linejoin="round"/>
<path d="M79.5469 114.887L95.0734 99.3838H125.817V157H79.5469V114.887Z" fill="white" stroke="#020202" stroke-width="2" stroke-linecap="round" stroke-linejoin="round"/>
<path d="M95.0734 114.887H79.5469L95.0734 99.3838V114.887Z" fill="white" stroke="#020202" stroke-width="2" stroke-linecap="round" stroke-linejoin="round"/>
<path d="M54.8242 66.0682V79.6998" stroke="#020202" stroke-width="2"/>
<path d="M48 72.884H61.6517" stroke="#020202" stroke-width="2"/>
<path d="M138.191 56.217C134.551 52.5819 128.672 52.5819 125.031 56.217C121.391 59.8521 121.391 65.7228 125.031 69.3579L144.508 88.8056L157.668 75.6648L138.191 56.217Z" fill="white" stroke="#020202" stroke-width="2"/>
<path d="M144.508 88.8056L170.974 115.233C174.614 118.868 180.494 118.868 184.134 115.233C187.775 111.598 187.775 105.727 184.134 102.092L157.668 75.6647L144.508 88.8056V88.8056Z" fill="#00D695" stroke="#020202" stroke-width="2" stroke-linecap="round" stroke-linejoin="round"/>
<path d="M140.89 13.2866C157.144 29.4991 157.126 55.799 140.89 72.0297C124.635 88.2422 98.3147 88.2422 82.0601 72.0297C65.8237 55.799 65.8237 29.4991 82.0601 13.2866C98.3147 -2.92593 124.653 -2.92593 140.89 13.2866Z" fill="#00D695" stroke="#020202" stroke-width="2" stroke-linecap="round" stroke-linejoin="round"/>
<path d="M133.102 21.0656C145.043 32.9887 145.043 52.3274 133.102 64.2505C121.162 76.1736 101.795 76.1736 89.8539 64.2505C77.9133 52.3274 77.9133 32.9887 89.8539 21.0656C101.795 9.14252 121.162 9.14252 133.102 21.0656V21.0656Z" fill="white" stroke="#020202" stroke-width="2" stroke-linecap="round" stroke-linejoin="round"/>
<path d="M91.1602 42.6581C91.1602 37.4599 93.1442 32.2618 97.1123 28.2995C101.08 24.3373 106.286 22.3561 111.474 22.3561" stroke="#020202" stroke-width="2" stroke-linecap="round" stroke-linejoin="round"/>
<path d="M101.531 131.191V144.822" stroke="#020202" stroke-width="2"/>
<path d="M94.707 138.007H108.359" stroke="#020202" stroke-width="2"/>
<path d="M114 138H147" stroke="#020202" stroke-width="2"/>
<path d="M172.815 23.5012C172.815 35.9332 162.731 46.0024 150.28 46.0024C137.83 46.0024 127.746 35.9332 127.746 23.5012C127.746 11.0692 137.83 1 150.28 1C162.731 1 172.815 11.0692 172.815 23.5012Z" fill="#FFE84A" stroke="#020202" stroke-width="2"/>
<path d="M158.744 23.5012H141.816" stroke="#020202" stroke-width="2"/>
<path d="M150.277 15.0497V31.971" stroke="#020202" stroke-width="2"/>
<path d="M150.277 15.0497V31.971" stroke="#020202" stroke-width="2"/>
<path d="M150.277 15.0497V31.971" stroke="#020202" stroke-width="2"/>
</svg>
