<svg width="58" height="58" viewBox="0 0 58 58" fill="none" xmlns="http://www.w3.org/2000/svg">
<circle cx="29" cy="29" r="29" fill="#FAFAFA"/>
<g style="mix-blend-mode:multiply" clip-path="url(#clip0_395_502)">
<path d="M17.3169 33.8296C17.0479 35.2512 17.8003 35.7071 19.1083 35.7071C20.0345 35.7071 21.0735 35.3676 21.2829 34.4718C21.5328 33.4068 19.8936 33.2045 18.3052 32.7119C16.7346 32.2229 15.1487 31.4447 15.6676 29.2289C16.2867 26.5915 19.1235 25.5584 21.3399 25.5584C23.6883 25.5584 25.7791 26.7251 25.1562 29.4507H22.0821C22.3892 28.3514 21.463 27.9947 20.5216 27.9947C19.8594 27.9947 18.9776 28.2301 18.7924 29.0267C18.5729 29.9568 20.2362 30.126 21.8398 30.6174C23.4295 31.1064 24.9557 31.9177 24.4457 34.0992C23.7264 37.1581 20.9505 38.141 18.356 38.141C15.7615 38.141 13.5324 36.9241 14.2403 33.8283H17.3169V33.8296Z" fill="#005DA1"/>
<path d="M38.5914 25.8133H41.6655L38.8325 37.8886H35.7559L38.5914 25.8133Z" fill="#005DA1"/>
<path d="M27.3864 25.8133H32.9065C34.9491 25.7814 37.0539 26.3206 36.4627 28.8404C36.209 29.9225 35.3742 30.8037 34.3376 31.2755C35.5074 31.6481 36.0225 32.7658 35.7015 34.1347C35.0265 37.0111 32.7543 37.8886 30.2245 37.8886H24.5547L27.3877 25.8133H27.3864ZM29.3453 30.5659H31.7254C32.2544 30.5659 33.0499 30.2779 33.2504 29.4151C33.4597 28.5364 32.9142 28.2472 32.2697 28.2472H29.8883L29.3453 30.5659ZM28.2174 35.3676H30.6812C31.6569 35.3676 32.4168 35.011 32.6515 34.0158C32.9027 32.9508 32.257 32.5954 31.3308 32.5954H28.867L28.2162 35.3688L28.2174 35.3676Z" fill="#005DA1"/>
<path d="M45.9619 20.9623C44.2618 16.603 34.536 16.1042 24.2417 19.8495C16.8985 22.5224 11.2515 26.6304 9.23047 30.3524C12.0241 27.5324 16.5356 24.7639 21.9809 22.781C32.2764 19.0345 42.001 19.5333 43.701 23.895C44.1908 25.1451 43.9624 26.5777 43.1504 28.0753C45.6383 25.5654 46.7624 23.0175 45.9619 20.9635" fill="#EE303B"/>
</g>
<defs>
<clipPath id="clip0_395_502">
<rect width="36.9864" height="20.8049" fill="white" transform="translate(9.23047 17.3374)"/>
</clipPath>
</defs>
</svg>
