<svg width="58" height="58" viewBox="0 0 58 58" fill="none" xmlns="http://www.w3.org/2000/svg">
<circle cx="28.8956" cy="28.8956" r="28.8956" fill="#FAFAFA"/>
<path d="M40.6153 36.2361H39.2602V34.2935H38.4609V39.4227H41.4199V34.2935H40.6153V36.2361ZM40.6153 38.7345H39.2602V36.9243H40.6153V38.7345Z" fill="#154194"/>
<path d="M42.8813 34.2035H42.082V40.8201H42.8813V34.2035Z" fill="#154194"/>
<path d="M48.4179 39.2215H43.4316V39.9361H48.4179V39.2215Z" fill="#154194"/>
<path d="M45.9087 36.3049C46.3903 37.3583 47.7719 37.9352 47.7719 37.9352L48.1689 37.3106C46.4168 36.5061 46.3903 35.0292 46.3903 34.5158V34.3835H45.4323V34.5158C45.4323 35.0292 45.4058 36.5114 43.6484 37.3106L44.0454 37.9352C44.0454 37.9352 45.427 37.353 45.9034 36.3049H45.9087Z" fill="#154194"/>
<path d="M36.8148 34.2035V36.2096H35.9785V36.9031H36.8148V40.8201H37.6406V34.2035H36.8148Z" fill="#154194"/>
<path d="M35.296 37.39C35.0102 36.5378 35.0472 35.4686 35.0472 35.1298V34.3252H34.2162V35.1298C34.2162 35.4686 34.2585 36.5325 33.9727 37.39C33.7662 38.004 33.3269 38.671 32.7129 39.1209L33.274 39.6661C33.274 39.6661 34.195 38.9304 34.6343 37.7447C35.0737 38.9304 35.9947 39.6661 35.9947 39.6661L36.5558 39.1209C35.9418 38.671 35.5024 38.004 35.3013 37.39H35.296Z" fill="#154194"/>
<path d="M30.5545 36.6226H27.8867V37.3425H30.5545V36.6226Z" fill="#154194"/>
<path d="M30.5545 34.3994H27.8867V35.0399H30.5545V34.3994Z" fill="#154194"/>
<path d="M30.5538 34.6111H29.7598V36.919H30.5538V34.6111Z" fill="#154194"/>
<path d="M30.2635 36.6226H27.5957V37.3425H30.2635V36.6226Z" fill="#154194"/>
<path d="M30.2635 34.3994H27.5957V35.0399H30.2635V34.3994Z" fill="#154194"/>
<path d="M28.3897 34.6111H27.5957V36.919H28.3897V34.6111Z" fill="#154194"/>
<path d="M31.4005 34.2088V34.8652H30.7441V35.5374H31.4164V36.0826H30.7441V36.7549H31.4164V37.6865H32.2315V34.2088H31.4005Z" fill="#154194"/>
<path d="M14.2246 34.2088V37.6865H15.0768V36.2891H15.802V35.5798H15.0768V34.2088H14.2246Z" fill="#154194"/>
<path d="M11.0586 40.8201V37.9723H15.0762V40.8201H11.0586ZM14.2557 40.1267V38.6658H11.879V40.1267H14.2557Z" fill="#154194"/>
<path d="M20.8676 34.2088V37.6865H20.026V36.2891H18.9355V35.5798H20.0154V34.2088H20.8676Z" fill="#154194"/>
<path d="M18.7656 41.0001C17.5322 41.0001 16.5371 40.2802 16.5371 39.3856C16.5371 38.4911 17.5322 37.7765 18.7656 37.7765C19.9989 37.7765 20.994 38.4964 20.994 39.3856C20.994 40.2749 19.9989 41.0001 18.7656 41.0001ZM20.1524 39.3856C20.1524 38.8881 19.5331 38.4858 18.7656 38.4858C17.998 38.4858 17.3787 38.8934 17.3787 39.3856C17.3787 39.8779 17.998 40.2855 18.7656 40.2855C19.5331 40.2855 20.1524 39.8832 20.1524 39.3856Z" fill="#154194"/>
<path d="M12.2073 34.3306C12.2073 34.3306 12.0961 36.215 13.6206 36.9931L13.1812 37.5965C13.1812 37.5965 12.0644 36.8607 11.8103 36.0562C11.5562 36.8607 10.4393 37.5965 10.4393 37.5965L10 36.9931C11.5245 36.2097 11.4133 34.3306 11.4133 34.3306H12.202H12.2073Z" fill="#154194"/>
<path d="M17.4943 36.0562C17.2402 36.8607 16.2186 37.5383 16.2186 37.5383L15.7793 36.9296C17.2085 36.215 17.0973 34.3306 17.0973 34.3306H17.886C17.886 34.3306 17.7749 36.215 19.2093 36.9296L18.77 37.5383C18.77 37.5383 17.7484 36.8607 17.4943 36.0562Z" fill="#154194"/>
<path d="M24.4335 41.0001C23.2055 41.0001 22.2051 40.2802 22.2051 39.3856C22.2051 38.4911 23.2055 37.7765 24.4335 37.7765C25.6616 37.7765 26.662 38.4964 26.662 39.3856C26.662 40.2749 25.6669 41.0001 24.4335 41.0001ZM25.8204 39.3856C25.8204 38.8881 25.2011 38.4858 24.4335 38.4858C23.666 38.4858 23.052 38.8934 23.052 39.3856C23.052 39.8779 23.6713 40.2855 24.4335 40.2855C25.1958 40.2855 25.8204 39.8832 25.8204 39.3856Z" fill="#154194"/>
<path d="M26.5522 34.2088V37.6865H25.7741V36.2891H25.0859V35.5798H25.7582V34.2088H26.5522Z" fill="#154194"/>
<path d="M24.8164 34.2088V37.6865H25.568V36.2891H26.1027V35.5798H25.5786V34.2088H24.8164Z" fill="#154194"/>
<path d="M22.9573 36.0562C22.7138 36.8607 21.7346 37.5383 21.7346 37.5383L21.3164 36.9296C22.6874 36.215 22.5762 34.3306 22.5762 34.3306H23.3331C23.3331 34.3306 23.2273 36.215 24.5982 36.9296L24.1801 37.5383C24.1801 37.5383 23.2008 36.8607 22.9573 36.0562Z" fill="#154194"/>
<path d="M30.1152 41.0001C28.8819 41.0001 27.8867 40.2802 27.8867 39.3856C27.8867 38.4911 28.8819 37.7765 30.1152 37.7765C31.3485 37.7765 32.3436 38.4964 32.3436 39.3856C32.3436 40.2749 31.3485 41.0001 30.1152 41.0001ZM31.502 39.3856C31.502 38.8881 30.8827 38.4858 30.1152 38.4858C29.3477 38.4858 28.7283 38.8934 28.7283 39.3856C28.7283 39.8779 29.3477 40.2855 30.1152 40.2855C30.8827 40.2855 31.502 39.8832 31.502 39.3856Z" fill="#154194"/>
<path d="M45 19.6222C44.5623 17.0332 37.0523 16.2248 28.2239 17.8143C24.5164 18.4806 21.1727 19.4693 18.5622 20.5781C18.963 20.589 19.2583 20.6819 19.4429 20.8676C19.5853 21.0151 19.6539 21.2172 19.6539 21.463V21.7197H18.789V21.4957C18.789 21.31 18.6782 21.1899 18.4831 21.1899C18.3196 21.1899 18.2194 21.2663 18.1877 21.4138C18.1825 21.4575 18.1772 21.5285 18.1877 21.594C18.2827 21.9873 19.5642 22.2277 19.7066 22.9541C19.7277 23.047 19.7488 23.2436 19.7066 23.5331C19.6275 24.1175 19.1318 24.3415 18.4989 24.3415C17.6182 24.3415 17.2595 23.91 17.2595 23.3146V23.036H18.1877V23.3856C18.1877 23.5823 18.3301 23.6915 18.5147 23.6915C18.694 23.6915 18.7995 23.615 18.8364 23.4621C18.8522 23.3911 18.8575 23.2873 18.8311 23.2108C18.6571 22.7629 17.4599 22.5554 17.3123 21.8344C17.2806 21.6705 17.2754 21.534 17.3017 21.3592C17.3176 21.2663 17.3439 21.1844 17.3808 21.1079C14.4908 22.5062 12.7979 24.0465 13.0194 25.3793C13.4571 27.9683 20.9618 28.7767 29.7902 27.1818C33.6718 26.4826 37.1578 25.4339 39.8105 24.2596C39.7736 24.2596 39.7367 24.265 39.6945 24.265C39.088 24.265 38.5501 24.0302 38.4973 23.3911C38.4868 23.2764 38.4868 23.2272 38.4815 23.1617V21.6869C38.4815 21.6268 38.4921 21.5121 38.4973 21.4575C38.5712 20.8403 39.0405 20.5836 39.6945 20.5836C40.2008 20.5836 40.8178 20.731 40.8917 21.4575C40.9022 21.5449 40.9022 21.6432 40.9022 21.676V21.818H40.0268V21.6104C40.0268 21.6104 40.0268 21.5285 40.0162 21.4793C40.0004 21.4029 39.9424 21.2335 39.6892 21.2335C39.4361 21.2335 39.3781 21.4029 39.3623 21.4793C39.357 21.523 39.3517 21.5777 39.3517 21.6432V23.2436C39.3517 23.2982 39.3517 23.3419 39.357 23.3747C39.357 23.3965 39.4044 23.6205 39.6892 23.6205C39.974 23.6205 40.0162 23.402 40.0215 23.3747C40.0268 23.331 40.032 23.2764 40.0268 23.2436V22.7466H39.684V22.2113H40.9022V23.1617C40.9022 23.2272 40.9022 23.2709 40.8917 23.3911C40.8758 23.5604 40.8231 23.7024 40.744 23.8226C43.5602 22.4407 45.2004 20.9222 44.9789 19.6113L45 19.6222ZM22.1062 24.2104L21.6632 21.0915H21.6474L21.1938 24.2104H20.2604L20.8879 20.6928H22.4121L23.0344 24.2104H22.1062ZM26.5995 24.2104L26.5784 21.1516H26.5626L26.0141 24.2104H25.1387L24.5902 21.1516H24.5744L24.5533 24.2104H23.6831L23.7569 20.6928H25.1545L25.5606 23.3092H25.5817L25.9878 20.6928H27.3853L27.4592 24.2104H26.5943H26.5995ZM30.6868 23.5276C30.5918 24.2104 29.9484 24.3306 29.4949 24.3306C28.7354 24.3306 28.2713 23.9974 28.2713 23.3146V23.036H29.189V23.3856C29.189 23.5713 29.3208 23.686 29.516 23.686C29.69 23.686 29.7955 23.615 29.8324 23.4621C29.8482 23.3911 29.8588 23.2928 29.8271 23.2108C29.6584 22.7739 28.4665 22.5608 28.3241 21.8508C28.2924 21.6869 28.2872 21.5504 28.3188 21.381C28.419 20.7365 29.015 20.6054 29.4949 20.6054C29.9273 20.6054 30.2385 20.7037 30.4231 20.8949C30.5602 21.0369 30.634 21.239 30.634 21.4848V21.7415H29.7797V21.5176C29.7797 21.3264 29.6636 21.2172 29.4791 21.2172C29.3156 21.2172 29.2154 21.2936 29.1837 21.4411C29.1784 21.4684 29.1732 21.5449 29.1837 21.6159C29.2786 22.0037 30.5496 22.244 30.692 22.9596C30.7079 23.0524 30.7342 23.2491 30.692 23.5331L30.6868 23.5276ZM33.8616 23.2108C33.8616 23.2764 33.8616 23.4075 33.8511 23.4402C33.7983 24.0192 33.3975 24.3142 32.6645 24.3142C31.9314 24.3142 31.5253 24.0192 31.4726 23.4402C31.4726 23.4075 31.4673 23.2709 31.4673 23.2108V20.6873H32.3428V23.2873C32.3428 23.3474 32.3428 23.3856 32.3533 23.4184C32.3638 23.473 32.4219 23.6642 32.6645 23.6642C32.9071 23.6642 32.9651 23.473 32.9809 23.4184C32.9809 23.3856 32.9862 23.3419 32.9862 23.2873V20.6873H33.8616V23.2054V23.2108ZM37.6377 24.1776H36.4194L35.602 21.3919H35.5862L35.6284 24.1776H34.7793V20.6873H36.0503L36.8097 23.3638H36.8255L36.7833 20.6873H37.6377V24.1722V24.1776Z" fill="#154194"/>
</svg>
