<svg width="58" height="58" viewBox="0 0 58 58" fill="none" xmlns="http://www.w3.org/2000/svg">
<circle cx="28.8956" cy="28.8956" r="28.8956" fill="#FAFAFA"/>
<path d="M19.8551 40.5776V38.4361H19.0834V40.5776H18.5548V38.4361H17.7831V40.5776H16.7344V41.1821H21.5093V40.5776H19.8551Z" fill="#003477"/>
<path d="M20.2913 39.9899H20.7944C20.982 39.0235 21.1184 37.8144 21.1951 37.0013C21.2378 36.5628 21.242 36.3371 20.8455 36.3371H17.2559V36.9417H20.2913V39.9899Z" fill="#003477"/>
<path d="M25.0851 40.5775V39.5472H24.2239V40.5775H22.25V41.1821H27.0249V40.5775H25.0851Z" fill="#003477"/>
<path d="M25.8724 39.2195C26.2305 39.2195 26.3499 39.0237 26.3499 38.7384V36.2819H25.4887V37.2781H23.7792V36.2819H22.918V38.7384C22.918 39.0194 23.0416 39.2195 23.3955 39.2195H25.8724ZM23.7792 38.7001V37.8827H25.4887V38.7001H23.7792Z" fill="#003477"/>
<path d="M36.644 39.5685C36.3285 39.3642 35.932 39.2747 35.5015 39.2747C35.0709 39.2747 34.6744 39.3642 34.3589 39.5685C34.0093 39.7941 33.8516 40.0964 33.8516 40.437C33.8516 40.7776 34.0093 41.0841 34.3589 41.3055C34.6744 41.5099 35.0709 41.5993 35.5015 41.5993C35.932 41.5993 36.3285 41.5099 36.644 41.3055C36.9936 41.0799 37.1513 40.7733 37.1513 40.437C37.1513 40.1007 36.9936 39.7941 36.644 39.5685ZM36.1111 40.85C35.9534 40.9819 35.7359 41.0373 35.5015 41.0373C35.267 41.0373 35.0538 40.9819 34.8918 40.85C34.7469 40.7308 34.7042 40.5945 34.7042 40.437C34.7042 40.2795 34.7469 40.1432 34.8918 40.024C35.0495 39.8963 35.267 39.8367 35.5015 39.8367C35.7359 39.8367 35.9534 39.8921 36.1111 40.024C36.2561 40.1432 36.2987 40.2837 36.2987 40.437C36.2987 40.5903 36.2561 40.7308 36.1111 40.85Z" fill="#003477"/>
<path d="M36.3066 36.0987V36.7501H35.6543V37.3547H36.3066V37.7634H35.6543V38.3679H36.3066V39.1427H37.1678V36.0987H36.3066Z" fill="#003477"/>
<path d="M34.8993 38.8787C35.2574 38.8787 35.3768 38.6829 35.3768 38.3976V36.3371H33.0234V38.3976C33.0234 38.6786 33.1471 38.8787 33.5009 38.8787H34.895H34.8993ZM34.5156 36.9416V38.2742H33.8889V36.9416H34.5156Z" fill="#003477"/>
<path d="M29.4146 39.0151L29.8026 38.7213C29.1631 37.9976 28.9798 37.2483 28.9798 36.2819H28.1783C28.1783 37.2483 27.995 37.9976 27.3555 38.7213L27.7434 39.0151C28.1271 38.683 28.3701 38.3254 28.5748 37.8911C28.7837 38.3254 29.0224 38.683 29.4104 39.0151H29.4146Z" fill="#003477"/>
<path d="M31.3296 39.611C31.0141 39.4109 30.6176 39.3258 30.187 39.3258C29.7564 39.3258 29.3599 39.4109 29.0444 39.611C28.6949 39.8324 28.5371 40.1304 28.5371 40.4625C28.5371 40.7946 28.6949 41.0968 29.0444 41.314C29.3599 41.5141 29.7564 41.5992 30.187 41.5992C30.6176 41.5992 31.0141 41.5141 31.3296 41.314C31.6791 41.0926 31.8369 40.7946 31.8369 40.4625C31.8369 40.1304 31.6791 39.8324 31.3296 39.611ZM30.7966 40.8584C30.6389 40.9862 30.4215 41.0372 30.187 41.0372C29.9525 41.0372 29.7351 40.9819 29.5773 40.8584C29.4324 40.7435 29.394 40.6115 29.394 40.4625C29.394 40.3135 29.4367 40.1815 29.5773 40.0666C29.7351 39.9388 29.9525 39.8878 30.187 39.8878C30.4215 39.8878 30.6389 39.9431 30.7966 40.0666C30.9416 40.1815 30.9842 40.3135 30.9842 40.4625C30.9842 40.6115 30.9416 40.7435 30.7966 40.8584Z" fill="#003477"/>
<path d="M31.0777 36.0987V37.2269H30.758V36.0987H29.9863V39.0959H30.758V37.8315H31.0777V39.0959H31.8536V36.0987H31.0777Z" fill="#003477"/>
<path d="M26.6459 26.9628C25.7677 26.9628 24.996 27.2481 24.4759 27.7802C23.8791 28.3678 23.5508 29.2959 23.5508 30.3857C23.5508 31.4756 23.8791 32.4037 24.4759 32.9912C24.996 33.5234 25.7677 33.8172 26.6459 33.8172C27.5242 33.8172 28.3043 33.5277 28.8245 32.9912C29.4085 32.4037 29.7411 31.4756 29.7411 30.3857C29.7411 29.2959 29.4128 28.3678 28.8245 27.7802C28.3001 27.2481 27.5199 26.9628 26.6459 26.9628ZM27.9036 32.276C27.618 32.6421 27.166 32.8507 26.6459 32.8507C26.1258 32.8507 25.6782 32.6421 25.3968 32.276C25.077 31.8801 24.9065 31.2159 24.9065 30.3857C24.9065 29.5556 25.077 28.8999 25.3968 28.4955C25.6739 28.1293 26.1343 27.9335 26.6459 27.9335C27.1575 27.9335 27.6137 28.1336 27.9036 28.4955C28.2233 28.9042 28.3896 29.5556 28.3896 30.3857C28.3896 31.2159 28.2233 31.8801 27.9036 32.276Z" fill="#003477"/>
<path d="M43.6054 27.7802C43.081 27.2481 42.3008 26.9628 41.4268 26.9628C40.5528 26.9628 39.7769 27.2481 39.2525 27.7802C38.6599 28.3678 38.3359 29.2959 38.3359 30.3857C38.3359 31.4756 38.6599 32.4037 39.2525 32.9912C39.7769 33.5234 40.5486 33.8172 41.4268 33.8172C42.3051 33.8172 43.081 33.5277 43.6054 32.9912C44.1937 32.4037 44.522 31.4756 44.522 30.3857C44.522 29.2959 44.1937 28.3678 43.6054 27.7802ZM42.6802 32.276C42.3946 32.6421 41.9427 32.8507 41.4226 32.8507C40.9024 32.8507 40.4505 32.6421 40.1734 32.276C39.8537 31.8801 39.6874 31.2202 39.6874 30.3857C39.6874 29.5513 39.8579 28.8999 40.1734 28.4955C40.4505 28.1293 40.9152 27.9335 41.4226 27.9335C41.9299 27.9335 42.3903 28.1336 42.6802 28.4955C43 28.9042 43.1662 29.5556 43.1662 30.39C43.1662 31.2244 43.0042 31.8843 42.6802 32.2803V32.276Z" fill="#003477"/>
<path d="M20.4935 33.6595C20.4167 33.5914 20.3272 33.4339 20.3272 33.1997V30.8241L22.5484 27.1075H21.0264C21.1372 27.2181 21.1457 27.3927 21.0136 27.6013L19.8113 29.6831C18.8009 27.8525 18.8009 27.8014 18.6176 27.4693C18.4727 27.2181 18.3533 27.1075 18.0847 27.1075H16.8867C16.9805 27.1969 17.0786 27.3288 17.2832 27.6694L19.0525 30.8071V33.1997C19.0525 33.4339 18.9629 33.5914 18.8862 33.6595H20.4892H20.4935Z" fill="#003477"/>
<path d="M31.8613 33.6596C31.9381 33.5915 32.0276 33.434 32.0276 33.1998V27.5631C32.0276 27.329 31.9381 27.1714 31.8613 27.1033H34.0356C35.0801 27.1033 35.9882 27.6057 35.9882 28.5806C35.9882 28.9936 35.8006 29.5768 35.3146 29.8365C35.8987 30.0579 36.5211 30.5986 36.5211 31.5139C36.5211 32.1908 36.1843 32.7869 35.7324 33.1275C35.3146 33.4425 34.8286 33.6596 34.0356 33.6596H31.8613ZM33.2981 29.5811C33.5368 29.6109 34.0185 29.5811 34.2274 29.4704C34.4364 29.364 34.6751 29.2022 34.6751 28.7892C34.6751 28.3763 34.3298 28.0484 33.8267 28.0484C33.6391 28.0484 33.4814 28.057 33.2981 28.1166V29.5811ZM34.722 32.557C35.0972 32.3143 35.1867 31.9652 35.1867 31.5948C35.1867 30.8753 34.5557 30.5433 33.9461 30.5433C33.8139 30.5433 33.5027 30.5475 33.3023 30.5816V32.6804C33.7201 32.7954 34.3895 32.7698 34.7263 32.5527L34.722 32.557Z" fill="#003477"/>
<path d="M11.1663 33.1997C11.1663 33.4339 11.0767 33.5914 11 33.6595H12.603C12.5263 33.5914 12.4367 33.4339 12.4367 33.1997V30.641L14.2998 33.2976C14.4703 33.5488 14.6067 33.6595 14.8753 33.6595H16.1628C16.0563 33.5701 15.9454 33.4381 15.6981 33.0975L13.5963 30.1217L15.745 27.1075H14.1634C14.2444 27.2139 14.2571 27.3501 14.1037 27.6056L12.4367 30.0067V27.5672C12.4367 27.3331 12.5263 27.1756 12.603 27.1075H11C11.0767 27.1756 11.1663 27.3331 11.1663 27.5672V33.204V33.1997Z" fill="#003477"/>
<path d="M46.582 18.1329C45.9852 17.5284 44.9918 17.6348 44.4078 18.2521C43.6489 19.0482 43.0606 19.3463 42.3571 19.3165C41.3766 19.2739 40.8906 18.5161 40.3875 17.5582C39.8631 16.5577 39.0573 16 38.0555 16C36.4781 16 35.5273 17.2772 35.5273 18.6991C35.5273 20.8917 37.0707 22.1987 38.1365 22.7521C39.0232 23.2119 40.0123 23.4035 40.8906 23.429C40.8394 23.9527 40.6859 24.6466 40.5111 25.132H42.3188C42.1397 24.6424 41.982 23.8931 41.9351 23.3694C44.5826 23.0246 45.8402 21.824 46.5266 20.6831C46.8336 20.1807 46.9998 19.6613 46.9998 19.193C46.9998 18.7843 46.8677 18.4096 46.582 18.1287V18.1329ZM38.064 19.5038C37.5524 19.5378 37.1133 19.1504 37.0792 18.6395C37.0451 18.1287 37.433 17.6901 37.9446 17.6603C38.452 17.6263 38.8911 18.0137 38.9209 18.5246C38.955 19.0312 38.5671 19.4697 38.0597 19.5038H38.064Z" fill="#6DB328"/>
</svg>
