<svg width="58" height="58" viewBox="0 0 58 58" fill="none" xmlns="http://www.w3.org/2000/svg">
<circle cx="28.8956" cy="28.8956" r="28.8956" fill="#FAFAFA"/>
<path d="M28.6522 16C17.4128 16 10 21.8229 10 29C10 36.1771 17.4128 42 28.6522 42C39.8915 42 47.3043 36.1771 47.3043 29C47.3043 21.8229 39.9001 16 28.6522 16Z" fill="white"/>
<path d="M31.9732 33.858C35.1734 33.3079 45.9924 31.1158 44.6625 25.0306C44.1821 22.847 41.9085 20.4433 38.468 18.776C35.7225 17.5573 32.3679 16.8463 28.61 16.8463C18.1685 16.8463 10.9102 22.2884 10.9102 29C10.9102 33.6718 14.4364 37.7343 20.099 39.7656C21.3001 36.6425 26.0876 34.8652 31.9732 33.858V33.858Z" fill="#0075C2"/>
<path d="M28.6775 36.0162C23.993 36.6002 21.8481 38.0898 20.4668 39.901C22.8519 40.705 25.5974 41.1621 28.6089 41.1621C39.0503 41.1621 46.3087 35.72 46.3087 29.0084C46.3087 28.416 46.2487 27.832 46.1371 27.2565C45.7939 35.136 33.7996 35.3899 28.6775 36.0247V36.0162Z" fill="url(#paint0_linear_395_553)"/>
<path d="M18.5376 22.6523H15.0371L15.08 22.7539C15.2344 23.1263 15.2259 23.8034 15.2173 24.4043C15.2173 24.5482 15.2173 32.377 15.2173 32.377H15.2859C15.2859 32.377 16.8817 32.4362 18.3746 32.4362C21.4976 32.4362 23.5996 30.3457 23.5996 27.2311C23.5996 24.4466 21.6177 22.6523 18.5376 22.6523V22.6523ZM16.7101 23.5241C16.9161 23.5072 17.5338 23.4648 17.9799 23.4648C20.6568 23.4648 21.9008 24.7428 21.9008 27.485C21.9008 30.2272 20.7941 31.6999 18.5205 31.6999C16.856 31.6999 16.7187 31.6237 16.7187 30.6504V23.5241H16.7101Z" fill="white"/>
<path d="M32.9946 32.3177C32.9431 31.7507 32.9173 31.3613 32.9173 31.0228V27.6204H31.2529L31.3044 27.722C31.3044 27.722 31.476 28.0521 31.476 28.763C31.476 28.7884 31.476 31.1328 31.4159 31.6829C31.0127 31.7845 30.4807 31.8184 30.129 31.8184C27.4864 31.8184 26.148 30.3203 26.148 27.375C26.148 25.1237 27.658 23.4479 29.8115 23.2956C30.944 23.2194 32.0422 23.5241 32.7286 24.1081L32.8487 24.2096V22.8301H32.7886C32.1023 22.6862 31.2958 22.5508 30.515 22.5508C26.7142 22.5508 24.4492 24.5228 24.4492 27.8236C24.4492 31.3444 27.2204 32.597 29.8115 32.597C30.9097 32.597 32.0508 32.5124 32.9259 32.377H32.9946V32.3008V32.3177Z" fill="white"/>
<path d="M38.9319 27.0365C39.8843 26.791 40.7937 25.9616 40.7937 24.7513C40.7937 23.431 39.5926 22.6523 37.5763 22.6523H34.582L34.5992 22.737C34.5992 22.737 34.685 23.1263 34.685 24.0234V32.4531H34.7622C34.7622 32.4531 35.9376 32.4277 37.379 32.4277C39.8928 32.4277 41.3428 31.3529 41.3428 29.474C41.3428 28.3145 40.3647 27.3411 38.9319 27.0365V27.0365ZM36.1778 27.5104H36.95C38.7346 27.5104 39.6355 28.2044 39.6355 29.5671C39.6355 31.0059 38.8547 31.6999 37.2503 31.6999C36.4696 31.6999 36.1693 31.4206 36.1693 30.7181V27.5104H36.1778ZM36.1778 23.4141H37.1559C38.7003 23.4141 39.3523 23.8711 39.3523 24.9544C39.3523 26.1816 38.5458 26.7487 36.8127 26.7487H36.1778V23.4141V23.4141Z" fill="white"/>
<defs>
<linearGradient id="paint0_linear_395_553" x1="20.0207" y1="34.205" x2="46.4975" y2="34.205" gradientUnits="userSpaceOnUse">
<stop offset="0.1" stop-color="#0075C2"/>
<stop offset="0.23" stop-color="#007BC7"/>
<stop offset="0.4" stop-color="#008CD6"/>
<stop offset="0.75" stop-color="#00AC97"/>
<stop offset="1" stop-color="#6FBA2C"/>
</linearGradient>
</defs>
</svg>
