<svg width="58" height="58" viewBox="0 0 58 58" fill="none" xmlns="http://www.w3.org/2000/svg">
<circle cx="28.8956" cy="28.8956" r="28.8956" fill="#FAFAFA"/>
<path d="M25.6277 22.8632C25.3262 20.1114 28.2138 17.899 32.0781 17.9287C35.9466 17.9585 39.3268 20.2176 39.6283 22.9736C39.9341 25.7295 37.0465 27.9335 33.1779 27.908C29.3136 27.8825 25.9334 25.6191 25.6277 22.8632ZM40.3503 23.721C40.002 20.3068 36.108 17.5041 31.6619 17.4701C27.2116 17.4319 23.8824 20.1751 24.2391 23.5893C24.5873 27.012 28.4771 29.8062 32.9274 29.8444C37.3777 29.8826 40.7027 27.1394 40.3545 23.721" fill="#F2AD80"/>
<path d="M33.6347 29.9166C31.4435 32.2054 27.9231 32.3965 25.7787 30.3327C23.6257 28.2817 23.6639 24.7571 25.8593 22.4682C28.0505 20.1751 31.5709 19.9883 33.7196 22.0436C35.8641 24.0989 35.8301 27.6235 33.6389 29.9123M25.5154 22.396C22.9675 25.0586 22.9293 29.1564 25.422 31.543C27.9146 33.9295 32.004 33.7087 34.5519 31.0461C37.0998 28.3921 37.1423 24.29 34.6453 21.8992C32.1526 19.5084 28.0633 19.7292 25.5111 22.3918" fill="#EB7B3E"/>
<path d="M25.7446 13.8266C30.3011 12.1153 34.8108 13.8436 35.813 17.6867C36.8152 21.5298 33.9318 26.0268 29.3753 27.7296C24.8146 29.4495 20.3091 27.7084 19.3069 23.8738C18.3047 20.0308 21.1881 15.5337 25.7446 13.8266ZM21.5108 15.2917C16.7803 19.0371 15.5785 24.4641 18.8228 27.4111C22.0671 30.3582 28.5303 29.7212 33.2609 25.9716C37.9915 22.2262 39.1975 16.7992 35.9489 13.8521C32.7046 10.9008 26.2414 11.5463 21.5151 15.2917" fill="#E75514"/>
<path d="M41.8875 36.6303V37.3567H41.0547V37.8967H41.8875V38.2279H41.0547V38.7706H41.8875V39.6028H42.7533V36.6303H41.8875Z" fill="#231815"/>
<path d="M40.1751 36.6303H37.2324V38.623C37.2324 38.7222 37.2982 39.6028 38.3449 39.6028H40.6296C40.6296 39.5668 40.6296 37.039 40.6296 37.039C40.6296 36.9399 40.6296 36.6303 40.1721 36.6303M38.0548 37.2464H39.7983V38.9897H38.4077C38.1176 38.9897 38.0518 38.7402 38.0548 38.614V37.2464Z" fill="#231815"/>
<path d="M34.0496 40.0275C32.9938 40.0275 32.1387 40.6925 32.1387 41.5123C32.1387 42.3321 32.9938 43 34.0496 43C35.1054 43 35.9605 42.3321 35.9605 41.5123C35.9605 40.6925 35.1054 40.0275 34.0496 40.0275M34.0496 42.4152C33.4661 42.4152 32.9938 42.034 32.9938 41.5094C32.9938 40.9849 33.4692 40.6036 34.0496 40.6036C34.63 40.6036 35.1085 40.9849 35.1085 41.5094C35.1085 42.034 34.6361 42.4152 34.0496 42.4152Z" fill="#231815"/>
<path d="M35.3031 36.6303V37.7592H34.9122V36.6303H34.2598V39.6028H34.9122V38.3605H35.3031V39.6028H35.9584V36.6303H35.3031Z" fill="#231815"/>
<path d="M32.4729 37.9431C32.4469 37.8737 32.4112 37.7956 32.4015 37.7146C32.3399 37.3127 32.4015 36.6303 32.4015 36.6303H31.4574C31.4574 36.6303 31.5061 37.3879 31.4509 37.677C31.4315 37.7725 31.4055 37.8621 31.3763 37.9431C31.2271 38.3508 30.7145 38.9782 30.0137 39.01V39.597C31.2206 39.5884 31.8337 38.7932 31.9246 38.611C32.0187 38.7961 32.6319 39.5941 33.8355 39.6028V39.01C33.1347 38.9782 32.6221 38.3508 32.4729 37.9431" fill="#231815"/>
<path d="M40.8426 40.0275C39.7868 40.0275 38.9316 40.6925 38.9316 41.5123C38.9316 42.3321 39.7868 43 40.8426 43C41.8983 43 42.7535 42.3321 42.7535 41.5123C42.7535 40.6925 41.8983 40.0275 40.8426 40.0275M40.8426 42.4152C40.2591 42.4152 39.7837 42.034 39.7837 41.5094C39.7837 40.9849 40.2591 40.6036 40.8426 40.6036C41.426 40.6036 41.9014 40.9849 41.9014 41.5094C41.9014 42.034 41.4291 42.4152 40.8426 42.4152Z" fill="#231815"/>
<path d="M22.7932 38.7355C22.7932 38.6843 22.7932 38.1211 22.7932 38.0699H21.7188V36.6303H20.6699V40.8768H21.7188C21.7188 40.8195 21.7188 38.7324 21.7188 38.7324H22.7932V38.7355Z" fill="#231815"/>
<path d="M21.9454 42.0218H18.3989C18.1963 42.0218 18.0557 41.9687 17.9479 41.8727C17.8106 41.7539 17.7942 41.5997 17.7942 41.4126V40.8768H16.8496V41.6957C16.8496 41.9156 16.9183 42.5728 18.1211 42.5753H21.9454V42.0193V42.0218Z" fill="#231815"/>
<path d="M18.9729 36.2056H16.8496V36.6303H18.9729V36.2056Z" fill="#231815"/>
<path d="M18.1244 37.9042C17.1188 37.9042 16.4258 38.4755 16.4258 39.1797C16.4258 39.7962 17.1157 40.4521 18.1244 40.4521C19.133 40.4521 19.823 39.7781 19.823 39.1797C19.823 38.4755 19.164 37.9042 18.1244 37.9042ZM18.1182 39.9081C17.6448 39.9081 17.2704 39.5696 17.2735 39.1525C17.2735 38.7354 17.6541 38.4422 18.1244 38.4452C18.5947 38.4452 18.9752 38.7445 18.9752 39.1585C18.9752 39.5756 18.5885 39.9081 18.1182 39.9081Z" fill="#231815"/>
<path d="M19.8218 37.0549H16C16 37.0831 16 37.4796 16 37.4796H19.8218V37.0549Z" fill="#231815"/>
<path fill-rule="evenodd" clip-rule="evenodd" d="M29.5893 38.7775H28.6635V36.6303H27.7503V40.4563C27.7503 40.8708 27.5588 41.141 27.3768 41.2672C27.0504 41.4804 26.3726 41.4804 26.3726 41.4804H25.3338V40.4353H24.43V41.4804H22.7949V42.1561H26.4071C26.4291 42.1561 27.3988 42.1561 27.7252 41.7957C27.7377 41.7837 27.7503 41.7717 27.7597 41.7627V43H28.6635V39.4803H29.5893V38.7836V38.7775Z" fill="#231815"/>
<path d="M26.1916 36.2056H24.0684V36.6303H26.1916V36.2056Z" fill="#231815"/>
<path d="M27.0425 37.0549H23.2207V37.4796H27.0425V37.0549Z" fill="#231815"/>
<path fill-rule="evenodd" clip-rule="evenodd" d="M24.9193 37.9042H24.9069V38.4456H24.9193C25.3856 38.4456 25.7624 38.7381 25.7624 39.1492C25.7624 39.5604 25.3856 39.8962 24.9069 39.9078V40.4521H24.9193C25.9415 40.4521 26.6179 39.7688 26.6179 39.1724C26.6179 38.4688 25.9508 37.9042 24.9193 37.9042M24.9069 37.9042C23.9063 37.9042 23.2207 38.4688 23.2207 39.1724C23.2207 39.7891 23.9094 40.4521 24.9069 40.4521V39.9078C24.4406 39.8962 24.0515 39.5604 24.0638 39.1492C24.0638 38.7381 24.4406 38.4456 24.9069 38.4456V37.9042Z" fill="#231815"/>
</svg>
