<svg width="59" height="83" viewBox="0 0 59 83" fill="none" xmlns="http://www.w3.org/2000/svg">
<path d="M42 15H38V28H42V15Z" fill="#10CF96" stroke="black" stroke-linecap="round" stroke-linejoin="round"/>
<path d="M45.4827 29.5429V57H15.0938V29.5429L30.2882 22.8571L45.4827 29.5429Z" fill="white" stroke="black" stroke-linecap="round" stroke-linejoin="round"/>
<rect x="28" y="35" width="5" height="5" fill="#D0F9FF" stroke="black" stroke-linejoin="round"/>
<path d="M58 65.5H11V74H58V65.5Z" fill="url(#paint0_linear_383_1627)" stroke="#020202" stroke-linejoin="round"/>
<path d="M30.5 19L12.5 26.5V30.5L30.5 23.5L47.5 30.5V26.5L30.5 19Z" fill="#10CF96" stroke="black" stroke-linejoin="round"/>
<path d="M52 57H5V65.5H52V57Z" fill="url(#paint1_linear_383_1627)" stroke="#020202" stroke-linejoin="round"/>
<path d="M54.8824 43.5C54.8824 48.1897 51.1049 52 46.4412 52C41.7775 52 38 48.1962 38 43.5C38 38.8038 41.7775 35 46.4412 35C51.1049 35 54.8824 38.8038 54.8824 43.5Z" fill="#FFF4B8" stroke="#020202"/>
<path d="M41.8848 40.2158H43.2057L44.5171 45.5285L45.9663 40.2158H47.1879L48.6275 45.5189L49.9869 40.2158H51.2085L49.2334 47.3753H48.0215L46.5723 41.8638L45.0621 47.3753H43.8309L41.8848 40.2158Z" fill="#262626"/>
<path d="M49.2332 47.5359H48.0212C47.9475 47.5359 47.8834 47.4878 47.8673 47.4173L46.5688 42.4829L45.2158 47.4173C45.1966 47.4878 45.1324 47.5359 45.0619 47.5359H43.8307C43.757 47.5359 43.696 47.4878 43.6768 47.4173L41.7306 40.2578C41.7178 40.2097 41.7306 40.1584 41.7563 40.1199C41.7851 40.0814 41.8332 40.0558 41.8845 40.0558H43.2055C43.2792 40.0558 43.3434 40.1071 43.3626 40.1776L44.5265 44.8908L45.8121 40.1744C45.8314 40.1039 45.8955 40.0558 45.966 40.0558H47.1876C47.2614 40.0558 47.3223 40.1039 47.3415 40.1744L48.6208 44.8908L49.8328 40.1776C49.852 40.1071 49.9161 40.0558 49.9867 40.0558H51.2082C51.2595 40.0558 51.3044 40.0782 51.3365 40.1199C51.3653 40.1584 51.3782 40.2129 51.3621 40.261L49.3871 47.4205C49.3679 47.491 49.3037 47.5391 49.2332 47.5391V47.5359ZM48.1463 47.2153H49.1114L50.9966 40.3764H50.1085L48.7779 45.5577C48.7587 45.6282 48.6978 45.6763 48.624 45.6795C48.5503 45.6795 48.4894 45.6314 48.4701 45.5609L47.0658 40.3764H46.0911L44.6739 45.5705C44.6547 45.641 44.6034 45.6923 44.5168 45.6891C44.4431 45.6891 44.3822 45.6378 44.3629 45.5673L43.0804 40.3764H42.0961L43.9557 47.2153H44.9433L46.4181 41.8224C46.4374 41.7519 46.5015 41.7038 46.572 41.7038C46.6458 41.7038 46.7099 41.7519 46.7259 41.8224L48.1431 47.2153H48.1463Z" fill="#262626"/>
<path d="M52.2021 44.2527V43.371C52.2021 43.3373 52.1749 43.3101 52.1412 43.3101H50.1918C50.1582 43.3101 50.1309 43.3373 50.1309 43.371V44.2527C50.1309 44.2863 50.1582 44.3136 50.1918 44.3136H52.1412C52.1749 44.3136 52.2021 44.2863 52.2021 44.2527Z" fill="#040000"/>
<path d="M52.1413 44.4739H50.1919C50.0701 44.4739 49.9707 44.3745 49.9707 44.2527V43.3742C49.9707 43.2523 50.0701 43.153 50.1919 43.153H52.1413C52.2632 43.153 52.3626 43.2523 52.3626 43.3742V44.2527C52.3626 44.3745 52.2632 44.4739 52.1413 44.4739ZM50.2913 44.1533H52.0419V43.4704H50.2913V44.1533V44.1533Z" fill="#262626"/>
<path d="M43.0195 44.2527V43.371C43.0195 43.3373 42.9923 43.3101 42.9586 43.3101H41.0092C40.9756 43.3101 40.9483 43.3373 40.9483 43.371V44.2527C40.9483 44.2863 40.9756 44.3136 41.0092 44.3136H42.9586C42.9923 44.3136 43.0195 44.2863 43.0195 44.2527Z" fill="#040000"/>
<path d="M42.9587 44.4739H41.0093C40.8875 44.4739 40.7881 44.3745 40.7881 44.2527V43.3742C40.7881 43.2523 40.8875 43.153 41.0093 43.153H42.9587C43.0805 43.153 43.1799 43.2523 43.1799 43.3742V44.2527C43.1799 44.3745 43.0805 44.4739 42.9587 44.4739ZM41.1087 44.1533H42.8593V43.4704H41.1087V44.1533V44.1533Z" fill="#262626"/>
<path d="M48 74H1V82.5H48V74Z" fill="url(#paint2_linear_383_1627)" stroke="#020202" stroke-linejoin="round"/>
<path fill-rule="evenodd" clip-rule="evenodd" d="M44.3116 4.79027L42.002 8.24048L44.0042 9.58086C45.11 10.3211 47.0405 9.37653 48.3162 7.47103C49.5918 5.56554 49.7294 3.42072 48.6236 2.68045L46.6213 1.34007L44.3116 4.79027Z" fill="url(#paint3_linear_383_1627)"/>
<path d="M42.002 8.24048L41.5865 7.96233L41.3083 8.37783L41.7238 8.65597L42.002 8.24048ZM44.3116 4.79027L43.8961 4.51213L44.3116 4.79027ZM44.0042 9.58086L44.2824 9.16536L44.0042 9.58086ZM48.6236 2.68045L48.3454 3.09594L48.6236 2.68045ZM46.6213 1.34007L46.8995 0.924574L46.484 0.646428L46.2058 1.06192L46.6213 1.34007ZM42.4174 8.51862L44.7271 5.06842L43.8961 4.51213L41.5865 7.96233L42.4174 8.51862ZM44.2824 9.16536L42.2801 7.82498L41.7238 8.65597L43.7261 9.99635L44.2824 9.16536ZM47.9007 7.19289C47.303 8.08565 46.5647 8.73239 45.8768 9.06899C45.1756 9.41206 44.6251 9.39478 44.2824 9.16536L43.7261 9.99635C44.4892 10.5072 45.4568 10.3878 46.3163 9.96723C47.189 9.54022 48.0537 8.7619 48.7316 7.74918L47.9007 7.19289ZM48.3454 3.09594C48.6881 3.32536 48.9139 3.82779 48.8639 4.60676C48.8149 5.37105 48.4983 6.30012 47.9007 7.19289L48.7316 7.74918C49.4096 6.73645 49.7997 5.64036 49.8619 4.6708C49.9231 3.71592 49.6648 2.77581 48.9017 2.26495L48.3454 3.09594ZM46.3432 1.75556L48.3454 3.09594L48.9017 2.26495L46.8995 0.924574L46.3432 1.75556ZM44.7271 5.06842L47.0368 1.61821L46.2058 1.06192L43.8961 4.51213L44.7271 5.06842Z" fill="black"/>
<ellipse cx="44.3119" cy="4.79056" rx="4.15193" ry="2.40949" transform="rotate(-56.2003 44.3119 4.79056)" fill="url(#paint4_linear_383_1627)" stroke="black"/>
<path fill-rule="evenodd" clip-rule="evenodd" d="M51.92 13.4647L46.6016 14.1602L46.9693 16.9726C47.1724 18.5258 49.7182 19.4736 52.6555 19.0895C55.5928 18.7054 57.8093 17.1349 57.6062 15.5816L57.2385 12.7692L51.92 13.4647Z" fill="url(#paint5_linear_383_1627)"/>
<path d="M46.6016 14.1602L46.5367 13.6644L46.041 13.7292L46.1058 14.225L46.6016 14.1602ZM51.92 13.4647L51.8552 12.9689L51.92 13.4647ZM57.2385 12.7692L57.7342 12.7044L57.6694 12.2086L57.1736 12.2734L57.2385 12.7692ZM46.6664 14.6559L51.9848 13.9605L51.8552 12.9689L46.5367 13.6644L46.6664 14.6559ZM47.4651 16.9077L47.0973 14.0953L46.1058 14.225L46.4735 17.0374L47.4651 16.9077ZM52.5907 18.5937C51.1863 18.7773 49.9 18.6383 48.9616 18.2889C47.9993 17.9307 47.5308 17.4099 47.4651 16.9077L46.4735 17.0374C46.611 18.0884 47.517 18.8182 48.6127 19.2261C49.7322 19.6429 51.1875 19.7857 52.7204 19.5853L52.5907 18.5937ZM57.1104 15.6464C57.1761 16.1486 56.8573 16.7724 56.0195 17.366C55.2024 17.9449 53.9951 18.4101 52.5907 18.5937L52.7204 19.5853C54.2533 19.3848 55.6229 18.8726 56.5976 18.1819C57.5516 17.506 58.2394 16.5678 58.102 15.5168L57.1104 15.6464ZM56.7427 12.834L57.1104 15.6464L58.102 15.5168L57.7342 12.7044L56.7427 12.834ZM51.9848 13.9605L57.3033 13.265L57.1736 12.2734L51.8552 12.9689L51.9848 13.9605Z" fill="black"/>
<ellipse cx="51.9196" cy="13.4648" rx="5.36373" ry="2.83634" transform="rotate(-7.45005 51.9196 13.4648)" fill="url(#paint6_linear_383_1627)" stroke="black"/>
<defs>
<linearGradient id="paint0_linear_383_1627" x1="10.1769" y1="69.75" x2="11.8231" y2="69.75" gradientUnits="userSpaceOnUse">
<stop stop-color="#FFC200"/>
<stop offset="1" stop-color="#F5DC34"/>
</linearGradient>
<linearGradient id="paint1_linear_383_1627" x1="4.17688" y1="61.25" x2="5.82312" y2="61.25" gradientUnits="userSpaceOnUse">
<stop stop-color="#FFC200"/>
<stop offset="1" stop-color="#F5DC34"/>
</linearGradient>
<linearGradient id="paint2_linear_383_1627" x1="1" y1="78.25" x2="48" y2="78.25" gradientUnits="userSpaceOnUse">
<stop stop-color="#FFC200"/>
<stop offset="1" stop-color="#F5DC34"/>
</linearGradient>
<linearGradient id="paint3_linear_383_1627" x1="42.3657" y1="5.7207" x2="49.3657" y2="7.2207" gradientUnits="userSpaceOnUse">
<stop stop-color="#FAD57D"/>
<stop offset="1" stop-color="#FCC400"/>
</linearGradient>
<linearGradient id="paint4_linear_383_1627" x1="42.4666" y1="2.78265" x2="44.914" y2="5.1255" gradientUnits="userSpaceOnUse">
<stop stop-color="#FCDA29"/>
<stop offset="1" stop-color="#FDE335"/>
</linearGradient>
<linearGradient id="paint5_linear_383_1627" x1="50.8664" y1="14.2207" x2="52.6555" y2="19.0895" gradientUnits="userSpaceOnUse">
<stop stop-color="#F5DC34"/>
<stop offset="1" stop-color="#FCC63B"/>
</linearGradient>
<linearGradient id="paint6_linear_383_1627" x1="49.5357" y1="11.1012" x2="52.4158" y2="14.127" gradientUnits="userSpaceOnUse">
<stop stop-color="#FCDA29"/>
<stop offset="1" stop-color="#FDE335"/>
</linearGradient>
</defs>
</svg>
