<svg width="37" height="31" viewBox="0 0 37 31" fill="none" xmlns="http://www.w3.org/2000/svg">
<path d="M34.3761 30.4365V20.2513V11.6756L21.3748 1L8.37695 11.6756V20.2513V30.4365H34.3761Z" fill="white" stroke="#050505"/>
<path d="M18.9951 14.1243H23.7578" stroke="#020202"/>
<path d="M18.9951 18.6487H23.7578" stroke="#020202"/>
<path d="M18.9951 23.1731H23.7578" stroke="#020202"/>
<path d="M35.904 7.89471C35.904 11.6987 32.8399 14.7894 29.057 14.7894C25.2741 14.7894 22.21 11.704 22.21 7.89471C22.21 4.08545 25.2741 1 29.057 1C32.8399 1 35.904 4.08545 35.904 7.89471Z" fill="#FFF068" stroke="#020202"/>
<path d="M1.00035 14.7956C1.00035 14.7956 15.3417 14.1516 12.1203 26.0265C12.1203 26.0265 1.29521 29.8161 1.00035 14.7956Z" fill="#13DA7A" stroke="#050505"/>
<path d="M1.29885 15.1753L14.833 28.8445" stroke="#050505"/>
<path d="M6.06543 20.1189L1.74202 20.1747" stroke="#050505"/>
<path d="M9.20898 23.2943L3.22329 23.3725" stroke="#050505"/>
<path d="M6.18592 19.996L6.24121 15.6257" stroke="#050505"/>
<path d="M9.33005 23.1713L9.41113 17.1222" stroke="#050505"/>
<path d="M28.3749 6.10725C28.3749 6.67128 27.9179 7.12869 27.3537 7.12869C26.7896 7.12869 26.332 6.67128 26.332 6.10725C26.332 5.54323 26.7896 5.08582 27.3537 5.08582C27.9179 5.08582 28.3749 5.54323 28.3749 6.10725Z" fill="#FFD542" stroke="#020202" stroke-width="1.2"/>
<path d="M32.0517 10.1931C32.0517 10.7571 31.5947 11.2145 31.0305 11.2145C30.4663 11.2145 30.0088 10.7571 30.0088 10.1931C30.0088 9.62905 30.4663 9.17163 31.0305 9.17163C31.5947 9.17163 32.0517 9.62905 32.0517 10.1931Z" fill="#FFD542" stroke="#020202" stroke-width="1.2"/>
<line x1="31.8637" y1="5.51008" x2="26.7565" y2="10.6173" stroke="black" stroke-width="1.2"/>
</svg>
