<svg width="43" height="30" viewBox="0 0 43 30" fill="none" xmlns="http://www.w3.org/2000/svg">
<path d="M20.7452 4.50051C20.7452 4.50051 20.7452 4.5005 20.7452 4.5005L20.7451 4.50046L20.7448 4.50005L20.7435 4.4981L20.7376 4.48981L20.7137 4.45636C20.6925 4.42681 20.6611 4.3831 20.6205 4.32728C20.5393 4.21559 20.4216 4.05555 20.2767 3.86329C19.9864 3.4782 19.5885 2.96657 19.1559 2.45653C18.7211 1.94388 18.2614 1.44505 17.8469 1.07851C17.6392 0.894863 17.4546 0.755022 17.2997 0.663696C17.2229 0.618424 17.1606 0.589404 17.1126 0.572396C17.089 0.564059 17.071 0.559382 17.0582 0.556866C17.0519 0.555628 17.0472 0.554982 17.044 0.554651C17.0408 0.55432 17.0393 0.554321 17.0394 0.554321H9.90733C9.01031 0.554321 8.27637 1.29098 8.27637 2.2097V24.73C8.27637 25.6512 9.01282 26.3853 9.90733 26.3853H35.0317C35.9257 26.3853 36.6627 25.6481 36.6627 24.73V6.36729C36.6627 5.44603 35.9263 4.71191 35.0317 4.71191H21.1535C20.9911 4.71191 20.8389 4.63308 20.7452 4.50051ZM20.7452 4.50051L20.7452 4.50053L21.1535 4.21191L20.7452 4.50051Z" fill="white" stroke="#100C0D" stroke-linecap="round" stroke-linejoin="round"/>
<path d="M15.8941 13.6448C15.8772 17.7318 12.5757 21.0661 8.51677 21.0831C4.45779 21.1001 1.18381 17.7988 1.20076 13.7062C1.21771 9.61356 4.51916 6.28485 8.57814 6.26789C12.6371 6.25093 15.9111 9.55217 15.8941 13.6448Z" fill="#FFF068" stroke="#020202"/>
<path d="M4.59375 10.8312L5.74307 10.8264L6.8649 15.45L8.14492 10.8164L9.20776 10.812L10.4412 15.4267L11.6431 10.8018L12.7059 10.7974L10.9618 17.0418L9.9073 17.0462L8.66623 12.2499L7.33249 17.0569L6.26128 17.0614L4.59375 10.8312Z" fill="#262626"/>
<path d="M10.9613 17.1819L9.90678 17.1863C9.84262 17.1866 9.787 17.1449 9.77331 17.0835L8.66126 12.7894L7.46628 17.0932C7.44929 17.1547 7.39332 17.1968 7.33195 17.1971L6.26073 17.2015C6.19657 17.2018 6.14374 17.1601 6.12725 17.0987L4.45971 10.8685C4.44872 10.8266 4.46006 10.7819 4.48252 10.7483C4.50776 10.7146 4.5497 10.6921 4.59433 10.6919L5.74367 10.6871C5.80783 10.6869 5.86344 10.7313 5.87992 10.7927L6.8756 14.8946L8.01122 10.781C8.02821 10.7195 8.08417 10.6774 8.14555 10.6771L9.2084 10.6727C9.27256 10.6724 9.32539 10.7141 9.34187 10.7755L10.438 14.8797L11.5094 10.7693C11.5264 10.7077 11.5824 10.6628 11.6438 10.6626L12.7066 10.6581C12.7512 10.6579 12.7902 10.6773 12.818 10.7135C12.8429 10.7469 12.8539 10.7944 12.8398 10.8363L11.0956 17.0808C11.0786 17.1424 11.0226 17.1845 10.9613 17.1847L10.9613 17.1819ZM10.0167 16.9066L10.8564 16.9031L12.5213 10.9382L11.7486 10.9414L10.5723 15.4602C10.5553 15.5217 10.5021 15.5638 10.4379 15.5669C10.3738 15.5671 10.3209 15.5255 10.3044 15.4641L9.10124 10.9525L8.25319 10.956L7.00147 15.4862C6.98448 15.5477 6.93966 15.5926 6.86436 15.5901C6.80019 15.5904 6.74738 15.5459 6.73089 15.4845L5.63372 10.9669L4.7773 10.9705L6.37068 16.9218L7.22989 16.9182L8.53253 12.2146C8.54952 12.1531 8.60548 12.1109 8.66686 12.1107C8.73102 12.1104 8.78664 12.1521 8.80033 12.2135L10.0139 16.9066L10.0167 16.9066Z" fill="#262626"/>
<path d="M13.5493 14.3133L13.5525 13.5462C13.5526 13.5169 13.529 13.4933 13.4997 13.4934L11.804 13.5006C11.7747 13.5007 11.7509 13.5245 11.7508 13.5538L11.7475 14.321C11.7474 14.3502 11.771 14.3739 11.8003 14.3738L13.4961 14.3666C13.5253 14.3664 13.5492 14.3426 13.5493 14.3133Z" fill="#040000"/>
<path d="M13.4949 14.5068L11.7988 14.5142C11.6928 14.5146 11.6067 14.4285 11.6072 14.3225L11.6105 13.5579C11.611 13.4519 11.6978 13.365 11.8038 13.3646L13.4998 13.3572C13.6058 13.3567 13.6919 13.4428 13.6915 13.5489L13.6882 14.3134C13.6877 14.4194 13.6009 14.5063 13.4949 14.5068ZM11.8865 14.2348L13.4096 14.2281L13.4122 13.6338L11.8891 13.6404L11.8865 14.2348V14.2348Z" fill="#262626"/>
<path d="M5.57467 14.3402L5.5779 13.5731C5.57803 13.5438 5.5544 13.5202 5.52513 13.5203L3.82937 13.5275C3.8001 13.5276 3.77628 13.5515 3.77615 13.5807L3.77293 14.3479C3.7728 14.3772 3.79643 14.4008 3.82569 14.4007L5.52146 14.3935C5.55073 14.3933 5.57455 14.3695 5.57467 14.3402Z" fill="#040000"/>
<path d="M5.52026 14.5336L3.82423 14.541C3.71823 14.5415 3.63213 14.4554 3.63259 14.3493L3.63589 13.5848C3.63635 13.4788 3.72319 13.3919 3.8292 13.3914L5.52522 13.384C5.63122 13.3836 5.71733 13.4697 5.71687 13.5757L5.71357 14.3403C5.71311 14.4463 5.62626 14.5332 5.52026 14.5336ZM3.91191 14.2616L5.43499 14.255L5.43756 13.6607L3.91448 13.6673L3.91191 14.2616V14.2616Z" fill="#262626"/>
<path d="M42.2741 21.8496V19.1477H40.058C39.88 18.2546 39.5306 17.4263 39.0421 16.695L40.6079 15.1289L38.6992 13.2198L37.1333 14.7859C36.4022 14.3005 35.574 13.9478 34.6811 13.7698V11.5533H31.9797V13.7666C31.0868 13.9446 30.2586 14.2973 29.5274 14.7826L27.9616 13.2165L26.0528 15.1256L27.6187 16.6917C27.1302 17.423 26.7808 18.2514 26.6028 19.1445H24.3867V21.8463H26.5996C26.7775 22.7394 27.1269 23.5678 27.6154 24.299L26.0496 25.8652L27.9584 27.7775L29.5242 26.2114C30.2553 26.7 31.0836 27.0494 31.9765 27.2274V29.4407H34.6778V27.2274C35.5708 27.0494 36.399 26.7 37.1301 26.2114L38.6959 27.7775L40.6047 25.8652L39.0389 24.299C39.5274 23.5678 39.8768 22.7394 40.0547 21.8463H42.2708L42.2741 21.8496ZM33.332 22.542C32.2029 22.542 31.2874 21.6263 31.2874 20.497C31.2874 19.3677 32.2029 18.452 33.332 18.452C34.4611 18.452 35.3766 19.3677 35.3766 20.497C35.3766 21.6263 34.4611 22.542 33.332 22.542Z" fill="#13DA7A" stroke="#100C0D" stroke-linecap="round" stroke-linejoin="round"/>
</svg>
