<svg width="44" height="33" viewBox="0 0 44 33" fill="none" xmlns="http://www.w3.org/2000/svg">
<path d="M19.2431 28.1451V30.7357C19.2431 31.3224 18.7671 31.7934 18.1834 31.7934C17.5997 31.7934 17.1237 31.3183 17.1237 30.7357V28.1451" fill="white"/>
<path d="M19.2431 28.1451V30.7357C19.2431 31.3224 18.7671 31.7934 18.1834 31.7934C17.5997 31.7934 17.1237 31.3183 17.1237 30.7357V28.1451" stroke="black" stroke-linecap="round" stroke-linejoin="round"/>
<path d="M31.2685 28.1451V30.7357C31.2685 31.3224 30.7925 31.7934 30.2088 31.7934C29.6251 31.7934 29.149 31.3183 29.149 30.7357V28.1451" fill="white"/>
<path d="M31.2685 28.1451V30.7357C31.2685 31.3224 30.7925 31.7934 30.2088 31.7934C29.6251 31.7934 29.149 31.3183 29.149 30.7357V28.1451" stroke="black" stroke-linecap="round" stroke-linejoin="round"/>
<path d="M38.7032 15.746H41.692C42.2963 15.746 42.7889 16.2376 42.7889 16.8409V20.5305C42.7889 21.1337 42.2963 21.6254 41.692 21.6254H38.7032C38.0988 21.6254 37.6062 21.1337 37.6062 20.5305V16.8409C37.6062 16.2376 38.0988 15.746 38.7032 15.746Z" fill="white" stroke="black" stroke-linecap="round" stroke-linejoin="round"/>
<path d="M36.0373 12.5728L38.1857 6.03238C34.5678 4.84659 30.6724 6.8174 29.4844 10.4285" fill="white"/>
<path d="M36.0373 12.5728L38.1857 6.03238C34.5678 4.84659 30.6724 6.8174 29.4844 10.4285" stroke="black" stroke-linecap="round" stroke-linejoin="round"/>
<path d="M40.4667 19.0844C40.4667 24.9679 35.6896 29.7358 29.799 29.7358H19.7771C13.8865 29.7358 9.10535 24.9679 9.10535 19.0844C9.10535 13.2009 13.8824 8.43703 19.7771 8.43703H29.799C35.6896 8.43703 40.4667 13.205 40.4667 19.0844Z" fill="white" stroke="black" stroke-linecap="round" stroke-linejoin="round"/>
<path d="M33.3921 10.8458V3.96242C29.5837 3.96242 26.4956 7.04465 26.4956 10.8458" fill="white"/>
<path d="M33.3921 10.8458V3.96242C29.5837 3.96242 26.4956 7.04465 26.4956 10.8458" stroke="black" stroke-linecap="round" stroke-linejoin="round"/>
<path d="M33.4087 16.907V15.5229C33.4087 14.6635 34.1083 13.9652 34.9693 13.9652C35.8303 13.9652 36.5299 14.6635 36.5299 15.5229V16.907" fill="white"/>
<path d="M33.4087 16.907V15.5229C33.4087 14.6635 34.1083 13.9652 34.9693 13.9652C35.8303 13.9652 36.5299 14.6635 36.5299 15.5229V16.907" stroke="black" stroke-linecap="round" stroke-linejoin="round"/>
<path d="M8.98941 18.32C8.98941 18.32 5.45422 19.6132 4.1544 16.436C2.85872 13.2587 6.98586 12.9075 6.3939 16.6715C5.80608 20.4354 1.55889 20.1999 1.20703 20.1999" stroke="black" stroke-linecap="round" stroke-linejoin="round"/>
<path d="M23.8794 8.42933C23.8794 11.4248 21.4452 13.8587 18.4397 13.8587C15.4341 13.8587 13 11.4292 13 8.42933C13 5.42948 15.4341 3 18.4397 3C21.4452 3 23.8794 5.42948 23.8794 8.42933Z" fill="#F5DC34" stroke="black" stroke-linecap="round" stroke-linejoin="round"/>
<path d="M8.98519 5.33827C10.1283 5.33827 11.055 4.41336 11.055 3.27243C11.055 2.1315 10.1283 1.20659 8.98519 1.20659C7.84208 1.20659 6.91541 2.1315 6.91541 3.27243C6.91541 4.41336 7.84208 5.33827 8.98519 5.33827Z" fill="#7DEDAA" stroke="black" stroke-linecap="round" stroke-linejoin="round"/>
<path d="M15.4941 6.45305H16.3143L17.1286 9.75177L18.0284 6.45305H18.7869L19.6808 9.7458L20.5248 6.45305H21.2833L20.057 10.8985H19.3045L18.4047 7.47631L17.467 10.8985H16.7025L15.4941 6.45305Z" fill="#262626"/>
<path d="M20.0569 10.998H19.3044C19.2586 10.998 19.2188 10.9681 19.2089 10.9243L18.4026 7.86054L17.5625 10.9243C17.5505 10.9681 17.5107 10.998 17.4669 10.998H16.7025C16.6567 10.998 16.6189 10.9681 16.6069 10.9243L15.3985 6.47893C15.3905 6.44907 15.3985 6.41722 15.4144 6.39333C15.4324 6.36944 15.4622 6.35352 15.4941 6.35352H16.3143C16.3601 6.35352 16.3999 6.38537 16.4118 6.42917L17.1345 9.35561L17.9328 6.42717C17.9447 6.38338 17.9845 6.35352 18.0283 6.35352H18.7868C18.8326 6.35352 18.8704 6.38338 18.8824 6.42717L19.6767 9.35561L20.4292 6.42917C20.4412 6.38537 20.481 6.35352 20.5248 6.35352H21.2833C21.3151 6.35352 21.343 6.36745 21.3629 6.39333C21.3808 6.41722 21.3888 6.45106 21.3788 6.48093L20.1525 10.9263C20.1406 10.9701 20.1007 11 20.0569 11V10.998ZM19.3821 10.7989H19.9813L21.1519 6.55259H20.6004L19.7742 9.7697C19.7623 9.81349 19.7245 9.84336 19.6787 9.84535C19.6329 9.84535 19.5951 9.81548 19.5831 9.77169L18.7112 6.55259H18.106L17.226 9.77766C17.2141 9.82146 17.1823 9.85331 17.1285 9.85132C17.0827 9.85132 17.0449 9.81947 17.0329 9.77567L16.2366 6.55259H15.6255L16.7801 10.7989H17.3933L18.309 7.45044C18.321 7.40664 18.3608 7.37678 18.4046 7.37678C18.4504 7.37678 18.4902 7.40664 18.5001 7.45044L19.3801 10.7989H19.3821Z" fill="#262626"/>
<path d="M21.9004 8.95944V8.41197C21.9004 8.39108 21.8835 8.37415 21.8626 8.37415H20.6522C20.6313 8.37415 20.6143 8.39108 20.6143 8.41197V8.95944C20.6143 8.98033 20.6313 8.99726 20.6522 8.99726H21.8626C21.8835 8.99726 21.9004 8.98033 21.9004 8.95944Z" fill="#040000"/>
<path d="M21.8627 9.09678H20.6523C20.5766 9.09678 20.5149 9.03507 20.5149 8.95942V8.41394C20.5149 8.3383 20.5766 8.27658 20.6523 8.27658H21.8627C21.9383 8.27658 22 8.3383 22 8.41394V8.95942C22 9.03507 21.9383 9.09678 21.8627 9.09678ZM20.714 8.8977H21.8009V8.47367H20.714V8.8977Z" fill="#262626"/>
<path d="M16.1989 8.95944V8.41197C16.1989 8.39108 16.1819 8.37415 16.161 8.37415H14.9506C14.9297 8.37415 14.9128 8.39108 14.9128 8.41197V8.95944C14.9128 8.98033 14.9297 8.99726 14.9506 8.99726H16.161C16.1819 8.99726 16.1989 8.98033 16.1989 8.95944Z" fill="#040000"/>
<path d="M16.161 9.09681H14.9506C14.8749 9.09681 14.8132 9.0351 14.8132 8.95945V8.41398C14.8132 8.33833 14.8749 8.27661 14.9506 8.27661H16.161C16.2366 8.27661 16.2984 8.33833 16.2984 8.41398V8.95945C16.2984 9.0351 16.2366 9.09681 16.161 9.09681ZM15.0123 8.89774H16.0993V8.4737H15.0123V8.89774Z" fill="#262626"/>
</svg>
