<svg width="50" height="50" viewBox="0 0 50 50" fill="none" xmlns="http://www.w3.org/2000/svg">
<mask id="mask0_245_1758" style="mask-type:alpha" maskUnits="userSpaceOnUse" x="0" y="0" width="50" height="50">
<rect width="50" height="50" rx="25" fill="#EBEDF2"/>
</mask>
<g mask="url(#mask0_245_1758)">
<rect width="50" height="50" rx="25" fill="#F6F6F6"/>
<path d="M32.2822 39.1285H17.24C17.24 39.1285 3.88566 40.5743 4.00074 49.5276V51.1465H45.516V49.5276C45.631 40.5743 32.2767 39.1361 32.2767 39.1361L32.2822 39.1285Z" fill="#00B2FF" stroke="#0E0000" stroke-linecap="round" stroke-linejoin="round"/>
<path d="M13.5928 22.8824V27.0614H34.8865V22.8824L24.3434 20.7082L13.5928 22.8824Z" fill="#030700" stroke="#0E0000" stroke-linecap="round" stroke-linejoin="round"/>
<path d="M13.5928 22.8824C13.5928 17.9769 17.5696 14 22.4752 14H26.0041C30.9096 14 34.8865 17.9769 34.8865 22.8824H13.5928Z" fill="#030700" stroke="#0E0000" stroke-linecap="round" stroke-linejoin="round"/>
<path d="M30.5331 39.0247C30.0415 38.5768 29.7246 37.9376 29.7246 37.222V34.0864H19.411V37.222C19.411 37.9376 19.0942 38.5768 18.6025 39.0193C21.9567 40.9148 25.8133 41.2699 30.5222 39.0193L30.5331 39.0247Z" fill="#F7C8C9" stroke="#0E0000" stroke-linecap="round" stroke-linejoin="round"/>
<path d="M15.6089 28.804C15.2976 29.0662 14.9261 29.2192 14.5273 29.2192C13.4348 29.2192 12.5498 28.072 12.5498 26.6571C12.5498 25.2423 13.4348 24.0951 14.5273 24.0951C14.9589 24.0951 15.3576 24.2754 15.6854 24.5813L15.6089 28.8095V28.804Z" fill="#F7C8C9" stroke="#0E0000" stroke-linecap="round" stroke-linejoin="round"/>
<path d="M32.8714 28.804C33.1828 29.0662 33.5542 29.2192 33.953 29.2192C35.0456 29.2192 35.9305 28.072 35.9305 26.6571C35.9305 25.2423 35.0456 24.0951 33.953 24.0951C33.5215 24.0951 33.1227 24.2754 32.7949 24.5813L32.8714 28.8095V28.804Z" fill="#F7C8C9" stroke="#0E0000" stroke-linecap="round" stroke-linejoin="round"/>
<path d="M24.4536 38.391H24.033C18.9417 38.391 14.8174 32.4039 14.8174 27.3126V25.0729C14.8174 23.7346 15.9809 22.7076 17.3084 22.8496C22.3723 23.4013 24.7213 20.7355 24.3444 20.7082C23.9674 20.6809 25.7538 23.09 31.1619 22.866C32.4948 22.7185 33.6692 23.7455 33.6692 25.0893V27.3126C33.6692 32.4039 29.5449 38.391 24.4536 38.391Z" fill="#F7C8C9" stroke="#0E0000" stroke-linecap="round" stroke-linejoin="round"/>
<path d="M21.8799 27.0614C21.8799 27.4274 21.6832 27.7224 21.4429 27.7224C21.2025 27.7224 21.0059 27.4274 21.0059 27.0614C21.0059 26.6954 21.2025 26.4004 21.4429 26.4004C21.6832 26.4004 21.8799 26.6954 21.8799 27.0614Z" fill="#030700" stroke="#0E0000" stroke-linecap="round" stroke-linejoin="round"/>
<path d="M26.627 27.0614C26.627 27.4274 26.8236 27.7224 27.064 27.7224C27.3043 27.7224 27.501 27.4274 27.501 27.0614C27.501 26.6954 27.3043 26.4004 27.064 26.4004C26.8236 26.4004 26.627 26.6954 26.627 27.0614Z" fill="#030700" stroke="#0E0000" stroke-linecap="round" stroke-linejoin="round"/>
<path d="M21.8857 30.3008C23.5246 31.2622 25.1634 31.2622 26.8022 30.3008" stroke="#0E0000" stroke-linecap="round" stroke-linejoin="round"/>
<path d="M19.9413 28.5144C19.9413 29.0225 19.4497 29.4322 18.8378 29.4322C18.226 29.4322 17.7344 29.0225 17.7344 28.5144C17.7344 28.0064 18.226 27.5967 18.8378 27.5967C19.4497 27.5967 19.9413 28.0064 19.9413 28.5144Z" fill="#F7A6AA"/>
<path d="M29.6425 29.4322C30.252 29.4322 30.746 29.0213 30.746 28.5144C30.746 28.0076 30.252 27.5967 29.6425 27.5967C29.0331 27.5967 28.5391 28.0076 28.5391 28.5144C28.5391 29.0213 29.0331 29.4322 29.6425 29.4322Z" fill="#F7A6AA"/>
<line x1="11.3105" y1="46.6216" x2="11.3105" y2="52.027" stroke="black"/>
<line x1="38.3379" y1="46.6216" x2="38.3379" y2="52.027" stroke="black"/>
</g>
</svg>
