<svg width="50" height="50" viewBox="0 0 50 50" fill="none" xmlns="http://www.w3.org/2000/svg">
<mask id="mask0_245_1829" style="mask-type:alpha" maskUnits="userSpaceOnUse" x="0" y="0" width="50" height="50">
<mask id="mask1_245_1829" style="mask-type:alpha" maskUnits="userSpaceOnUse" x="0" y="0" width="50" height="50">
<rect width="50" height="50" rx="25" fill="#F6F6F6"/>
</mask>
<g mask="url(#mask1_245_1829)">
<rect width="50" height="50" rx="25" fill="#F6F6F6"/>
</g>
</mask>
<g mask="url(#mask0_245_1829)">
<mask id="mask2_245_1829" style="mask-type:alpha" maskUnits="userSpaceOnUse" x="0" y="0" width="50" height="50">
<rect width="50" height="50" rx="25" fill="#F6F6F6"/>
</mask>
<g mask="url(#mask2_245_1829)">
<rect width="50" height="50" rx="25" fill="#F6F6F6"/>
</g>
<path d="M32.8193 39.1787H18.0234C18.0234 39.1787 4.88753 40.6008 5.00073 49.4076V51H45.8366V49.4076C45.9498 40.6008 32.8139 39.1861 32.8139 39.1861L32.8193 39.1787Z" fill="#FF757D" stroke="#0E0000" stroke-linecap="round" stroke-linejoin="round"/>
<path d="M14.4365 23.1984V27.309H35.3818V23.1984L25.0112 21.0598L14.4365 23.1984Z" fill="#030700" stroke="#0E0000" stroke-linecap="round" stroke-linejoin="round"/>
<path d="M31.0986 39.0766C30.615 38.636 30.3034 38.0073 30.3034 37.3034V34.2191H20.1585V37.3034C20.1585 38.0073 19.8469 38.636 19.3633 39.0712C22.6625 40.9357 26.4561 41.285 31.0879 39.0712L31.0986 39.0766Z" fill="#F7C8C9" stroke="#0E0000" stroke-linecap="round" stroke-linejoin="round"/>
<path d="M12.3842 25.4449C12.3842 25.4449 9.52355 34.5079 16.6889 34.4343C21.7019 34.3818 16.3956 29.3275 16.3956 29.3275L18.8413 16.4871C18.8413 16.4871 14.5033 18.6464 12.3842 25.4449Z" fill="#030700" stroke="#0E0000" stroke-linecap="round" stroke-linejoin="round"/>
<path d="M37.7883 25.4449C37.7883 25.4449 40.6489 34.5079 33.4835 34.4343C28.4705 34.3818 33.7768 29.3275 33.7768 29.3275L31.3312 16.4871C31.3312 16.4871 35.6691 18.6464 37.7883 25.4449Z" fill="#030700" stroke="#0E0000" stroke-linecap="round" stroke-linejoin="round"/>
<path d="M14.9414 23.5101C14.9414 18.7695 18.7306 14.9264 23.4046 14.9264H26.7669C31.4409 14.9264 35.2301 18.7695 35.2301 23.5101H14.9414Z" fill="#030700" stroke="#0E0000" stroke-linecap="round" stroke-linejoin="round"/>
<path d="M16.445 29.3102C16.2126 29.5897 15.9352 29.7528 15.6375 29.7528C14.8218 29.7528 14.1611 28.5299 14.1611 27.0216C14.1611 25.5133 14.8218 24.2904 15.6375 24.2904C15.9597 24.2904 16.2574 24.4826 16.5021 24.8087L16.445 29.316V29.3102Z" fill="#F7C8C9" stroke="#0E0000" stroke-linecap="round" stroke-linejoin="round"/>
<path d="M33.1809 29.3102C33.4134 29.5897 33.6907 29.7528 33.9885 29.7528C34.8041 29.7528 35.4648 28.5299 35.4648 27.0216C35.4648 25.5133 34.8041 24.2904 33.9885 24.2904C33.6663 24.2904 33.3685 24.4826 33.1238 24.8087L33.1809 29.316V29.3102Z" fill="#F7C8C9" stroke="#0E0000" stroke-linecap="round" stroke-linejoin="round"/>
<path d="M25.1182 38.4533H24.7045C19.6965 38.4533 15.6396 32.5641 15.6396 27.5562V25.3531C15.6396 24.0366 16.7842 23.0264 18.0899 23.1661C23.071 23.7088 25.3815 21.0867 25.0107 21.0598C24.64 21.0329 26.3971 23.4026 31.7167 23.1823C33.0277 23.0372 34.183 24.0474 34.183 25.3692V27.5562C34.183 32.5641 30.1261 38.4533 25.1182 38.4533Z" fill="#F7C8C9" stroke="#0E0000" stroke-linecap="round" stroke-linejoin="round"/>
<path d="M22.5873 27.309C22.5873 27.669 22.3938 27.9591 22.1574 27.9591C21.921 27.9591 21.7275 27.669 21.7275 27.309C21.7275 26.9489 21.921 26.6588 22.1574 26.6588C22.3938 26.6588 22.5873 26.9489 22.5873 27.309Z" fill="#030700" stroke="#0E0000" stroke-linecap="round" stroke-linejoin="round"/>
<path d="M27.2568 27.309C27.2568 27.669 27.4503 27.9591 27.6867 27.9591C27.9231 27.9591 28.1166 27.669 28.1166 27.309C28.1166 26.9489 27.9231 26.6588 27.6867 26.6588C27.4503 26.6588 27.2568 26.9489 27.2568 27.309Z" fill="#030700" stroke="#0E0000" stroke-linecap="round" stroke-linejoin="round"/>
<path d="M22.5928 30.4954C24.2048 31.4411 25.8168 31.4411 27.4288 30.4954" stroke="#0E0000" stroke-linecap="round" stroke-linejoin="round"/>
<path d="M20.6806 28.7383C20.6806 29.238 20.197 29.641 19.5952 29.641C18.9934 29.641 18.5098 29.238 18.5098 28.7383C18.5098 28.2386 18.9934 27.8356 19.5952 27.8356C20.197 27.8356 20.6806 28.2386 20.6806 28.7383Z" fill="#F7A6AA"/>
<path d="M30.2231 29.641C30.8226 29.641 31.3085 29.2368 31.3085 28.7383C31.3085 28.2397 30.8226 27.8356 30.2231 27.8356C29.6237 27.8356 29.1377 28.2397 29.1377 28.7383C29.1377 29.2368 29.6237 29.641 30.2231 29.641Z" fill="#F7A6AA"/>
</g>
</svg>
