<svg width="16" height="13" viewBox="0 0 16 13" fill="none" xmlns="http://www.w3.org/2000/svg">
<path d="M4.23894 3.8241H1.67842C1.39079 3.8241 1.15631 4.03978 1.15631 4.29928V8.70063C1.15631 8.9635 1.39079 9.17581 1.67842 9.17581H4.23894C4.27333 9.17581 4.30772 9.17244 4.34211 9.1657V3.83421C4.30772 3.82747 4.27645 3.8241 4.23894 3.8241Z" fill="black" stroke="white" stroke-linecap="round" stroke-linejoin="round"/>
<path d="M9.23804 1.21902L4.58909 3.59831C4.50155 3.64886 4.42026 3.73648 4.35461 3.83758C4.35148 3.83758 4.34523 3.83758 4.3421 3.83758V9.16908C4.3421 9.16908 4.35148 9.16908 4.35461 9.16908C4.42026 9.27018 4.50155 9.35443 4.58909 9.40836L9.23804 11.7876C9.45063 11.9123 9.62571 11.8011 9.62571 11.5383V1.4684C9.62571 1.20554 9.45063 1.09432 9.23804 1.21902Z" fill="black" stroke="white" stroke-linecap="round" stroke-linejoin="round"/>
<path d="M13.4086 10.2341C14.2965 9.27696 14.8436 7.95925 14.8436 6.5C14.8436 5.04075 14.2965 3.72304 13.4086 2.76593" stroke="white" stroke-linecap="round" stroke-linejoin="round"/>
<path d="M11.4578 4.8689C11.8454 5.28679 12.0862 5.86308 12.0862 6.50002C12.0862 7.13697 11.8454 7.71326 11.4578 8.13115" stroke="white" stroke-linecap="round" stroke-linejoin="round"/>
<path d="M11.4578 8.13115C11.8454 7.71326 12.0862 7.13697 12.0862 6.50002C12.0862 5.86308 11.8454 5.28679 11.4578 4.8689" stroke="white" stroke-linecap="round" stroke-linejoin="round"/>
</svg>
