<svg width="58" height="58" viewBox="0 0 58 58" fill="none" xmlns="http://www.w3.org/2000/svg">
<circle cx="28.8956" cy="28.8956" r="28.8956" fill="#FAFAFA"/>
<g style="mix-blend-mode:multiply">
<g clip-path="url(#clip0_395_564)">
<path d="M41 17H17V41H41V17Z" fill="#008CCF"/>
<path d="M17 17L22.9947 23.0018L28.9965 17H17Z" fill="#008CCF"/>
<path d="M17 17V28.9965L22.9947 23.0018L17 17Z" fill="#0095D6"/>
<path d="M28.9965 28.9965L23.0018 22.9947L17 28.9965H28.9965Z" fill="#008CCF"/>
<path d="M28.9967 28.9965V17L23.002 22.9947L28.9967 28.9965Z" fill="#007AC6"/>
<path d="M28.9961 17V28.9965L34.9978 23.0018L28.9961 17Z" fill="#0067B6"/>
<path d="M41.0004 28.9965L34.9986 22.9947L29.0039 28.9965H41.0004Z" fill="#004294"/>
<path d="M17 28.9965L22.9947 34.9982L28.9965 28.9965H17Z" fill="#007AC6"/>
<path d="M17 28.9965V41L22.9947 34.9982L17 28.9965Z" fill="#0067B6"/>
<path d="M28.9965 41L23.0018 34.9982L17 41H28.9965Z" fill="#005BAC"/>
<path d="M28.9967 41V29.0035L23.002 34.9983L28.9967 41Z" fill="#004898"/>
<path d="M28.9961 28.9965L34.9978 34.9982L40.9996 28.9965H28.9961Z" fill="#08287F"/>
<path d="M28.9961 28.9965V41L34.9978 34.9982L28.9961 28.9965Z" fill="#004294"/>
<path d="M41.0004 41L34.9986 34.9982L29.0039 41H41.0004Z" fill="#08287F"/>
<path d="M40.9998 41V29.0035L34.998 34.9983L40.9998 41Z" fill="#08287F"/>
<path d="M28.9961 17L34.9978 23.0018L40.9996 17H28.9961Z" fill="#005BAC"/>
<path d="M40.9998 28.9965V17L34.998 22.9947L40.9998 28.9965Z" fill="#004898"/>
<path d="M41.0007 32.0044L33.3162 24.6845L21.6562 36.3725L25.9122 40.6284L33.3162 33.3295L41.0007 40.972V32.0044Z" fill="white"/>
</g>
</g>
<defs>
<clipPath id="clip0_395_564">
<rect width="24" height="24" fill="white" transform="translate(17 17)"/>
</clipPath>
</defs>
</svg>
