<svg width="58" height="58" viewBox="0 0 58 58" fill="none" xmlns="http://www.w3.org/2000/svg">
<circle cx="28.8956" cy="28.8956" r="28.8956" fill="#FAFAFA"/>
<g style="mix-blend-mode:multiply">
<g clip-path="url(#clip0_494_464)">
<path d="M31.9152 20.5419H35.1704L30.6819 25.9477L35.6059 31.9588H32.1461L27.9373 27.0064H27.9073V31.9588H25.082V20.5419H27.9073V25.2518H27.9373L31.9152 20.5419Z" fill="#5C4B4D"/>
<path d="M41.7439 30.9396C41.7439 31.669 41.1788 32.2605 40.4842 32.2605C39.7897 32.2605 39.2246 31.669 39.2246 30.9396C39.2246 30.2101 39.7897 29.6167 40.4842 29.6167C41.1788 29.6167 41.7439 30.2081 41.7439 30.9396Z" fill="#E94709"/>
<path d="M40.4834 29.0844C40.765 29.0844 41.0297 28.9858 41.24 28.2899C41.7206 26.7087 42.3645 21.7011 41.8557 20.3566C41.5704 19.6015 40.9227 19.4102 40.4834 19.4102C40.0442 19.4102 39.3965 19.6015 39.1112 20.3566C38.6043 21.7011 39.2463 26.7087 39.7269 28.2899C39.9372 28.9858 40.2019 29.0844 40.4834 29.0844Z" fill="#E94709"/>
<path d="M40.4878 17.5294C42.2844 17.5294 43.8857 18.393 44.9332 19.7355L46.6734 17.9454C45.1772 16.1435 42.9602 14.998 40.4878 14.998C38.0155 14.998 35.7872 16.1474 34.291 17.9573L36.0331 19.7474C37.0787 18.3949 38.6857 17.5275 40.4878 17.5275" fill="#F6AB00"/>
<path d="M24.0238 26.0384C24.0238 29.7311 21.5008 32.3374 18.0128 32.3374C14.5249 32.3374 12 29.7311 12 26.0384C12 22.5863 14.8835 20.1634 18.0128 20.1634C21.1422 20.1634 24.0238 22.5863 24.0238 26.0384ZM14.9417 26.0542C14.9417 28.0218 16.3252 29.459 18.0128 29.459C19.7005 29.459 21.0822 28.0218 21.0822 26.0542C21.0822 24.479 19.6986 23.0398 18.0128 23.0398C16.3271 23.0398 14.9417 24.479 14.9417 26.0542Z" fill="#5C4B4D"/>
</g>
</g>
<g clip-path="url(#clip1_494_464)">
<path d="M21.2719 37.7853V39.6476H20.2443C20.2207 39.5706 20.1971 39.4949 20.171 39.4205C20.0828 39.1625 19.9797 38.9392 19.8641 38.7454H20.6668V37.9175H17V38.7454H17.7567C17.6387 38.9392 17.5343 39.1625 17.4436 39.4205C17.3417 39.7079 17.2597 40.0237 17.1951 40.3664C17.1317 40.7078 17.082 41.0723 17.0497 41.4586C17.0162 41.8449 17 42.2377 17 42.6394H17.9443C17.9443 42.1696 17.963 41.7114 18.0015 41.2648C18.0388 40.8181 18.0947 40.4177 18.168 40.066C18.2413 39.7144 18.332 39.4307 18.4414 39.2151C18.5507 39.0008 18.6737 38.893 18.8104 38.893C18.9471 38.893 19.0676 39.0008 19.172 39.2151C19.2764 39.4307 19.3633 39.7144 19.4342 40.066C19.505 40.4177 19.5597 40.8169 19.597 41.2648C19.6342 41.7114 19.6541 42.1696 19.6541 42.6394H20.6121C20.6121 42.2389 20.596 41.8449 20.5624 41.4586C20.5338 41.121 20.4916 40.8015 20.4394 40.4986H21.2719V44.2296H22.2374V37.7853H21.2719V37.7853Z" fill="#5C4B4D"/>
<path d="M23.9616 39.6617C23.8286 39.9313 23.7578 40.2072 23.7491 40.4909H24.6711C24.6847 40.315 24.7295 40.1379 24.8028 39.9595C24.8761 39.7811 24.9705 39.6181 25.0861 39.4718C25.2016 39.3255 25.3346 39.2074 25.4837 39.1163C25.6328 39.0264 25.7931 38.9802 25.9633 38.9802C26.1336 38.9802 26.2951 39.0251 26.4492 39.1163C26.602 39.2061 26.7387 39.3255 26.8567 39.4718C26.9748 39.6181 27.0704 39.7811 27.1438 39.9595C27.2171 40.1379 27.2606 40.315 27.2755 40.4909H28.1912C28.1813 40.2072 28.1092 39.9313 27.975 39.6617C27.8433 39.3986 27.6743 39.165 27.4668 38.9584H28.3689V38.1511H26.4951V37.5582H25.4874V38.1511H23.6348V38.9571H24.4586C24.256 39.1638 24.0908 39.3986 23.9616 39.6605" fill="#5C4B4D"/>
<path d="M28.8649 41.5394V40.7398H23.0957V41.5394H25.5647V42.0079H23.748V42.8216H27.2049V44.2219H28.1703V42.0079H26.5451V41.5394H28.8649Z" fill="#5C4B4D"/>
<path d="M29.375 41.0107H35.1454V41.8026H29.375V41.0107V41.0107ZM34.6695 43.4377V44.2514H31.5967C31.3793 44.2514 31.1767 44.2232 30.9891 44.1667C30.8027 44.1102 30.6387 44.0242 30.4995 43.9061C30.3604 43.7894 30.251 43.6392 30.1727 43.4556C30.0944 43.2721 30.0559 43.0565 30.0559 42.8075V42.0528H31.0636V42.7343C31.0636 42.8768 31.0786 42.9923 31.1096 43.0822C31.1407 43.1733 31.1904 43.2452 31.2587 43.2991C31.3271 43.353 31.414 43.3889 31.5184 43.4082C31.6228 43.4287 31.7458 43.4377 31.8875 43.4377H34.6695ZM32.3273 40.8284C32.0192 40.8284 31.7421 40.7899 31.4936 40.7155C31.2451 40.6397 31.0338 40.5332 30.8586 40.3959C30.6834 40.2585 30.548 40.0968 30.4535 39.9082C30.3591 39.7195 30.3119 39.5129 30.3119 39.2883C30.3119 39.0636 30.3703 38.8288 30.4858 38.6144C30.6014 38.3988 30.7542 38.2101 30.9431 38.0459C31.132 37.8816 31.3482 37.7519 31.5892 37.6531C31.8303 37.5556 32.0763 37.5068 32.3273 37.5068C32.5783 37.5068 32.8318 37.5556 33.0729 37.6531C33.3139 37.7507 33.5289 37.8816 33.719 38.0459C33.9079 38.2101 34.0607 38.3988 34.1763 38.6144C34.2918 38.8288 34.3502 39.0534 34.3502 39.2883C34.3502 39.5231 34.303 39.7195 34.2086 39.9082C34.1141 40.0955 33.9787 40.2585 33.8035 40.3959C33.6283 40.5332 33.4158 40.6385 33.1648 40.7155C32.9138 40.7912 32.6355 40.8284 32.3273 40.8284M32.3273 38.2923C32.2093 38.2923 32.0888 38.3154 31.9657 38.3616C31.8427 38.4078 31.7309 38.4745 31.6315 38.5592C31.5321 38.6452 31.4513 38.7479 31.3904 38.8673C31.3283 38.9866 31.2985 39.1201 31.2985 39.2664C31.2985 39.3884 31.3271 39.4987 31.3842 39.5963C31.4414 39.6938 31.5172 39.7785 31.6116 39.8491C31.706 39.9197 31.8166 39.9749 31.9409 40.0147C32.0664 40.0532 32.1981 40.0737 32.3348 40.0737C32.4715 40.0737 32.5957 40.0545 32.7212 40.0147C32.8467 39.9749 32.9561 39.921 33.0517 39.8491C33.1462 39.7785 33.222 39.6938 33.2791 39.5963C33.3363 39.4987 33.3636 39.3884 33.3636 39.2664C33.3636 39.1098 33.3301 38.9725 33.2605 38.8519C33.1921 38.7312 33.1064 38.6311 33.0058 38.5477C32.9039 38.4643 32.7908 38.4014 32.669 38.3565C32.546 38.3128 32.4317 38.291 32.3286 38.291" fill="#5C4B4D"/>
<path d="M35.3223 38.8634V38.0998H36.3089V37.5286H37.3091V38.0998H38.2174V38.8621H35.3223V38.8634ZM36.8059 41.7153C36.6257 41.7153 36.4567 41.6845 36.2989 41.6242C36.1399 41.5625 36.0019 41.4791 35.8839 41.3713C35.7659 41.2635 35.6714 41.1352 35.6031 40.9863C35.5347 40.8374 35.5 40.677 35.5 40.5063C35.5 40.3163 35.5347 40.1276 35.6031 39.9415C35.6714 39.7554 35.7659 39.5899 35.8864 39.4436C36.0069 39.296 36.1461 39.1779 36.3051 39.088C36.4642 38.9969 36.6357 38.952 36.8196 38.952C37.0035 38.952 37.1687 38.9969 37.3265 39.088C37.4843 39.1792 37.6235 39.2972 37.7415 39.4436C37.8596 39.5899 37.9528 39.7554 38.0223 39.9415C38.0907 40.1276 38.1255 40.315 38.1255 40.5063C38.1255 40.677 38.0919 40.8374 38.0261 40.9863C37.9602 41.1352 37.867 41.2635 37.749 41.3713C37.6309 41.4791 37.4905 41.5625 37.3302 41.6242C37.17 41.6858 36.9948 41.7153 36.8046 41.7153M36.8121 39.7285C36.7462 39.7285 36.6829 39.7464 36.6207 39.7837C36.5586 39.8209 36.5052 39.8722 36.458 39.9377C36.4107 40.0044 36.3735 40.0801 36.3449 40.1649C36.3163 40.2496 36.3026 40.342 36.3026 40.4395C36.3076 40.6012 36.361 40.7283 36.4654 40.8246C36.5698 40.9195 36.6854 40.967 36.8133 40.967C36.9413 40.967 37.0569 40.9195 37.1613 40.8246C37.2656 40.7296 37.3203 40.6012 37.3253 40.4395C37.3253 40.342 37.3116 40.2496 37.283 40.1649C37.2544 40.0789 37.2172 40.0031 37.17 39.9377C37.1227 39.8722 37.0681 39.8209 37.0072 39.7837C36.9463 39.7477 36.8817 39.7285 36.8158 39.7285M40.6914 43.1001C40.6914 43.3055 40.6429 43.4929 40.546 43.6649C40.4491 43.8356 40.3111 43.9832 40.131 44.1089C39.9508 44.2334 39.7309 44.331 39.4712 44.4016C39.2102 44.4722 38.9145 44.5081 38.584 44.5081C38.2535 44.5081 37.949 44.4734 37.6856 44.4016C37.4234 44.331 37.2023 44.2334 37.0221 44.1089C36.8419 43.9844 36.704 43.8356 36.6071 43.6649C36.5102 43.4942 36.4617 43.3055 36.4617 43.1001C36.4617 42.8948 36.5102 42.7048 36.6071 42.5277C36.704 42.3519 36.8419 42.2017 37.0221 42.0772C37.2023 41.9527 37.4234 41.8552 37.6856 41.7846C37.949 41.714 38.2473 41.6781 38.584 41.6781C38.9207 41.6781 39.2102 41.714 39.4712 41.7846C39.7309 41.8552 39.9508 41.9527 40.131 42.0772C40.3111 42.2017 40.4491 42.3519 40.546 42.5277C40.6429 42.7035 40.6914 42.8935 40.6914 43.1001ZM37.4408 43.086C37.4408 43.2862 37.5415 43.448 37.7428 43.5699C37.9441 43.6918 38.2212 43.7534 38.5765 43.7534C38.9319 43.7534 39.209 43.6918 39.4103 43.5699C39.6116 43.448 39.7122 43.2862 39.7122 43.086C39.7122 42.8999 39.6116 42.7446 39.4103 42.6201C39.209 42.4956 38.9319 42.4327 38.5765 42.4327C38.2212 42.4327 37.9441 42.4943 37.7428 42.6201C37.5415 42.7446 37.4408 42.8999 37.4408 43.086ZM38.5616 41.4509V37.7853H39.4699V39.2151H39.8887V37.7853H40.8044V41.619H39.8887V40.057H39.4699V41.4496H38.5616V41.4509Z" fill="#5C4B4D"/>
</g>
<defs>
<clipPath id="clip0_494_464">
<rect width="34.6748" height="17.3374" fill="white" transform="translate(12 15)"/>
</clipPath>
<clipPath id="clip1_494_464">
<rect width="23.8" height="7" fill="white" transform="translate(17 37.5068)"/>
</clipPath>
</defs>
</svg>
