<svg width="58" height="58" viewBox="0 0 58 58" fill="none" xmlns="http://www.w3.org/2000/svg">
<circle cx="28.8956" cy="28.8956" r="28.8956" fill="#FAFAFA"/>
<path d="M35.1824 14L25.3691 23.8167L35.1858 33.6299L44.9991 23.8133L35.1824 14Z" fill="#EE0790"/>
<path d="M23.489 14.4498H16V21.9388H23.489V14.4498Z" fill="#EE0790"/>
<path d="M23.489 25.6832H16V33.1722H23.489V25.6832Z" fill="#EE0790"/>
<path d="M22.1397 38.53H20.8597V37.97C20.8597 37.77 20.6897 37.6 20.4897 37.6H18.1797V38.2H20.0497V39.34H18.1797V41.36C18.1797 41.56 18.3497 41.73 18.5497 41.73H20.8697V41.13H18.9997V39.95H20.8697V39.13H22.1497V40.24H20.8697V40.84H22.1497V43.43H22.9597V37.6H22.1497V38.53H22.1397Z" fill="#2E0F6E"/>
<path d="M16.79 40.29V37.97C16.79 37.77 16.63 37.6 16.42 37.6H12.46V38.2H15.99V38.61V40.29C15.99 40.77 15.94 41.55 15.58 42.21H14.66V40.01H13.85V42.2H12V42.8H17.26V42.2H16.47C16.66 41.77 16.8 41.09 16.8 40.29" fill="#2E0F6E"/>
<path d="M36.3086 40.6V41.19H36.8686V43.09C36.8686 43.3 37.0386 43.46 37.2386 43.46H41.3886V42.85H37.6786V41.19H41.6886V40.6H36.3086Z" fill="#2E0F6E"/>
<path d="M38.9988 40.32C39.9788 40.32 40.7788 39.61 40.7788 38.74C40.7788 37.87 39.9788 37.16 38.9988 37.16C38.0188 37.16 37.2188 37.87 37.2188 38.74C37.2188 39.61 38.0088 40.32 38.9988 40.32ZM38.9988 37.73C39.5588 37.73 40.0088 38.19 40.0088 38.75C40.0088 39.31 39.5588 39.77 38.9988 39.77C38.4388 39.77 37.9888 39.31 37.9888 38.75C37.9888 38.19 38.4388 37.73 38.9988 37.73Z" fill="#2E0F6E"/>
<path d="M44.8789 38.97C44.8789 38.68 44.7689 38.4 44.5789 38.19H44.9489V37.58H43.7889V37H43.0389V37.58H41.8789V38.18H42.2389C42.0489 38.4 41.9389 38.67 41.9389 38.96C41.9389 39.68 42.5989 40.26 43.4089 40.26C44.2189 40.26 44.8789 39.68 44.8789 38.96M43.4089 39.73C42.9789 39.73 42.6389 39.38 42.6389 38.95C42.6389 38.52 42.9789 38.17 43.4089 38.17C43.8389 38.17 44.1789 38.52 44.1789 38.95C44.1789 39.38 43.8389 39.73 43.4089 39.73Z" fill="#2E0F6E"/>
<path d="M47.1108 37.48H46.4408V38.5H45.9608V37.48H45.2908V40.61C44.3308 40.63 43.5508 41.3 43.5508 42.14C43.5508 42.98 44.3508 43.67 45.3308 43.67C46.3108 43.67 47.1108 42.99 47.1108 42.14V42.06V37.48ZM46.4408 39.1V40.94C46.3008 40.84 46.1308 40.77 45.9608 40.71V39.1H46.4408ZM45.3308 43.14C44.7808 43.14 44.3308 42.69 44.3308 42.14C44.3308 41.59 44.7808 41.14 45.3308 41.14C45.8808 41.14 46.3308 41.59 46.3308 42.14C46.3308 42.69 45.8808 43.14 45.3308 43.14Z" fill="#2E0F6E"/>
<path d="M28.3911 38.99H27.3711V39.6H28.3911V43.44H29.1811V37.59H28.3911V38.99Z" fill="#2E0F6E"/>
<path d="M26.1397 38.54V38.21H27.3097V37.6H24.1897V38.2H25.2697V38.53C25.2697 39.83 24.7397 40.55 23.9297 41.22L24.2797 41.71C24.7897 41.37 25.3497 40.88 25.6997 40.19C26.0497 40.88 26.6097 41.36 27.1197 41.71L27.4697 41.22C26.6697 40.55 26.1297 39.83 26.1297 38.53" fill="#2E0F6E"/>
<path d="M30.2188 40.81H32.4788V41.45H30.5888V42.05H34.2987V43.44H35.1088V41.45H33.2188V40.81H35.4788V40.21H30.2188V40.81Z" fill="#2E0F6E"/>
<path d="M30.4514 39.35L30.6314 39.93C31.1314 39.87 32.2714 39.69 32.8514 39.11C33.4314 39.69 34.5714 39.87 35.0714 39.93L35.2514 39.35C34.4014 39.22 33.4014 38.95 33.2914 38.3H35.1014V37.7H33.2214V37.11H32.4714V37.7H30.5914V38.3H32.4014C32.3014 38.95 31.2914 39.22 30.4414 39.35" fill="#2E0F6E"/>
</svg>
