<svg width="58" height="58" viewBox="0 0 58 58" fill="none" xmlns="http://www.w3.org/2000/svg">
<circle cx="28.8956" cy="28.8956" r="28.8956" fill="#FAFAFA"/>
<g style="mix-blend-mode:multiply" clip-path="url(#clip0_395_586)">
<path d="M23.9079 37.6527V35.7384H22.5063V37.9262C22.5063 38.4169 22.82 38.819 23.6141 38.823H28.3866V37.8216H24.0866C23.9873 37.8216 23.9079 37.7452 23.9079 37.6527ZM43.4425 33.0076C43.4425 32.4366 43.1844 31.9298 42.7477 31.592H43.5378V30.6992H42.0925V29.919H40.7466V30.6992H39.2894V31.592H40.0994C39.6587 31.9298 39.4006 32.4366 39.4006 33.0076C39.4006 34.0211 40.29 34.8415 41.4255 34.8415C42.5412 34.8415 43.4504 34.0211 43.4504 33.0076M41.4255 33.9568C40.8577 33.9568 40.4805 33.5264 40.4805 32.9875C40.4805 32.4486 40.8577 32.0183 41.4255 32.0183C41.9933 32.0183 42.3705 32.4486 42.3705 32.9875C42.3705 33.5264 41.9893 33.9568 41.4255 33.9568ZM32.8374 37.6527V36.1768H31.4517V37.9302C31.4517 38.4209 31.7654 38.823 32.5595 38.8271H37.6893V37.8257H33.0121C32.9129 37.8257 32.8335 37.7493 32.8335 37.6568M30.0939 35.481H38.6025V34.4796H30.0939V35.481ZM34.3462 33.8401C35.7835 33.8401 36.9627 32.9312 36.9627 31.7891C36.9627 30.6509 35.7835 29.738 34.3462 29.738C32.9089 29.738 31.7297 30.6509 31.7297 31.7891C31.7297 32.9312 32.9089 33.8401 34.3462 33.8401ZM34.3462 30.7233C35.0847 30.7233 35.6684 31.2059 35.6723 31.785C35.6723 32.3682 35.0847 32.8508 34.3462 32.8508C33.6077 32.8508 33.0201 32.3682 33.0201 31.785C33.0201 31.2019 33.6077 30.7233 34.3462 30.7233ZM45.8009 29.923V31.6202H45.2173V29.923H44.0222V34.4716H44.7011C45.0267 34.4716 45.2173 34.2463 45.2173 33.9568V32.698H45.8009V34.4716H46.4838C46.8094 34.4716 47 34.2463 47 33.9568V29.923H45.8009ZM44.3041 34.8536C42.8866 34.8536 41.7352 35.7746 41.7352 36.9248C41.7352 38.079 42.8866 38.996 44.3041 39C45.7175 39 46.869 38.075 46.8729 36.9248C46.8729 35.7746 45.7175 34.8536 44.3041 34.8536ZM44.3041 38.0026C43.6013 38.0026 43.0375 37.516 43.0375 36.9248C43.0375 36.3336 43.5973 35.851 44.3041 35.851C45.0068 35.851 45.5706 36.3376 45.5706 36.9248C45.5706 37.516 45.0068 38.0026 44.3041 38.0026ZM28.188 29.923H26.8699V36.0038H27.652C27.9895 36.0038 28.1841 35.7746 28.1841 35.473V32.7945H29.3792V31.6684H28.1841V29.923H28.188ZM13.7198 33.9206H17.579C18.3731 33.9206 18.6828 33.5184 18.6828 33.0278V29.923H17.4202V30.8037H13.8706V29.923H12.612V33.0278C12.612 33.5184 12.9217 33.9206 13.7198 33.9206ZM13.8825 31.777H17.4123V32.7663C17.4123 32.8629 17.3329 32.9393 17.2336 32.9393H14.0572C13.958 32.9393 13.8786 32.8629 13.8786 32.7663V31.777H13.8825ZM11 35.8389H14.9069V38.7104H15.7645C16.1298 38.7104 16.3402 38.4611 16.3402 38.0951V35.8349H19.9692V34.8214H11V35.8349V35.8389ZM25.4524 34.8536L25.4881 34.8697L26.0758 34.0855L26.0162 34.0452C24.9204 33.3053 24.0667 32.2556 24.0707 30.9727V30.116H22.6453V30.9727C22.6453 32.3119 21.609 33.5626 20.676 34.1579L20.6363 34.182L21.2239 34.9662L21.2596 34.9501C21.9902 34.5801 22.9629 33.5908 23.36 32.8588C23.7372 33.5425 24.6742 34.4675 25.4564 34.8536" fill="#655C4F"/>
<path d="M42.1121 20.5323H42.8268C42.8744 20.5323 42.9102 20.4921 42.9102 20.4478V19.0885C42.9102 19.0402 42.8744 19 42.8268 19H41.8262C40.6669 19 40.0515 19.374 39.7021 20.1743L37.5223 25.5836C37.3913 25.9053 37.2007 26.0581 36.8235 26.0581V19.0885C36.8235 19.0402 36.7878 19 36.7401 19H35.14C35.0924 19 35.0566 19.0402 35.0566 19.0885V27.4416C35.0566 27.522 35.1241 27.5904 35.2075 27.5904H37.0022C38.1615 27.5904 38.6896 27.2164 39.043 26.416L41.1949 21.0752C41.3696 20.6972 41.6158 20.5323 42.1201 20.5323" fill="#D71921"/>
<path d="M22.5339 23.2952C23.1771 23.0257 23.7091 22.4185 23.7091 21.409C23.7091 19.9089 22.4386 19 20.906 19H16.1732C16.1256 19 16.0898 19.0402 16.0898 19.0845V20.4478C16.0898 20.4961 16.1295 20.5323 16.1732 20.5323H20.5804C21.2911 20.5323 21.7715 20.9747 21.7715 21.5136C21.7715 22.0525 21.2911 22.4949 20.5804 22.4949H17.9639V21.4814C17.9639 21.4331 17.9242 21.3969 17.8805 21.3969H16.1772C16.1295 21.3969 16.0938 21.4331 16.0938 21.4814V27.5019C16.0938 27.5502 16.1335 27.5864 16.1772 27.5864H20.8425C22.5855 27.5864 23.8362 26.7619 23.8362 25.0808C23.8362 24.2564 23.3558 23.5727 22.5378 23.2912M20.6717 26.0903H17.9639V24.0754H20.6717C21.4023 24.0754 21.8946 24.5258 21.8946 25.0808C21.8946 25.6358 21.4023 26.0863 20.6717 26.0863" fill="#D71921"/>
<path d="M43.7694 27.4938L41.0219 23.9346C41.0219 23.9346 41.0021 23.9266 40.9981 23.9346L40.2596 25.7685C40.2596 25.7685 40.2556 25.7926 40.2596 25.8007L41.4626 27.4335C41.546 27.5501 41.6453 27.5903 41.7842 27.5903H43.7178C43.7734 27.5903 43.7972 27.534 43.7655 27.4938" fill="#D71921"/>
<path d="M26.8418 21.401H25.2377C25.1901 21.401 25.1504 21.4372 25.1504 21.4855V27.506C25.1504 27.5542 25.1901 27.5904 25.2377 27.5904H26.8418C26.8855 27.5904 26.9252 27.5502 26.9252 27.506V21.4855C26.9252 21.4372 26.8855 21.401 26.8418 21.401Z" fill="#D71921"/>
<path d="M33.4367 19H31.8366C31.789 19 31.7532 19.0402 31.7532 19.0845V26.0581C31.376 26.0581 31.1855 25.9053 31.0544 25.5836L28.8747 20.1743C28.5213 19.378 27.9059 19 26.7465 19H25.2377C25.1901 19 25.1504 19.0402 25.1504 19.0845V20.4478C25.1504 20.4921 25.1901 20.5323 25.2377 20.5323H26.4606C26.9649 20.5323 27.215 20.6972 27.3858 21.0752L29.5377 26.416C29.8871 27.2164 30.4192 27.5904 31.5746 27.5904H33.3692C33.4526 27.5904 33.5201 27.522 33.5201 27.4376V19.0845C33.5201 19.0362 33.4804 19 33.4367 19Z" fill="#D71921"/>
</g>
<defs>
<clipPath id="clip0_395_586">
<rect width="36" height="20" fill="white" transform="translate(11 19)"/>
</clipPath>
</defs>
</svg>
