<svg width="58" height="58" viewBox="0 0 58 58" fill="none" xmlns="http://www.w3.org/2000/svg">
<circle cx="28.8956" cy="28.8956" r="28.8956" fill="#FAFAFA"/>
<g clip-path="url(#clip0_491_514)">
<path d="M33.3274 27.8123C33.2633 27.4342 33.1606 27.0625 33.0003 26.7223C32.5127 25.6827 31.8264 24.8007 30.8 24.2147C29.2028 23.3012 27.272 23.3075 25.694 24.2462C24.9755 24.6684 24.3918 25.2795 24.0133 26.0103C23.885 26.2561 23.7824 26.5207 23.6926 26.7853C23.2756 28.0832 23.2949 29.8284 24.0454 31.0129C24.2892 31.4035 24.642 31.7311 25.0782 31.8949C25.5079 32.0587 26.0275 32.0398 26.4124 31.7941C26.9127 31.4728 27.0026 30.8679 26.9127 30.3261C26.7973 29.6331 26.7011 28.9589 26.9641 28.2785C27.0475 28.0643 27.1629 27.8501 27.3297 27.6988C27.4323 27.598 27.5542 27.5224 27.6825 27.4594C27.9519 27.3271 28.2662 27.2704 28.5613 27.3208C29.0809 27.4027 29.5107 27.7997 29.7416 28.2722C29.9725 28.7384 30.0367 29.2676 30.0623 29.7906C30.1714 32.0587 29.6262 34.3962 29.036 36.5761C28.9783 36.8029 28.9141 37.0234 28.85 37.244C28.7987 37.4141 28.7153 37.6346 28.8243 37.8047C28.8756 37.874 28.9462 37.9244 29.0296 37.9622C29.3696 38.0945 29.6518 37.8929 29.8763 37.6661C31.2298 36.3304 32.0958 34.6104 32.6859 32.8337C32.904 32.1721 33.0965 31.5043 33.2248 30.8175C33.398 29.8788 33.5006 28.8077 33.3274 27.8186" fill="#009590"/>
<path d="M42.9999 17.2969C42.9999 16.9882 42.692 16.7928 42.3649 16.7991C42.0313 16.8117 41.7234 16.963 41.4155 17.0638C35.4755 19.0484 28.7658 19.4201 22.5051 18.6326C21.4338 18.5003 20.3498 18.3049 19.2721 18.16C18.5986 18.0655 17.9314 17.9332 17.2515 17.8891C16.6742 17.8513 15.9493 17.8324 15.481 18.1915C14.8588 18.6578 14.9037 19.5461 15.2565 20.1321C15.6799 20.8314 16.4176 21.3606 17.1809 21.7576C17.925 22.1482 18.8167 22.564 19.7019 22.5136C22.0945 22.3813 24.4808 22.1797 26.8606 21.9025C30.9211 21.4425 35.174 21.0078 38.9844 19.628C40.2288 19.1807 41.4604 18.6137 42.5252 17.8891C42.7177 17.7631 42.9999 17.5489 42.9999 17.3032" fill="#009590"/>
<path d="M25.9562 15.3564C25.9562 16.629 27.0018 17.656 28.2911 17.656C29.5805 17.656 30.6261 16.629 30.6261 15.3564C30.6261 15.1673 30.5812 14.9783 30.4978 14.8082C30.2989 14.3924 30.0744 14.1908 30.0936 13.6867C30.1257 13.0126 29.2405 13.0063 28.7658 13.0063C28.2462 13.0063 27.701 13.0756 27.2327 13.3087C26.8607 13.4914 26.5399 13.775 26.3154 14.1215C26.0845 14.4743 25.9562 14.8901 25.9434 15.3122V15.3627" fill="#ED1551"/>
</g>
<g style="mix-blend-mode:multiply">
<g clip-path="url(#clip1_491_514)">
<path d="M15.2022 40.623V40H16.1202V40.623H17.3443V41.2131H16.6995C16.8415 41.388 16.9563 41.5956 17.0437 41.8361C17.1311 42.0765 17.1749 42.3388 17.1803 42.623C17.1803 42.9016 17.1366 43.1585 17.0601 43.3989C16.9836 43.6339 16.8798 43.8361 16.7432 44.0109C16.6066 44.1858 16.4481 44.3224 16.2623 44.4153C16.0765 44.5082 15.8743 44.5574 15.6503 44.5574C15.4208 44.5574 15.2077 44.5137 15.0219 44.4153C14.8361 44.3169 14.6721 44.1803 14.541 44.0109C14.4044 43.8361 14.3005 43.6284 14.2295 43.3934C14.1585 43.1585 14.1202 42.9016 14.1202 42.6175C14.1202 42.3333 14.1639 42.071 14.2459 41.8306C14.3333 41.5902 14.4481 41.3825 14.5902 41.2077H14V40.623H15.2022ZM15.6612 41.224C15.4754 41.224 15.3224 41.3497 15.1967 41.6066C15.071 41.8634 15.0109 42.2022 15.0164 42.6175C15.0164 43.0219 15.071 43.3497 15.1913 43.5956C15.3115 43.8415 15.4645 43.9617 15.6503 43.9617C15.8361 43.9617 15.9891 43.8415 16.1093 43.5956C16.2295 43.3552 16.2951 43.0273 16.2951 42.6175C16.2951 42.1749 16.235 41.8306 16.1148 41.5902C15.9945 41.3443 15.8415 41.224 15.6612 41.224V41.224ZM18.8197 42.3934V45.9344H17.9344V40H18.8197V41.8033H19.6721V42.3934H18.8197V42.3934Z" fill="#221E1F"/>
<path d="M21.2725 43.6393H23.0375C23.125 43.6393 23.2179 43.6393 23.3053 43.6284C23.3927 43.6175 23.4802 43.6011 23.5621 43.5792C23.6496 43.5574 23.737 43.5191 23.8354 43.4645V40H24.7206V41.8033H25.5731V42.3934H24.7206V45.9344H23.8354V44.0546C23.6769 44.1257 23.502 44.1694 23.3053 44.1967C23.1086 44.224 22.9228 44.235 22.737 44.235H20.7753C20.5785 44.235 20.4146 44.153 20.2889 43.9945C20.1578 43.8361 20.0977 43.6448 20.0977 43.4208V40.2623H20.9829V43.3989C20.9829 43.4754 21.0048 43.5355 21.0539 43.5792C21.1031 43.623 21.1742 43.6393 21.2725 43.6393V43.6393Z" fill="#221E1F"/>
<path d="M27.1806 42.3934H25.9347V41.8033H27.35C27.3664 41.6995 27.3828 41.5956 27.3937 41.4863C27.4047 41.377 27.4101 41.2732 27.4101 41.1585V40.918H25.9347V40.3279H28.3282V40.9891C28.3282 41.3934 28.268 41.7869 28.1588 42.1585C28.0495 42.5301 27.891 42.8689 27.6779 43.1694C27.4702 43.4699 27.2134 43.7268 26.9074 43.9399C26.6014 44.153 26.2571 44.3005 25.8691 44.388V43.7923C26.1752 43.6612 26.4374 43.4754 26.6615 43.2295C26.8801 42.9891 27.0549 42.7104 27.1806 42.3934V42.3934ZM29.738 42.4262V45.9344H28.8855V40H29.738V41.8361H30.1642V40H31.0167V45.9344H30.1642V42.4262H29.738V42.4262Z" fill="#221E1F"/>
<path d="M31.8355 40.918V40.3279H35.0814V40.918H34.5896V42.4973C34.5896 42.7432 34.5787 42.9672 34.5568 43.1749C34.535 43.3825 34.5077 43.5355 34.4694 43.6393H34.6552V44.2295H31.8027V43.6393H32.3273V40.918H31.8355V40.918ZM33.2126 43.6393H33.5842C33.6279 43.5246 33.6607 43.3716 33.677 43.1694C33.6934 42.9727 33.7044 42.7486 33.7044 42.4973V40.918H33.2126V43.6393ZM34.0322 43.6393H34.4913C34.6333 43.6393 34.7645 43.6393 34.8902 43.6393C35.0158 43.6393 35.1361 43.623 35.2563 43.6011C35.371 43.5792 35.4803 43.5464 35.5896 43.4973C35.6989 43.4536 35.8082 43.3825 35.9175 43.2896V43.8689C35.7645 44.0109 35.5568 44.1093 35.3 44.1585C35.0377 44.2077 34.7754 44.2295 34.5077 44.2295H34.0377V43.6393H34.0322ZM36.5896 40V45.9344H35.7044V40H36.5896Z" fill="#221E1F"/>
<path d="M37.8027 40.1311H40.5896V40.7213H38.688V41.2131H40.524V41.8033H38.688V42.0874C38.688 42.1639 38.7098 42.224 38.759 42.2678C38.8082 42.3115 38.8792 42.3279 38.9776 42.3279H40.5295C40.7208 42.3279 40.8956 42.3224 41.0486 42.306C41.2016 42.2896 41.3656 42.2404 41.535 42.153V40H42.4202V41.082H43.2727V41.6721H42.4202V43.1148H41.535V42.7268C41.3765 42.8033 41.2126 42.8525 41.0486 42.8798C40.8847 42.9071 40.6989 42.918 40.5077 42.918H38.4803C38.2836 42.918 38.1197 42.8361 37.994 42.6776C37.8628 42.5191 37.8027 42.3279 37.8027 42.1038V40.1311V40.1311ZM42.4967 46H39.2454C39.1525 46 39.065 45.9781 38.9831 45.9399C38.9011 45.8962 38.8301 45.8415 38.7645 45.765C38.7044 45.6885 38.6552 45.6066 38.6169 45.5082C38.5787 45.4098 38.5623 45.3115 38.5623 45.2022V44.4153H41.5404V44.0273H38.5623V43.4372H42.4311V44.4481C42.4311 44.5956 42.3874 44.7268 42.3 44.8361C42.2126 44.9454 42.1142 45.0055 41.9995 45.0055H39.4475V45.1803C39.4475 45.2514 39.4694 45.306 39.5186 45.3497C39.5623 45.3934 39.6333 45.4098 39.7208 45.4098H42.5022V46H42.4967Z" fill="#221E1F"/>
</g>
</g>
<defs>
<clipPath id="clip0_491_514">
<rect width="28" height="25" fill="white" transform="translate(15 13)"/>
</clipPath>
<clipPath id="clip1_491_514">
<rect width="29.2787" height="6" fill="white" transform="translate(14 40)"/>
</clipPath>
</defs>
</svg>
