<svg width="177" height="177" viewBox="0 0 177 177" fill="none" xmlns="http://www.w3.org/2000/svg">
<rect width="177" height="177" rx="88.5" fill="#D9D9D9" fill-opacity="0.2"/>
<g clip-path="url(#clip0_685_475)">
<path d="M73.78 130.98V68.06L69.81 65.45L50.25 85.11V130.5" fill="white"/>
<path d="M73.78 130.98V68.06L69.81 65.45L50.25 85.11V130.5" stroke="#020202" stroke-width="2.5"/>
<path d="M74.9205 45.25H106.69C109 45.25 110.88 47.13 110.88 49.44V113.01C110.88 115.32 109 117.2 106.69 117.2H74.9205C72.6105 117.2 70.7305 115.32 70.7305 113.01V49.44C70.7305 47.13 72.6105 45.25 74.9205 45.25Z" fill="#C3FADC" stroke="#020202" stroke-width="2.5" stroke-linecap="round" stroke-linejoin="round"/>
<path d="M86.8008 53.23H94.8308" stroke="#020202" stroke-width="2.5"/>
<path d="M55.1289 53.55V60.57" stroke="#020202" stroke-width="2.5"/>
<path d="M51.6094 57.06H58.6394" stroke="#020202" stroke-width="2.5"/>
<path d="M62.2891 95.01L78.2591 79.04C80.5691 76.73 84.3091 76.73 86.6191 79.04C88.9291 81.35 88.9291 85.09 86.6191 87.4L66.7991 107.22" fill="white"/>
<path d="M62.2891 95.01L78.2591 79.04C80.5691 76.73 84.3091 76.73 86.6191 79.04C88.9291 81.35 88.9291 85.09 86.6191 87.4L66.7991 107.22" stroke="#020202" stroke-width="2.5"/>
<path d="M100.211 74.18H98.6209C96.6009 74.18 94.9609 75.82 94.9609 77.84V102.12C94.9609 104.14 96.6009 105.78 98.6209 105.78H123.991C126.011 105.78 127.651 104.14 127.651 102.12V77.84C127.651 75.82 126.011 74.18 123.991 74.18H122.401" fill="white"/>
<path d="M100.211 74.18H98.6209C96.6009 74.18 94.9609 75.82 94.9609 77.84V102.12C94.9609 104.14 96.6009 105.78 98.6209 105.78H123.991C126.011 105.78 127.651 104.14 127.651 102.12V77.84C127.651 75.82 126.011 74.18 123.991 74.18H122.401" stroke="#020202" stroke-width="2.5"/>
<path d="M105.701 65.03C105.701 61.93 108.221 59.42 111.311 59.42C114.401 59.42 116.921 61.94 116.921 65.03V74.18H122.411V65.03C122.411 58.9 117.441 53.93 111.311 53.93C105.181 53.93 100.211 58.9 100.211 65.03V74.18H105.701V65.03Z" fill="white" stroke="#020202" stroke-width="2.5"/>
<path d="M105.701 74.18H100.211" stroke="#020202" stroke-width="2.5"/>
<path d="M122.412 74.18H116.922" stroke="#020202" stroke-width="2.5"/>
<path d="M111.309 59.42C108.219 59.42 105.699 61.94 105.699 65.03V74.18H116.919V65.03C116.919 61.93 114.399 59.42 111.309 59.42Z" fill="white" stroke="#020202" stroke-width="2.5"/>
<path d="M116.919 74.18H105.699" stroke="#020202" stroke-width="2.5"/>
<path d="M106.121 84.8H116.511" stroke="#020202" stroke-width="2.5"/>
<path d="M106.121 91.04H116.511" stroke="#020202" stroke-width="2.5"/>
<path d="M106.121 97.27H116.511" stroke="#020202" stroke-width="2.5"/>
</g>
<defs>
<clipPath id="clip0_685_475">
<rect width="79.91" height="86.98" fill="white" transform="translate(49 44)"/>
</clipPath>
</defs>
</svg>
