<svg width="58" height="58" viewBox="0 0 58 58" fill="none" xmlns="http://www.w3.org/2000/svg">
<circle cx="28.8956" cy="28.8956" r="28.8956" fill="#FAFAFA"/>
<path d="M34.1824 16L24.3691 25.8167L34.1858 35.6299L43.9991 25.8133L34.1824 16Z" fill="#EE0790"/>
<path d="M22.489 16.4498H15V23.9388H22.489V16.4498Z" fill="#EE0790"/>
<path d="M22.489 27.6832H15V35.1722H22.489V27.6832Z" fill="#EE0790"/>
<path d="M33.9191 39.4728V40.4686H33.4464V39.4728H32.7825V42.4401C31.827 42.4501 31.0625 43.124 31.0625 43.9488C31.0625 44.7736 31.8471 45.4576 32.8228 45.4576C33.7984 45.4576 34.5629 44.7938 34.5729 43.979V39.4728H33.9091H33.9191ZM32.8228 44.9346C32.2796 44.9346 31.837 44.492 31.837 43.9488C31.837 43.4057 32.2796 42.9631 32.8228 42.9631C33.3659 42.9631 33.8085 43.4057 33.8085 43.9488C33.8085 44.492 33.3659 44.9346 32.8228 44.9346ZM33.9191 42.772C33.7783 42.6714 33.6174 42.601 33.4464 42.5406V41.062H33.9191V42.772Z" fill="#2E0F6E"/>
<path d="M32.1388 42.2489L32.4808 41.7661C32.4808 41.7661 31.3643 41.1424 31.3643 39.7543V39.4626H30.5696V39.7543C30.5696 41.1324 29.4531 41.7661 29.4531 41.7661L29.7951 42.2489C30.1975 42.0376 30.6702 41.6152 30.972 41.0418C31.2737 41.6152 31.7465 42.0376 32.1488 42.2489" fill="#2E0F6E"/>
<path d="M38.7872 42.2691V41.5851H40.2658V42.7217C39.9741 42.5406 39.6221 42.4401 39.2398 42.4401C38.2742 42.4401 37.4896 43.114 37.4896 43.9488C37.4896 44.7837 38.2742 45.4576 39.2398 45.4576C40.2055 45.4576 41.0001 44.7837 41.0001 43.9488V39.4728H40.2658V39.9556H38.7872V39.4728H36.1016V41.907C36.1016 42.1081 36.2625 42.2691 36.4637 42.2691H38.7771H38.7872ZM38.0529 41.6756H36.8358V40.0662H38.0529V41.6756ZM38.7872 40.549H40.2658V40.9916H38.7872V40.549ZM39.2499 44.9346C38.7067 44.9346 38.2642 44.492 38.2642 43.9488C38.2642 43.4057 38.7067 42.9631 39.2499 42.9631C39.7931 42.9631 40.2256 43.4057 40.2256 43.9488C40.2256 44.492 39.783 44.9346 39.2499 44.9346Z" fill="#2E0F6E"/>
<path d="M28.4767 42.1484V41.5549H27.9436C28.0241 41.2733 28.0643 40.9313 28.0643 40.5591V39.8349C28.0643 39.6337 27.9034 39.4728 27.7022 39.4728H23.719V40.0662H27.2697V40.5591C27.2697 40.9011 27.2395 41.233 27.1188 41.565H23.3066V42.1584H25.4894V42.9329H23.709V43.5264H27.2597V45.357H28.0543V42.9329H26.2739V42.1584H28.4566L28.4767 42.1484Z" fill="#2E0F6E"/>
<path d="M22.16 42.4702H17V43.0637H18.2573C17.9857 43.3252 17.8248 43.6772 17.8248 44.0494C17.8248 44.8843 18.6094 45.5582 19.5851 45.5582C20.5607 45.5582 21.3352 44.8843 21.3352 44.0494C21.3352 43.6672 21.1743 43.3252 20.9027 43.0637H22.16V42.4702ZM19.575 45.0352C19.0318 45.0352 18.5893 44.5926 18.5893 44.0494C18.5893 43.5062 19.0318 43.0637 19.575 43.0637C20.1182 43.0637 20.5507 43.5062 20.5507 44.0494C20.5507 44.5926 20.1081 45.0352 19.575 45.0352Z" fill="#2E0F6E"/>
<path d="M18.0757 40.9212C18.0757 41.6555 18.7496 42.259 19.5845 42.259C20.4193 42.259 21.0933 41.6655 21.0933 40.9212C21.0933 40.6395 20.9927 40.3881 20.8317 40.1668H21.9382V39.5733H19.9566V39H19.2224V39.5733H17.2207V40.1668H18.3372C18.1763 40.378 18.0757 40.6395 18.0757 40.9212ZM19.5845 40.1266C20.0069 40.1266 20.3389 40.4786 20.3389 40.9212C20.3389 41.3638 19.9969 41.7158 19.5845 41.7158C19.1721 41.7158 18.82 41.3638 18.82 40.9212C18.82 40.4786 19.162 40.1266 19.5845 40.1266Z" fill="#2E0F6E"/>
</svg>
