<svg width="58" height="58" viewBox="0 0 58 58" fill="none" xmlns="http://www.w3.org/2000/svg">
<circle cx="28.8956" cy="28.8956" r="28.8956" fill="#FAFAFA"/>
<g clip-path="url(#clip0_491_486)">
<path d="M33.3274 27.8123C33.2633 27.4342 33.1606 27.0625 33.0003 26.7223C32.5127 25.6827 31.8264 24.8007 30.8 24.2147C29.2028 23.3012 27.272 23.3075 25.694 24.2462C24.9755 24.6684 24.3918 25.2795 24.0133 26.0103C23.885 26.2561 23.7824 26.5207 23.6926 26.7853C23.2756 28.0832 23.2949 29.8284 24.0454 31.0129C24.2892 31.4035 24.642 31.7311 25.0782 31.8949C25.5079 32.0587 26.0275 32.0398 26.4124 31.7941C26.9127 31.4728 27.0026 30.8679 26.9127 30.3261C26.7973 29.6331 26.7011 28.9589 26.9641 28.2785C27.0475 28.0643 27.1629 27.8501 27.3297 27.6988C27.4323 27.598 27.5542 27.5224 27.6825 27.4594C27.9519 27.3271 28.2662 27.2704 28.5613 27.3208C29.0809 27.4027 29.5107 27.7997 29.7416 28.2722C29.9725 28.7384 30.0367 29.2676 30.0623 29.7906C30.1714 32.0587 29.6262 34.3962 29.036 36.5761C28.9783 36.8029 28.9141 37.0234 28.85 37.244C28.7987 37.4141 28.7153 37.6346 28.8243 37.8047C28.8756 37.874 28.9462 37.9244 29.0296 37.9622C29.3696 38.0945 29.6518 37.8929 29.8763 37.6661C31.2298 36.3304 32.0958 34.6104 32.6859 32.8337C32.904 32.1721 33.0965 31.5043 33.2248 30.8175C33.398 29.8788 33.5006 28.8077 33.3274 27.8186" fill="#009590"/>
<path d="M42.9999 17.2969C42.9999 16.9882 42.692 16.7928 42.3649 16.7991C42.0313 16.8117 41.7234 16.963 41.4155 17.0638C35.4755 19.0484 28.7658 19.4201 22.5051 18.6326C21.4338 18.5003 20.3498 18.3049 19.2721 18.16C18.5986 18.0655 17.9314 17.9332 17.2515 17.8891C16.6742 17.8513 15.9493 17.8324 15.481 18.1915C14.8588 18.6578 14.9037 19.5461 15.2565 20.1321C15.6799 20.8314 16.4176 21.3606 17.1809 21.7576C17.925 22.1482 18.8167 22.564 19.7019 22.5136C22.0945 22.3813 24.4808 22.1797 26.8606 21.9025C30.9211 21.4425 35.174 21.0078 38.9844 19.628C40.2288 19.1807 41.4604 18.6137 42.5252 17.8891C42.7177 17.7631 42.9999 17.5489 42.9999 17.3032" fill="#009590"/>
<path d="M25.9562 15.3564C25.9562 16.629 27.0018 17.656 28.2911 17.656C29.5805 17.656 30.6261 16.629 30.6261 15.3564C30.6261 15.1673 30.5812 14.9783 30.4978 14.8082C30.2989 14.3924 30.0744 14.1908 30.0936 13.6867C30.1257 13.0126 29.2405 13.0063 28.7658 13.0063C28.2462 13.0063 27.701 13.0756 27.2327 13.3087C26.8607 13.4914 26.5399 13.775 26.3154 14.1215C26.0845 14.4743 25.9562 14.8901 25.9434 15.3122V15.3627" fill="#ED1551"/>
</g>
<g clip-path="url(#clip1_491_486)">
<path d="M13.1518 40.7225V40.1257H14.0314V40.7225H15.2042V41.288H14.5864C14.7225 41.4555 14.8325 41.6545 14.9162 41.8848C15 42.1152 15.0419 42.3665 15.0471 42.6387C15.0471 42.9058 15.0052 43.1518 14.9319 43.3822C14.8586 43.6073 14.7592 43.801 14.6283 43.9686C14.4974 44.1361 14.3455 44.267 14.1675 44.356C13.9895 44.445 13.7958 44.4921 13.5812 44.4921C13.3613 44.4921 13.1571 44.4503 12.9791 44.356C12.801 44.2618 12.644 44.1309 12.5183 43.9686C12.3874 43.801 12.288 43.6021 12.2199 43.377C12.1518 43.1518 12.1152 42.9058 12.1152 42.6335C12.1152 42.3613 12.1571 42.1099 12.2356 41.8796C12.3194 41.6492 12.4293 41.4503 12.5654 41.2827H12V40.7225H13.1518ZM13.5916 41.2984C13.4136 41.2984 13.267 41.4188 13.1466 41.6649C13.0262 41.911 12.9686 42.2356 12.9738 42.6335C12.9738 43.0209 13.0262 43.3351 13.1414 43.5707C13.2565 43.8063 13.4031 43.9215 13.5812 43.9215C13.7592 43.9215 13.9058 43.8063 14.0209 43.5707C14.1361 43.3403 14.199 43.0262 14.199 42.6335C14.199 42.2094 14.1414 41.8796 14.0262 41.6492C13.911 41.4136 13.7644 41.2984 13.5916 41.2984V41.2984ZM16.6178 42.4188V45.8115H15.7696V40.1257H16.6178V41.8534H17.4346V42.4188H16.6178Z" fill="#221E1F"/>
<path d="M18.9694 43.6126H20.6605C20.7443 43.6126 20.8333 43.6126 20.917 43.6021C21.0008 43.5916 21.0846 43.5759 21.1631 43.555C21.2469 43.534 21.3307 43.4974 21.4249 43.445V40.1257H22.2731V41.8534H23.0898V42.4188H22.2731V45.8115H21.4249V44.0105C21.2731 44.0785 21.1055 44.1204 20.917 44.1466C20.7286 44.1728 20.5506 44.1832 20.3725 44.1832H18.493C18.3045 44.1832 18.1474 44.1047 18.027 43.9529C17.9013 43.801 17.8438 43.6178 17.8438 43.4031V40.377H18.6919V43.3822C18.6919 43.4555 18.7129 43.5131 18.76 43.555C18.8071 43.5969 18.8752 43.6126 18.9694 43.6126V43.6126Z" fill="#221E1F"/>
<path d="M26.3566 41.0052H25.3827V41.5812C25.3827 42.0942 25.477 42.534 25.6707 42.911C25.8644 43.288 26.1367 43.5393 26.4822 43.6702V44.267C26.2885 44.2408 26.1052 44.1885 25.9272 44.0995C25.7492 44.0105 25.5922 43.9162 25.4508 43.801C25.3147 43.6911 25.1942 43.5812 25.1 43.4607C25.0058 43.3456 24.9429 43.2408 24.9168 43.1518C24.8853 43.2408 24.8278 43.3403 24.7335 43.4607C24.6393 43.5759 24.5241 43.6911 24.388 43.801C24.2518 43.911 24.1 44.0052 23.9272 44.0942C23.7545 44.178 23.5817 44.2356 23.3984 44.267V43.6702C23.7388 43.534 24.0058 43.2827 24.1995 42.911C24.3932 42.5393 24.4927 42.0942 24.4979 41.5707V41.0052H23.4927V40.4398H26.3513V41.0052H26.3566ZM28.0529 40.1257V45.8115H27.2047V42.356H26.1052V41.7906H27.2047V40.1257H28.0529Z" fill="#221E1F"/>
<path d="M29.1211 42.8639H34.2101V43.4293H32.0949V43.8639H33.5818V45.8743H32.7337V44.4293H29.7494V43.8639H31.2363V43.4293H29.1211V42.8639V42.8639ZM33.5871 41.0681H32.163C32.252 41.3508 32.43 41.5759 32.7022 41.7382C32.9745 41.9005 33.2886 41.9791 33.6447 41.9791V42.5654C33.4195 42.5654 33.1996 42.5445 32.9902 42.5026C32.7808 42.4607 32.5871 42.4031 32.4091 42.3246C32.231 42.2513 32.0792 42.1728 31.9483 42.0785C31.8174 41.9843 31.7127 41.8848 31.6447 41.7801C31.5714 41.8848 31.4719 41.9843 31.3358 42.0785C31.1996 42.1728 31.0478 42.2565 30.8698 42.3351C30.6918 42.4084 30.5033 42.4607 30.2991 42.5026C30.0949 42.5445 29.8907 42.5654 29.6865 42.5654V41.9791C30.0269 41.9791 30.3358 41.9005 30.608 41.7382C30.8855 41.5812 31.0687 41.356 31.1682 41.0681H29.7546V40.5026H31.2258V40H32.1054V40.5026H33.5871V41.0681V41.0681Z" fill="#221E1F"/>
<path d="M37.3245 40.0314C37.5549 40.0314 37.7643 40.0785 37.958 40.1675C38.1517 40.2565 38.314 40.3822 38.4554 40.534C38.5915 40.6911 38.7015 40.8691 38.7748 41.0733C38.8481 41.2775 38.8899 41.4974 38.8899 41.7278C38.8899 42.0052 38.8376 42.2618 38.7276 42.4974C38.6229 42.733 38.4711 42.9319 38.2826 43.0838H39.8585V43.6492H36.246V44.9948C36.246 45.0681 36.2669 45.1309 36.314 45.178C36.3612 45.2251 36.4187 45.2461 36.4973 45.2461H39.2303V45.8115H35.9999C35.8219 45.8115 35.6805 45.7382 35.5653 45.5864C35.4502 45.4398 35.3978 45.2618 35.3978 45.0628V43.6492H34.7695V43.0838H36.3507C36.157 42.9267 36.0104 42.733 35.9004 42.4922C35.7957 42.2513 35.7381 42 35.7381 41.7278C35.7381 41.5026 35.7748 41.288 35.8533 41.0838C35.9266 40.8796 36.0365 40.7016 36.1727 40.5393C36.3088 40.3822 36.4763 40.2618 36.6701 40.1675C36.8638 40.0733 37.0784 40.0314 37.3193 40.0314H37.3245ZM37.3245 40.5969C37.2198 40.5969 37.1256 40.6283 37.0365 40.6859C36.9475 40.7487 36.869 40.8272 36.8062 40.9267C36.7434 41.0262 36.6858 41.1466 36.6543 41.2827C36.6177 41.4189 36.602 41.5654 36.602 41.7225C36.602 42.0576 36.6701 42.3298 36.8114 42.5393C36.9528 42.7487 37.1203 42.8534 37.3245 42.8534C37.5287 42.8534 37.6962 42.7487 37.8376 42.534C37.979 42.3194 38.047 42.0524 38.047 41.7225C38.047 41.3927 37.979 41.1361 37.8376 40.9162C37.7015 40.6963 37.5287 40.5916 37.3297 40.5916L37.3245 40.5969Z" fill="#221E1F"/>
<path d="M41.1414 40.534V40H42.021V40.534H42.9424V41.0995H42.5393C42.6335 41.2147 42.7121 41.3455 42.7644 41.4921C42.8168 41.6387 42.8482 41.7853 42.8482 41.9424C42.8482 42.1257 42.8168 42.2984 42.7487 42.4607C42.6806 42.623 42.5916 42.7592 42.4765 42.8796C42.3613 43 42.2252 43.0942 42.0733 43.1675C41.9215 43.2356 41.7539 43.267 41.5812 43.267C41.3927 43.267 41.2199 43.2408 41.0681 43.1675C40.911 43.0995 40.7801 43.0052 40.6649 42.8796C40.5498 42.7592 40.466 42.6178 40.4032 42.4607C40.3403 42.3037 40.3089 42.1309 40.3089 41.9476C40.3089 41.7906 40.3351 41.644 40.3875 41.4974C40.4398 41.3508 40.5131 41.2199 40.6126 41.1047H40.2461V40.534H41.1466H41.1414ZM41.5812 41.1361C41.4503 41.1361 41.3403 41.2147 41.2566 41.3665C41.1676 41.5236 41.1257 41.712 41.1257 41.9372C41.1257 42.1414 41.1676 42.3194 41.2513 42.466C41.3351 42.6126 41.445 42.6911 41.5759 42.6911C41.7068 42.6911 41.8168 42.6178 41.9005 42.466C41.9843 42.3141 42.0314 42.1414 42.0314 41.9372C42.0314 41.712 41.9895 41.5183 41.911 41.3665C41.8272 41.2094 41.7173 41.1361 41.5812 41.1361V41.1361ZM43.2252 43.1728V40.1257H44.0419V41.3194H44.4503V40.1257H45.267V44.5602C45.267 44.7749 45.2199 44.9686 45.1309 45.1466C45.0367 45.3246 44.9215 45.4764 44.7749 45.6073C44.6231 45.733 44.4555 45.8325 44.267 45.9005C44.0786 45.9686 43.8848 46.0052 43.6911 46.0052C43.4712 46.0052 43.267 45.9686 43.0733 45.9005C42.8796 45.8325 42.7121 45.733 42.5655 45.6073C42.4241 45.4817 42.3089 45.3298 42.2252 45.1571C42.1414 44.9791 42.0995 44.7853 42.1047 44.5654C42.1047 44.4031 42.1257 44.2461 42.1885 44.0995C42.2461 43.9529 42.3246 43.8168 42.4293 43.6963C42.5288 43.5812 42.6492 43.4764 42.7854 43.3874C42.9215 43.2984 43.0733 43.2304 43.2356 43.1832L43.2252 43.1728ZM43.6859 43.6754C43.5969 43.6754 43.5079 43.6963 43.4241 43.733C43.3351 43.7749 43.2566 43.8325 43.1833 43.9058C43.11 43.9791 43.0524 44.0733 43.0105 44.1832C42.9686 44.2932 42.9424 44.4188 42.9424 44.5602C42.9424 44.8377 43.021 45.0524 43.1728 45.2042C43.3246 45.356 43.4922 45.4346 43.6806 45.4346C43.7697 45.4346 43.8534 45.4136 43.9424 45.377C44.0262 45.3403 44.1047 45.2827 44.178 45.2094C44.2513 45.1361 44.3089 45.0471 44.3508 44.9372C44.3927 44.8272 44.4189 44.7016 44.4241 44.5602C44.4241 44.2723 44.3403 44.0524 44.1833 43.9005C44.0262 43.7487 43.8639 43.6754 43.6859 43.6754V43.6754ZM44.0419 41.8848V43.1466C44.1152 43.1623 44.1833 43.1832 44.2513 43.2094C44.3194 43.2356 44.3875 43.2618 44.4503 43.2932V41.8848H44.0419V41.8848Z" fill="#221E1F"/>
</g>
<defs>
<clipPath id="clip0_491_486">
<rect width="28" height="25" fill="white" transform="translate(15 13)"/>
</clipPath>
<clipPath id="clip1_491_486">
<rect width="33.267" height="6" fill="white" transform="translate(12 40)"/>
</clipPath>
</defs>
</svg>
