<svg width="58" height="58" viewBox="0 0 58 58" fill="none" xmlns="http://www.w3.org/2000/svg">
<circle cx="28.8956" cy="28.8956" r="28.8956" fill="#FAFAFA"/>
<g style="mix-blend-mode:multiply" clip-path="url(#clip0_395_495)">
<path d="M19.7163 13.1199C18.8129 13.5668 18.1337 14.3454 17.8145 15.3001L11.7559 33.4586C11.4367 34.4132 11.5114 35.4424 11.9597 36.3428C12.4148 37.2366 13.1959 37.9136 14.1468 38.2318L34.0136 44.8805C34.9849 45.1987 36.0037 45.131 36.9138 44.6774C37.824 44.2237 38.4964 43.4519 38.8156 42.4905L44.8809 24.3387C45.5398 22.3685 44.4598 20.2222 42.4765 19.5587L22.6097 12.9033C21.6452 12.5918 20.6196 12.6595 19.7163 13.1132" fill="white"/>
<path d="M29.4287 30.5544C28.3487 31.7596 26.9971 32.721 25.4485 33.3235L24.5451 33.6688V25.2599L25.4349 25.6052C26.9971 26.201 28.3487 27.1691 29.4354 28.3675C30.203 27.1285 30.6852 25.6932 30.7803 24.1292C31.0248 20.0939 28.4913 16.3972 25.007 15.1108L22.1407 14.1562C20.8435 13.7297 19.4715 14.4406 19.0368 15.727L12.9511 33.8855C12.5232 35.1787 13.2499 36.5802 14.5472 37.0067L28.3419 41.5971C29.7547 40.1076 30.6648 38.1306 30.7939 35.9234C30.9161 33.96 30.4067 32.1116 29.4287 30.5544ZM21.448 34.1902H20.0827V24.7588H21.448V34.1902Z" fill="#0099DA"/>
<path d="M28.6276 29.4576C27.8601 28.5571 26.9296 27.8056 25.8496 27.2504V31.6851C26.9296 31.1299 27.8601 30.3648 28.6276 29.4576Z" fill="#F15C21"/>
<path d="M42.0413 20.771L29.3809 16.5597C31.0789 18.4149 32.1249 20.8726 32.1249 23.5808C32.1249 25.7135 31.466 27.7582 30.2978 29.4644C31.466 31.1638 32.1384 33.2085 32.1384 35.3412C32.1384 37.8937 31.2283 40.2363 29.6933 42.0508L34.4478 43.6351C35.745 44.0684 37.117 43.3575 37.5449 42.0643L43.6306 23.899C44.0585 22.6058 43.3318 21.2043 42.0345 20.7778M38.6792 34.1631H36.9744L33.4561 29.4508L37.022 24.7385H38.7471L35.1677 29.4644L38.6792 34.1699V34.1631Z" fill="#0055A2"/>
</g>
<defs>
<clipPath id="clip0_395_495">
<rect width="33.5189" height="32.3631" fill="white" transform="translate(11.5586 12.7141)"/>
</clipPath>
</defs>
</svg>
