<svg xmlns="http://www.w3.org/2000/svg" width="24.664" height="27.756" viewBox="0 0 24.664 27.756">
  <g id="그룹_12962" data-name="그룹 12962" transform="translate(-369.336 -1330.511)">
    <ellipse id="타원_2" data-name="타원 2" cx="5.368" cy="5.368" rx="5.368" ry="5.368" transform="translate(376.179 1342.267) rotate(-88.699)" fill="#fff"/>
    <path id="타원_2_-_윤곽선" data-name="타원 2 - 윤곽선" d="M5.368-1A6.368,6.368,0,1,1-1,5.368,6.375,6.375,0,0,1,5.368-1Zm0,10.736A4.368,4.368,0,1,0,1,5.368,4.373,4.373,0,0,0,5.368,9.736Z" transform="translate(376.179 1342.267) rotate(-88.699)" fill="#372fd9"/>
    <path id="패스_146" data-name="패스 146" d="M254.5,608.85c-5.853,0-10.674,5.48-11.332,12.538h4.8v0h13.063v0h4.8C265.169,614.33,260.348,608.85,254.5,608.85Z" transform="translate(127.173 735.879)" fill="#fff"/>
    <path id="패스_146_-_윤곽선" data-name="패스 146 - 윤곽선" d="M254.5,607.85c6.313,0,11.613,5.78,12.328,13.445a1,1,0,0,1-1,1.093H243.163a1,1,0,0,1-1-1.093C242.883,613.63,248.182,607.85,254.5,607.85Zm10.2,12.538c-.978-6.08-5.218-10.538-10.2-10.538s-9.22,4.458-10.2,10.538h2.667v-3.354a1,1,0,0,1,2,0v3.354h11.063v-3.354a1,1,0,0,1,2,0v3.354Z" transform="translate(127.173 735.879)" fill="#372fd9"/>
  </g>
</svg>
