<svg width="30" height="58" viewBox="0 0 30 58" fill="none" xmlns="http://www.w3.org/2000/svg">
<path d="M2.17923 57.5C1.72885 57.5006 1.30141 57.3136 0.990185 56.9881L0.990074 56.9879C0.350361 56.3185 0.351473 55.2428 0.993067 54.5749L25.4917 29.0069L0.997595 3.44124C0.984959 3.42842 0.972588 3.41548 0.960398 3.40231L0.960268 3.40217C0.331566 2.72255 0.348684 1.64718 1.00093 0.989528L1.00102 0.989443C1.66409 0.321212 2.72802 0.340102 3.36857 1.02845L29.0196 27.8017L29.0197 27.8018C29.6601 28.4705 29.6601 29.5458 29.0197 30.2145L29.0196 30.2145L3.36586 56.9905L3.36551 56.9908C3.05441 57.3149 2.6281 57.5006 2.17923 57.5ZM2.17923 57.5C2.17954 57.5 2.17985 57.5 2.18015 57.5L2.17924 57L2.17831 57.5C2.17862 57.5 2.17892 57.5 2.17923 57.5Z" fill="black" stroke="black" stroke-linejoin="round"/>
</svg>
