<svg width="107" height="113" viewBox="0 0 107 113" fill="none" xmlns="http://www.w3.org/2000/svg">
<ellipse cx="53.5" cy="101" rx="53.5" ry="12" fill="#F4F4F4"/>
<path d="M14.9291 73.7124L24.8421 63.814H44.4823V100.6H14.9291V73.7124Z" fill="white" stroke="#020202" stroke-width="1.5" stroke-linecap="round" stroke-linejoin="round"/>
<path d="M24.8421 73.7124H14.9291L24.8421 63.814V73.7124Z" fill="white" stroke="#020202" stroke-width="1.5" stroke-linecap="round" stroke-linejoin="round"/>
<path d="M30.141 73.7124L40.054 63.814H59.6826V100.6H30.141V73.7124Z" fill="white" stroke="#020202" stroke-width="1.5" stroke-linecap="round" stroke-linejoin="round"/>
<path d="M40.054 73.7124H30.141L40.054 63.814V73.7124Z" fill="white" stroke="#020202" stroke-width="1.5" stroke-linecap="round" stroke-linejoin="round"/>
<path d="M14.3579 42.5432V51.2464" stroke="#020202" stroke-width="1.5"/>
<path d="M10 46.8948H18.716" stroke="#020202" stroke-width="1.5"/>
<path d="M67.5835 36.2537C65.2592 33.9328 61.5055 33.9328 59.1812 36.2537C56.8569 38.5746 56.8569 42.3227 59.1812 44.6436L71.6161 57.0602L80.0184 48.6703L67.5835 36.2537Z" fill="white" stroke="#020202" stroke-width="1.5"/>
<path d="M71.6162 57.0603L88.5137 73.9329C90.838 76.2538 94.5917 76.2538 96.916 73.9329C99.2403 71.6121 99.2403 67.8639 96.916 65.543L80.0185 48.6704L71.6162 57.0603V57.0603Z" fill="#00D695" stroke="#020202" stroke-width="1.5" stroke-linecap="round" stroke-linejoin="round"/>
<path d="M69.3056 8.84444C79.6835 19.1955 79.6719 35.9869 69.3056 46.3495C58.9277 56.7005 42.1232 56.7005 31.7453 46.3495C21.379 35.9869 21.379 19.1955 31.7453 8.84444C42.1232 -1.50658 58.9393 -1.50658 69.3056 8.84444Z" fill="#00D695" stroke="#020202" stroke-width="1.5" stroke-linecap="round" stroke-linejoin="round"/>
<path d="M64.3326 13.811C71.9562 21.4234 71.9562 33.7704 64.3326 41.3828C56.709 48.9952 44.3438 48.9952 36.7202 41.3828C29.0965 33.7704 29.0965 21.4234 36.7202 13.811C44.3438 6.19858 56.709 6.19858 64.3326 13.811V13.811Z" fill="white" stroke="#020202" stroke-width="1.5" stroke-linecap="round" stroke-linejoin="round"/>
<path d="M37.5553 27.597C37.5553 24.2782 38.822 20.9593 41.3555 18.4296C43.889 15.8999 47.2127 14.635 50.5248 14.635" stroke="#020202" stroke-width="1.5" stroke-linecap="round" stroke-linejoin="round"/>
<path d="M44.1793 84.1215V92.8247" stroke="#020202" stroke-width="1.5"/>
<path d="M39.8213 88.4729H48.5373" stroke="#020202" stroke-width="1.5"/>
<path d="M52.139 88.4689H73.2082" stroke="#020202" stroke-width="1.5"/>
<path d="M89.6885 15.3661C89.6885 23.3034 83.2503 29.7322 75.3012 29.7322C67.3522 29.7322 60.9139 23.3034 60.9139 15.3661C60.9139 7.42877 67.3522 1 75.3012 1C83.2503 1 89.6885 7.42877 89.6885 15.3661Z" fill="#FFE84A" stroke="#020202" stroke-width="1.5"/>
<path d="M80.7057 15.3661H69.8978" stroke="#020202" stroke-width="1.5"/>
<path d="M75.2996 9.96997V20.7736" stroke="#020202" stroke-width="1.5"/>
<path d="M75.2996 9.96997V20.7736" stroke="#020202" stroke-width="1.5"/>
<path d="M75.2996 9.96997V20.7736" stroke="#020202" stroke-width="1.5"/>
</svg>
