<svg width="17" height="32" viewBox="0 0 17 32" fill="none" xmlns="http://www.w3.org/2000/svg">
<path d="M2.4347 31.1559L2.43505 31.1555L16.1781 16.8112L16.1782 16.8112C16.6073 16.3632 16.6072 15.6455 16.1782 15.1975L16.1781 15.1974L2.4376 0.855786C2.00476 0.392068 1.28367 0.379438 0.835761 0.830833L0.835676 0.830918C0.398478 1.27173 0.387297 1.98941 0.808306 2.44452L0.808435 2.44466C0.81621 2.45305 0.824105 2.46133 0.832167 2.46953L13.799 16.0037L0.828873 29.54C0.828852 29.54 0.828832 29.5401 0.828811 29.5401L0.828432 29.5405L1.18946 29.8864C0.945184 30.1407 0.944713 30.5535 1.18834 30.8085L2.4347 31.1559ZM2.4347 31.1559C2.22532 31.374 1.9369 31.5003 1.63173 31.5M2.4347 31.1559L1.63173 31.5M1.63173 31.5C1.63204 31.5 1.63234 31.5 1.63265 31.5L1.63173 31L1.63081 31.5C1.63112 31.5 1.63142 31.5 1.63173 31.5Z" fill="black" stroke="black" stroke-linejoin="round"/>
</svg>
