<svg width="34" height="19" viewBox="0 0 34 19" fill="none" xmlns="http://www.w3.org/2000/svg">
<path d="M17.0037 15.3495L3.55009 1.78139C3.54143 1.77244 3.53266 1.76364 3.52373 1.75494L3.52357 1.75478C3.02564 1.26992 2.23038 1.28395 1.74972 1.78576L1.74962 1.78586C1.27328 2.2834 1.28522 3.07348 1.77603 3.55616L16.1173 18.0195L16.1174 18.0196C16.6067 18.5128 17.402 18.5129 17.8913 18.0195L17.8914 18.0195L32.2356 3.55307L32.2361 3.55265C32.4701 3.31613 32.6003 2.99671 32.6 2.66505M17.0037 15.3495L30.4603 1.77706C30.9491 1.28339 31.7442 1.28268 32.234 1.7753L32.2341 1.77544C32.4692 2.01202 32.6003 2.33223 32.6 2.66505M17.0037 15.3495L30.4598 1.7776L17.0037 15.3495ZM32.6 2.66505C32.6 2.6654 32.6 2.66575 32.6 2.6661L32 2.66506L32.6 2.664C32.6 2.66435 32.6 2.6647 32.6 2.66505Z" fill="#0B996E" stroke="#0B996E" stroke-width="1.2" stroke-linejoin="round"/>
</svg>
