<svg width="86" height="106" viewBox="0 0 86 106" fill="none" xmlns="http://www.w3.org/2000/svg">
<path d="M3.44384 100.106V101.268H0V84.994H3.44384V91.0763C4.12009 90.165 5.20542 89.6425 6.69566 89.6425C9.94748 89.6425 12.21 92.1423 12.21 95.591C12.21 99.0398 9.94748 101.54 6.69566 101.54C5.20542 101.54 4.12426 101.017 3.44384 100.106V100.106ZM8.84128 95.591C8.84128 93.8479 7.79769 92.5896 6.153 92.5896C4.5083 92.5896 3.3854 93.8479 3.3854 95.591C3.3854 97.3342 4.47073 98.5925 6.153 98.5925C7.83526 98.5925 8.84128 97.3342 8.84128 95.591Z" fill="#10CF96"/>
<path d="M13.6376 95.5911C13.6376 92.1424 15.9001 89.6426 19.1519 89.6426C20.6421 89.6426 21.7233 90.1651 22.4037 91.0764V89.9143H25.8476V101.268H22.4037V100.106C21.7275 101.017 20.6421 101.54 19.1519 101.54C15.9001 101.54 13.6376 99.0399 13.6376 95.5911V95.5911ZM22.458 95.5911C22.458 93.8479 21.3726 92.5897 19.6904 92.5897C18.0081 92.5897 17.0021 93.8479 17.0021 95.5911C17.0021 97.3343 18.0457 98.5926 19.6904 98.5926C21.3351 98.5926 22.458 97.3343 22.458 95.5911Z" fill="#10CF96"/>
<path d="M28.4357 89.9185H31.8795V91.0806C32.5558 90.1693 33.5993 89.6467 35.052 89.6467C37.6819 89.6467 39.481 91.5655 39.481 94.7007V101.268H36.0372V95.2818C36.0372 93.5595 35.34 92.6064 34.046 92.6064C32.7519 92.6064 31.8795 93.6723 31.8795 95.4364V101.268H28.4357V89.9143V89.9185Z" fill="#10CF96"/>
<path d="M46.6192 97.1043L45.2458 98.6552V101.272H41.802V84.9982H45.2458V94.5501L49.249 89.9184H53.0811L48.7273 94.7633L53.3107 101.272H49.3826L46.615 97.1085L46.6192 97.1043Z" fill="#10CF96"/>
<path d="M54.7007 89.9185H58.1445V91.0806C58.8208 90.1693 59.9061 89.6467 61.3963 89.6467C64.6482 89.6467 66.9107 92.1465 66.9107 95.5953C66.9107 99.044 64.6482 101.544 61.3963 101.544C59.9061 101.544 58.8249 101.021 58.1445 100.11V106H54.7007V89.9226V89.9185ZM63.542 95.5953C63.542 93.8521 62.4984 92.5938 60.8537 92.5938C59.209 92.5938 58.0861 93.8521 58.0861 95.5953C58.0861 97.3385 59.1714 98.5967 60.8537 98.5967C62.5359 98.5967 63.542 97.3385 63.542 95.5953Z" fill="#10CF96"/>
<path d="M72.7506 86.5449C72.7506 87.7655 71.8615 88.6559 70.6426 88.6559C69.4237 88.6559 68.5345 87.7655 68.5345 86.5449C68.5345 85.3242 69.4237 84.4338 70.6426 84.4338C71.8615 84.4338 72.7506 85.3242 72.7506 86.5449ZM72.3624 101.305H68.9186V89.9142H72.3624V101.305Z" fill="#10CF96"/>
<path d="M74.9547 89.9185H78.3986V91.0806C79.0748 90.1693 80.1184 89.6467 81.5711 89.6467C84.2009 89.6467 86.0001 91.5655 86.0001 94.7007V101.268H82.5562V95.2818C82.5562 93.5595 81.8591 92.6064 80.565 92.6064C79.271 92.6064 78.3986 93.6723 78.3986 95.4364V101.268H74.9547V89.9143V89.9185Z" fill="#10CF96"/>
<path d="M55.7109 18.5902C58.5811 18.5902 60.9079 16.2601 60.9079 13.3857C60.9079 10.5114 58.5811 8.18127 55.7109 8.18127C52.8406 8.18127 50.5138 10.5114 50.5138 13.3857C50.5138 16.2601 52.8406 18.5902 55.7109 18.5902Z" fill="#10CF96"/>
<g clip-path="url(#clip0_87_712)">
<path d="M55.94 23.819C47.24 23.819 39.8 29.2187 36.76 36.8184H36.68C36.32 37.4984 35.88 38.1183 35.36 38.6783C35.32 38.7183 35.3 38.7583 35.26 38.7983C33.66 40.4582 31.4 41.5182 28.9 41.5182C24.7 41.5182 21.22 38.5983 20.3 34.6785C20.14 34.0185 20.04 33.3585 20.04 32.6586C20.04 31.6186 20.26 30.6587 20.58 29.7387C21.8 26.2989 25.04 23.819 28.9 23.819C32.44 23.819 35.46 25.9189 36.88 28.9187C38.66 25.3589 41.78 23.039 45.78 21.979C42.06 16.4993 35.78 12.8994 28.66 12.8994C25.8 12.8994 23.06 13.4794 20.58 14.5394V0H8V33.5585V34.6785H8.06C8.64 45.558 17.64 54.2176 28.68 54.2176C30.98 54.2176 33.2 53.8177 35.28 53.1177V78.0366H47.88V44.0381H47.92C47.92 43.8981 47.88 43.7581 47.88 43.6181C47.88 38.8583 51.74 34.9985 56.5 34.9985C61.26 34.9985 65.12 38.8583 65.12 43.6181C65.12 48.3779 61.46 51.9977 56.86 52.1977C56.74 52.1977 56.62 52.2377 56.5 52.2377H52.62V64.8772C53.72 65.0572 54.82 65.1772 55.96 65.1772C67.38 65.1772 76.64 55.9176 76.64 44.4981C76.64 33.0786 67.38 23.819 55.96 23.819H55.94Z" fill="#10CF96"/>
</g>
<defs>
<clipPath id="clip0_87_712">
<rect width="68.62" height="78.0566" fill="white" transform="translate(8)"/>
</clipPath>
</defs>
</svg>
