<svg width="43" height="53" viewBox="0 0 43 53" fill="none" xmlns="http://www.w3.org/2000/svg">
<path d="M1.72192 50.0529V50.634H0V42.4971H1.72192V45.5382C2.06004 45.0826 2.60271 44.8213 3.34783 44.8213C4.97374 44.8213 6.10499 46.0712 6.10499 47.7956C6.10499 49.52 4.97374 50.7699 3.34783 50.7699C2.60271 50.7699 2.06213 50.5086 1.72192 50.0529ZM4.42064 47.7956C4.42064 46.924 3.89885 46.2949 3.0765 46.2949C2.25415 46.2949 1.6927 46.924 1.6927 47.7956C1.6927 48.6672 2.23537 49.2963 3.0765 49.2963C3.91763 49.2963 4.42064 48.6672 4.42064 47.7956Z" fill="#10CF96"/>
<path d="M6.81836 47.7956C6.81836 46.0712 7.94961 44.8213 9.57552 44.8213C10.3206 44.8213 10.8612 45.0826 11.2014 45.5382V44.9571H12.9233V50.634H11.2014V50.0529C10.8633 50.5086 10.3206 50.7698 9.57552 50.7698C7.94961 50.7698 6.81836 49.5199 6.81836 47.7956ZM11.2286 47.7956C11.2286 46.924 10.6859 46.2948 9.84476 46.2948C9.00363 46.2948 8.50062 46.924 8.50062 47.7956C8.50062 48.6672 9.02242 49.2963 9.84476 49.2963C10.6671 49.2963 11.2286 48.6672 11.2286 47.7956Z" fill="#10CF96"/>
<path d="M14.2178 44.9592H15.9397V45.5403C16.2778 45.0846 16.7996 44.8234 17.5259 44.8234C18.8409 44.8234 19.7404 45.7827 19.7404 47.3503V50.634H18.0185V47.6409C18.0185 46.7797 17.67 46.3032 17.0229 46.3032C16.3759 46.3032 15.9397 46.8362 15.9397 47.7182V50.634H14.2178V44.9571V44.9592Z" fill="#10CF96"/>
<path d="M23.31 48.5522L22.6233 49.3276V50.6361H20.9014V42.4991H22.6233V47.2751L24.6249 44.9592H26.5409L24.364 47.3817L26.6557 50.6361H24.6917L23.3079 48.5543L23.31 48.5522Z" fill="#10CF96"/>
<path d="M27.3506 44.9592H29.0725V45.5403C29.4106 45.0846 29.9533 44.8234 30.6984 44.8234C32.3243 44.8234 33.4556 46.0733 33.4556 47.7976C33.4556 49.522 32.3243 50.7719 30.6984 50.7719C29.9533 50.7719 29.4127 50.5106 29.0725 50.055V53H27.3506V44.9613V44.9592ZM31.7712 47.7976C31.7712 46.926 31.2494 46.2969 30.4271 46.2969C29.6047 46.2969 29.0433 46.926 29.0433 47.7976C29.0433 48.6692 29.586 49.2984 30.4271 49.2984C31.2682 49.2984 31.7712 48.6692 31.7712 47.7976Z" fill="#10CF96"/>
<path d="M36.3756 43.2726C36.3756 43.8829 35.9311 44.3281 35.3216 44.3281C34.7121 44.3281 34.2676 43.8829 34.2676 43.2726C34.2676 42.6622 34.7121 42.217 35.3216 42.217C35.9311 42.217 36.3756 42.6622 36.3756 43.2726ZM36.1815 50.6529H34.4596V44.9572H36.1815V50.6529Z" fill="#10CF96"/>
<path d="M37.4775 44.9592H39.1995V45.5403C39.5376 45.0846 40.0594 44.8234 40.7857 44.8234C42.1006 44.8234 43.0002 45.7827 43.0002 47.3503V50.634H41.2783V47.6409C41.2783 46.7797 40.9297 46.3032 40.2827 46.3032C39.6357 46.3032 39.1995 46.8362 39.1995 47.7182V50.634H37.4775V44.9571V44.9592Z" fill="#10CF96"/>
<path d="M27.8554 9.29516C29.2905 9.29516 30.4539 8.1301 30.4539 6.69293C30.4539 5.25576 29.2905 4.0907 27.8554 4.0907C26.4202 4.0907 25.2568 5.25576 25.2568 6.69293C25.2568 8.1301 26.4202 9.29516 27.8554 9.29516Z" fill="#10CF96"/>
<g clip-path="url(#clip0_398_2329)">
<path d="M27.97 11.9095C23.62 11.9095 19.9 14.6094 18.38 18.4092H18.34C18.16 18.7492 17.94 19.0592 17.68 19.3392C17.66 19.3592 17.65 19.3792 17.63 19.3992C16.83 20.2291 15.7 20.7591 14.45 20.7591C12.35 20.7591 10.61 19.2992 10.15 17.3392C10.07 17.0093 10.02 16.6793 10.02 16.3293C10.02 15.8093 10.13 15.3293 10.29 14.8694C10.9 13.1494 12.52 11.9095 14.45 11.9095C16.22 11.9095 17.73 12.9594 18.44 14.4594C19.33 12.6794 20.89 11.5195 22.89 10.9895C21.03 8.24964 17.89 6.44972 14.33 6.44972C12.9 6.44972 11.53 6.73971 10.29 7.26968V0H4V16.7793V17.3392H4.03C4.32 22.779 8.82 27.1088 14.34 27.1088C15.49 27.1088 16.6 26.9088 17.64 26.5588V39.0183H23.94V22.019H23.96C23.96 21.949 23.94 21.879 23.94 21.809C23.94 19.4292 25.87 17.4992 28.25 17.4992C30.63 17.4992 32.56 19.4292 32.56 21.809C32.56 24.1889 30.73 25.9989 28.43 26.0989C28.37 26.0989 28.31 26.1189 28.25 26.1189H26.31V32.4386C26.86 32.5286 27.41 32.5886 27.98 32.5886C33.69 32.5886 38.32 27.9588 38.32 22.249C38.32 16.5393 33.69 11.9095 27.98 11.9095H27.97Z" fill="#10CF96"/>
</g>
<defs>
<clipPath id="clip0_398_2329">
<rect width="34.31" height="39.0283" fill="white" transform="translate(4)"/>
</clipPath>
</defs>
</svg>
